<svg xmlns="http://www.w3.org/2000/svg" width="36" height="37" viewBox="0 0 36 37"><g><g><path fill="#fd3a3e" d="M24.843 23.106c.295.93-.311 1.806-1.289 1.863-.092.006-.184.002-.32.002 0 .169.002.318 0 .467-.014 1.23.053 2.468-.065 3.689-.174 1.806-1.163 3.15-2.662 4.144a.873.873 0 0 0-.316.416c-.456 1.328-1.338 2.174-2.717 2.484-.054.012-.103.044-.154.067h-.985c-.03-.016-.06-.042-.092-.05-1.173-.21-2.028-.85-2.592-1.897-.045-.084-.194-.155-.297-.158-.562-.015-1.124.001-1.686-.013-.211-.004-.328.052-.431.252-.404.779-1.033 1.321-1.85 1.636-.237.091-.485.154-.727.23h-.985c-.03-.017-.06-.043-.092-.05-1.477-.286-2.402-1.177-2.855-2.594a.646.646 0 0 0-.252-.303c-1.771-1.16-2.696-2.784-2.714-4.91-.009-1.008-.002-2.015-.002-3.023v-.393c-.91.076-1.485-.297-1.76-1.12v-.563c.282-.87.91-1.198 1.784-1.124.221.02.326-.064.418-.266.521-1.139 1.078-2.262 1.588-3.406.979-2.2 2.64-3.483 5.014-3.886 2.701-.462 5.393-.482 8.064.151 1.85.44 3.203 1.563 4.055 3.26.61 1.215 1.193 2.441 1.758 3.677.162.355.346.5.752.48.707-.032 1.22.345 1.41.938zm-4.424 5.224c-.003-1.525.001-3.049-.004-4.574 0-.148-.01-.312-.071-.441-.656-1.388-1.301-2.78-1.993-4.15-.477-.943-1.278-1.51-2.315-1.726-2.256-.467-4.515-.45-6.782-.066-1.356.23-2.323.932-2.865 2.209-.206.484-.448.954-.671 1.432-.377.806-.902 1.58-1.087 2.428-.188.863-.042 1.797-.042 2.7h-.012c0 .75-.006 1.5.001 2.251.013 1.235.584 2.13 1.695 2.653.701.33 1.108.83 1.168 1.613.035.45.258.702.605.754.341.053.61-.136.795-.553.45-1.014 1.235-1.533 2.341-1.548.833-.012 1.666-.002 2.499-.003 1.167 0 1.986.527 2.448 1.604.158.37.432.545.758.502.334-.044.602-.309.62-.706.038-.84.48-1.335 1.215-1.69 1.108-.532 1.7-1.431 1.697-2.689zm15.63-12.933v.563c-.269.785-.808 1.18-1.69 1.13v.426c-.015 1.243.051 2.494-.066 3.727-.172 1.792-1.15 3.131-2.635 4.124a.963.963 0 0 0-.355.472c-.683 2.144-3.108 3.158-5.026 2.09-.567-.318-.855-.84-.783-1.417.073-.581.504-1.121 1.073-1.207.316-.048.677.017.983.128.576.206 1.042-.013 1.08-.625.053-.823.477-1.32 1.198-1.666 1.126-.539 1.72-1.441 1.716-2.714-.005-1.525.003-3.051-.007-4.576a1.317 1.317 0 0 0-.123-.535c-.548-1.166-1.148-2.31-1.655-3.493-.603-1.407-1.641-2.182-3.134-2.392-2.176-.306-4.346-.327-6.51.112-1.147.232-1.971.873-2.496 1.917-.298.595-.883.906-1.464.812-.63-.103-1.117-.543-1.189-1.17-.032-.288.02-.622.144-.882.845-1.748 2.212-2.906 4.106-3.345 2.922-.678 5.865-.69 8.788-.006 1.84.433 3.184 1.555 4.034 3.238.649 1.286 1.258 2.592 1.872 3.896.093.2.194.29.417.27.863-.076 1.44.303 1.722 1.123zM0 9.764V9.2c.286-.84.885-1.204 1.755-1.12.257.023.365-.09.464-.305A368.906 368.906 0 0 1 4.008 3.96c.367-.772.891-1.424 1.535-1.987C6.686.973 8.066.583 9.53.4c.578-.07 1.157-.142 1.735-.21h2.465c.742.093 1.485.18 2.225.285 1.416.202 2.686.725 3.725 1.74.612.6.658 1.462.105 2.042-.55.575-1.41.602-2.012.017-.772-.751-1.741-.987-2.751-1.107-1.907-.225-3.811-.21-5.712.11-1.396.233-2.375.954-2.947 2.265-.516 1.18-1.094 2.332-1.629 3.504a1.719 1.719 0 0 0-.15.67c-.016 1.091.004 2.182-.012 3.273-.014 1.002-.895 1.634-1.843 1.347-.587-.178-.956-.688-.966-1.361-.01-.68-.002-1.358-.002-2.082C.876 10.966.279 10.6 0 9.763zm26.092 7.323c-.738 0-1.477.005-2.215-.001-.876-.007-1.477-.58-1.481-1.4-.004-.822.595-1.409 1.468-1.414 1.488-.008 2.977-.008 4.465 0 .83.005 1.449.611 1.452 1.4.003.805-.623 1.41-1.474 1.414-.739.005-1.477.001-2.215.001zm-13.49-7.596c-.003.775-.615 1.386-1.415 1.399-.457.007-.914 0-1.37 0-.446 0-.89.008-1.336 0-.843-.016-1.436-.604-1.433-1.412.003-.793.582-1.384 1.41-1.398a85.114 85.114 0 0 1 2.74 0c.801.011 1.407.633 1.404 1.41zm14.93 9.574a1.391 1.391 0 0 1 1.404 1.406 1.41 1.41 0 0 1-1.411 1.403 1.41 1.41 0 0 1-1.403-1.376 1.39 1.39 0 0 1 1.41-1.433zm-8.945 4.917c-.176.616-.696.986-1.414.989-1.56.004-3.119 0-4.678 0-1.57 0-3.142.01-4.713-.002-1.012-.008-1.65-.867-1.374-1.821.173-.604.687-.984 1.379-.99.996-.008 1.993-.002 2.99-.002 2.133 0 4.267-.006 6.4.002 1.042.005 1.688.853 1.41 1.824zm-8.731 4.394a1.412 1.412 0 0 1-1.43 1.384 1.412 1.412 0 0 1-1.383-1.396 1.392 1.392 0 0 1 1.43-1.414 1.392 1.392 0 0 1 1.383 1.426zm7.955-.026a1.413 1.413 0 0 1-1.404 1.41A1.41 1.41 0 0 1 15 28.355a1.389 1.389 0 0 1 1.404-1.405c.788-.001 1.4.608 1.408 1.4z"/></g></g></svg>