<svg xmlns="http://www.w3.org/2000/svg" width="36" height="37" viewBox="0 0 36 37"><g><g><path fill="#fd3a3e" d="M34.181 14.572c-10.292-.015-20.584-.008-30.877-.008h-.497v15.024c.001 2.505 1.835 4.344 4.337 4.344 7.216.002 14.433.002 21.649 0 2.5 0 4.33-1.84 4.332-4.35.002-3.577 0-7.157 0-10.736 0-.635.278-1.103.863-1.361.523-.231 1.135-.125 1.518.296.182.2.287.473.427.712v11.93c-.021.067-.052.13-.062.197-.427 2.71-1.907 4.604-4.445 5.638-.573.234-1.205.325-1.81.481h-23.3c-.065-.02-.128-.05-.195-.06-2.984-.495-4.936-2.186-5.852-5.065-.123-.386-.18-.793-.269-1.19V9.65c.147-.584.244-1.19.451-1.754 1.007-2.731 3.613-4.537 6.53-4.562.38-.002.76 0 1.17 0-.036-1.053-.174-2.118 1.113-2.526h.561c.841.282 1.19.878 1.126 1.747-.018.25-.003.505-.003.754h5.624c-.035-1.028-.173-2.093 1.114-2.501h.561c.84.282 1.19.878 1.126 1.747-.019.25-.003.505-.003.754h5.623c-.034-1.028-.172-2.093 1.114-2.501h.562c.84.282 1.19.879 1.126 1.748-.019.251-.003.505-.003.778.417 0 .79-.002 1.161 0a7.006 7.006 0 0 1 6.712 5.13c.11.389.18.79.268 1.186v3.79c-.285.842-.882 1.135-1.752 1.132zm-6.39-8.39v.336c0 .339.006.678-.001 1.017-.017.801-.622 1.41-1.398 1.412-.775.003-1.39-.606-1.405-1.403-.01-.462-.002-.925-.002-1.385H19.37v.323c0 .34.004.677-.001 1.016-.011.83-.608 1.446-1.397 1.449-.789.004-1.397-.616-1.408-1.438-.006-.45-.001-.9-.001-1.35h-5.615v1.233c-.003.92-.571 1.552-1.397 1.555-.826.004-1.407-.63-1.41-1.542V6.143c-.411 0-.773-.004-1.134 0-1.939.015-3.631 1.31-4.05 3.198-.17.764-.144 1.57-.21 2.394h30.35c.476-4.093-2.198-5.96-5.305-5.553zm-15.44 12.586c.002.775-.604 1.39-1.4 1.408-.467.009-.934.002-1.401.002-.467 0-.934.006-1.401-.002-.8-.015-1.408-.623-1.41-1.396a1.393 1.393 0 0 1 1.399-1.406c.934-.012 1.868-.01 2.802-.001.8.01 1.408.619 1.41 1.395zm8.421-.006c.006.79-.608 1.405-1.428 1.414-.922.008-1.845.008-2.767 0-.801-.01-1.411-.617-1.417-1.391-.005-.789.61-1.402 1.428-1.413.456-.007.911-.002 1.366-.002.468 0 .935-.005 1.402.003.801.012 1.41.614 1.416 1.39zm8.422.012c0 .776-.609 1.385-1.406 1.402-.467.008-.934.002-1.401.002-.467 0-.935.007-1.401-.002-.797-.017-1.405-.629-1.404-1.404 0-.774.61-1.39 1.406-1.4.934-.01 1.868-.01 2.802.002.797.01 1.404.625 1.404 1.4zm-16.843 5.614c0 .774-.609 1.392-1.405 1.401-.934.011-1.869.011-2.803 0a1.396 1.396 0 0 1-1.405-1.401c0-.774.609-1.387 1.405-1.401.467-.01.934-.002 1.401-.002.467 0 .935-.008 1.401.002.798.014 1.405.626 1.406 1.401zm8.421 0c0 .774-.608 1.392-1.405 1.401-.934.011-1.868.011-2.802 0a1.396 1.396 0 0 1-1.405-1.402c0-.774.609-1.386 1.405-1.4.479-.01.958-.002 1.436-.002.456 0 .911-.008 1.366.002.798.015 1.405.626 1.405 1.401zm8.422.01c-.005.774-.614 1.378-1.415 1.393-.467.007-.934 0-1.4 0-.445 0-.888.004-1.332 0-.847-.009-1.47-.611-1.465-1.411.005-.79.622-1.389 1.45-1.393.91-.006 1.821-.009 2.732 0 .82.007 1.435.62 1.43 1.41zm-18.246 4.204c.797.009 1.404.627 1.403 1.403-.002.775-.61 1.385-1.408 1.4-.467.009-.934 0-1.401 0-.467 0-.934.009-1.401 0-.796-.016-1.404-.63-1.403-1.406.002-.774.61-1.388 1.408-1.397.934-.009 1.868-.011 2.802 0zm8.4-.002c.818.013 1.432.628 1.424 1.418-.008.775-.618 1.378-1.42 1.386-.923.01-1.846.01-2.768 0-.817-.008-1.432-.628-1.424-1.417.008-.775.619-1.374 1.421-1.387.467-.005.934 0 1.401 0 .456 0 .91-.005 1.366 0zm8.437.002c.8.009 1.407.62 1.409 1.396.002.776-.605 1.391-1.401 1.406-.467.01-.934.002-1.401.002-.468 0-.935.008-1.402-.002-.798-.014-1.406-.624-1.408-1.397a1.395 1.395 0 0 1 1.401-1.405c.934-.011 1.868-.009 2.802 0z"/></g></g></svg>