<svg xmlns="http://www.w3.org/2000/svg" width="32" height="37" viewBox="0 0 32 37"><g><g><path fill="#fd3a3e" d="M31.77 16.448c0 4.372.006 8.744-.001 13.116-.006 3.354-2.236 6.15-5.499 6.922-.283.066-.57.118-.856.176H7.051c-.065-.02-.13-.053-.196-.063-3.516-.46-6.15-3.415-6.156-6.96-.013-7.355-.011-14.71 0-22.065C.702 4.414 2.807 1.675 5.854.82 6.248.71 6.652.64 7.05.552h9.958l.223.097c.62.258.993.904.881 1.527-.124.693-.672 1.177-1.371 1.195-.436.011-.871.002-1.307.002-2.519 0-5.038-.001-7.557.002-2.5.001-4.357 1.848-4.357 4.336-.002 7.264-.002 14.528 0 21.792 0 2.487 1.857 4.336 4.357 4.337 5.567.002 11.135.002 16.702 0 2.519-.001 4.364-1.847 4.365-4.366.002-4.69 0-9.38.001-14.07 0-1.04.856-1.724 1.804-1.453.582.166.995.683 1.016 1.298.014.399.004.799.004 1.199zM20.472 7.634c-.007-.93-.004-1.857-.001-2.784.006-2.128 1.412-3.82 3.514-4.234.055-.01.105-.042.158-.064h1.06c.38.111.794.162 1.136.345.501.269 1 .58 1.414.964.937.873 1.831 1.79 2.726 2.709 1.214 1.243 1.615 2.721 1.06 4.37-.556 1.645-1.752 2.67-3.482 2.837-1.453.138-2.944.235-4.39-.09-1.874-.421-3.18-2.13-3.195-4.053zm2.826-.051c.007.821.606 1.418 1.427 1.43.459.008.917.002 1.376.002.47 0 .94.007 1.41-.001.61-.01 1.062-.29 1.31-.85s.152-1.095-.271-1.53c-.943-.968-1.9-1.92-2.868-2.865-.435-.422-.969-.52-1.532-.273-.56.245-.846.695-.852 1.304-.009.927-.009 1.856 0 2.783zm-7.067 6.793c2.8 0 5.6-.003 8.4.001 1.04.001 1.728.912 1.414 1.857a1.417 1.417 0 0 1-1.235.959c-.07.004-.141.003-.212.003H7.87c-.834 0-1.444-.514-1.52-1.268-.085-.857.57-1.55 1.481-1.551 2.341-.004 4.682-.001 7.023-.001h1.377zm2.548 8.464h-2.541c-2.8 0-5.6.002-8.4-.003-1.042-.002-1.732-.91-1.42-1.853a1.413 1.413 0 0 1 1.233-.961c.058-.006.117-.005.176-.005l16.8-.001c.608 0 1.072.25 1.346.795.472.944-.215 2.02-1.3 2.024-1.965.01-3.93.004-5.894.004zm-2.657 2.821c.89.001 1.521.59 1.522 1.409 0 .819-.632 1.41-1.521 1.41-2.752.003-5.504.003-8.255 0-.889 0-1.522-.59-1.522-1.41 0-.818.632-1.408 1.52-1.409 1.376-.002 2.752 0 4.128 0 1.376 0 2.752-.002 4.128 0z"/></g></g></svg>