<svg xmlns="http://www.w3.org/2000/svg" width="702" height="427" viewBox="0 0 702 427"><g><g><g><path fill="#93959b" d="M660.362 378.743c0-.5-.26-1.057-1.017-1.157-.06-.02-.358-.02-.478-.02h-6.656c-.22 0-.718 0-1.076-.04-1.973-.278-2.87-1.953-2.87-3.389 0-1.754 1.196-3.128 2.91-3.368.259-.04.578-.06.996-.06h10.024v2.353h-9.864c-.379 0-.558.019-.718.06a1.02 1.02 0 0 0-.757.995c0 .4.2.878.737 1.018.12.039.459.059.757.059h6.836c.14 0 .458 0 .837.04 1.933.179 2.95 1.893 2.95 3.489 0 1.555-.977 3.329-3.11 3.529-.119.02-.737.02-.817.02h-10.462v-2.393h10.283c.14 0 .458 0 .538-.02.658-.12.957-.637.957-1.116zm-20.447 1.115c.678-.119.957-.636.957-1.115 0-.5-.26-1.057-1.017-1.157-.06-.02-.358-.02-.478-.02h-6.656c-.22 0-.718 0-1.076-.04-1.973-.278-2.87-1.953-2.87-3.389 0-1.754 1.196-3.128 2.91-3.368.259-.04.578-.06.996-.06h10.024v2.353h-9.865c-.378 0-.558.019-.717.06a1.02 1.02 0 0 0-.757.995c0 .4.199.878.737 1.018.12.039.458.059.757.059h6.836c.14 0 .458 0 .837.04 1.933.179 2.95 1.893 2.95 3.489 0 1.555-.977 3.329-3.11 3.529-.12.02-.737.02-.817.02h-10.462v-2.393h10.303c.12 0 .438 0 .518-.02zm-18.773-9.228h2.591v11.702h-2.59zm-8.987 11.702l-8.69-8.772v8.772h-2.59V370.63h3.328l8.63 8.73v-8.73h2.59v11.702zm89.16-11.702v11.702h-3.268l-8.67-8.772v8.772h-2.59V370.63h3.328l8.63 8.73v-8.73zm-25.23 0l7.294 11.702h-3.129l-1.295-2.094h-8.51l-1.295 2.094h-3.148l7.293-11.702zm-1.375 2.69l-2.93 4.705h5.84zm-59.486-9.17h-11.4v-1.376l4.743-.559c2.93-.337 3.548-1.633 4.345-3.268l.2-.4c6.855-14.632 21.761-24.08 38.003-24.08 16.222 0 31.148 9.448 38.004 24.04l.199.4c.797 1.635 1.415 2.93 4.344 3.268l4.743.56v1.375h-11.419l-.04-.119c-5.2-15.25-19.61-25.498-35.831-25.498-16.222 0-30.61 10.247-35.832 25.498zm83.201 24.72v1.376l-4.743.557c-2.93.34-3.547 1.636-4.344 3.27l-.2.4c-6.855 14.611-21.781 24.062-38.003 24.062s-31.148-9.451-38.004-24.083l-.2-.399c-.796-1.635-1.414-2.93-4.344-3.27l-4.743-.558v-1.375h11.4l.04.12c5.2 15.25 19.609 25.497 35.83 25.497 16.223 0 30.611-10.227 35.833-25.477l.04-.12z"/></g><g><path fill="#93959b" d="M561.38 376.225c0 20.429-26.737 37.156-60.142 37.156-33.22 0-60.238-16.727-60.238-37.156 0-20.59 27.017-37.256 60.238-37.256 33.405 0 60.141 16.667 60.141 37.256zm-60.142-30.113c-30.857 0-55.997 13.368-55.997 30.113 0 16.587 25.14 30.014 55.997 30.014 31.065 0 56.19-13.427 56.19-30.014 0-16.745-25.125-30.113-56.19-30.113zm-43.082 16.214h22.553l3.662 4.343v7.914l-1.831 1.642 1.831 1.735v9.265l-4.048 2.8H466.83v-6.757h10.505v-4.922h-12.047v11.679h-7.132zm29.107 0h8.385v8.686l1.253 1.158v6.562l-6.65.097-2.988-2.895zm20.432-.001h8.29v13.706l-2.989 2.798-6.264-.097v11.293h-8.29V372.17h8l1.253-1.158zm11.18.001h21.204l4.145 4.922v22.777h-16.289v-6.852h8.867v-11.389l-2.216-2.51h-8.193v20.75h-7.517zm-53.587 11.677h11.951v-4.922h-11.951z"/></g><g><path fill="#93959b" d="M385.837 403.482c-3.946-1.157-12.858 7.91-6.686 8.522 2.56-.271 4.943-1.23 7.207-2.656l.39.758c-5.04 3.51-12.533 4.747-11.461-.633-3.408 4.298-6.516 3.881-6.352 1.068-3.782 3.534-7.273 2.577-6.091-.812-3.616 4.168-7.346 3.646-8.052 1.273-5.483 2.713-8.003 2.45-8.068-.278-4.861 3.398-8.746 2.716-7.18-1.372-3.732 4.432-7.28 4.375-6.25.607-4.929 4.467-8.293 3.202-6.227-.23-3.008 3.298-7.153 4.67-6.254.903-4.41 3.454-7.126 2.194-5.608-1.067-8.201 8.054-27.996 10.908-15.958-6.185-12.833.118-11.356-13.363 10.477-13.212l-.054.788c-13.963-.79-23.023 10.963-9.243 11.18 11.25-8.734 25.384-15.632 30.398-12.01 4.649 5.708-19.531 14.544-28.78 13.284-10.975 12.57-1.644 14.917 13.386 5.084 4.93-4.625 9.684-6.435 13.58-5.22l-6.45 7.055c-1.459 3.047 1.36 1.658 4.562-1.089 4.031-5.31 8.472-6.608 11.956-6.124 1.71-1.85 3.66-3.471 5.37-5.32h2.464c-4.075 3.908-8.286 7.652-12.031 11.963-.713 2.104.991 2.416 4.583-1.113l5.81-5.27 2.185-.026-6.223 6.196c-1.393 2.5 1.014 2.657 5.352.365 1.154-4.835 9.366-12.724 12.596-12.829 2.537 1.63-3.615 8.447-10.898 12.71-1.014 2.735 1.98 2.234 6.647.394.834-4.537 9.46-12.64 12.019-12.39 3.144.625-1.588 7.05-10.113 12.106-.853 3.254 2.542 1.73 6.009-.998 4.126-4.762 8.996-7.07 13.886-5.534l-6.097 6.844c-.878 1.05.206 2.487 2.019.88 3.12-3.047 9.052-10.71 14.34-8.352 1.416 1.206.068 3.16-2.202 4.326-.543.133-.702-.008-.478-.42 1.583-1.275 2.312-2.374 1.52-3.166zm-28.719 5.163c7.572-5.295 11.049-9.426 9.63-10.305-4.164 2.611-8.495 6.938-9.63 10.305zm-8.579-.11c7.572-5.295 11.049-9.426 9.63-10.304-4.164 2.61-8.495 6.936-9.63 10.305zm-45.37-6.1c10.778 1.402 28.736-8.303 26.819-11.406-2.243-2.706-12.468.292-26.82 11.406zm23.434 1.205c-3.32.048-8.253 3.505-9.645 6.515-.449 1.086-.248 1.738 1.18 1.438 1.807-.383 4.709-3.059 8.465-7.953zm11.24.056c-3.32.048-8.254 3.504-9.645 6.515-.45 1.086-.248 1.74 1.178 1.437 1.808-.382 4.71-3.057 8.466-7.952zm36.245.055c-3.32.05-8.253 3.504-9.645 6.516-.449 1.086-.248 1.739 1.18 1.436 1.807-.381 4.709-3.056 8.465-7.952zm-25.108-1.615c-.544.526-1.373.58-1.846.118-.473-.462-.415-1.268.129-1.795.543-.526 1.373-.579 1.846-.118.473.462.415 1.268-.129 1.795zm41.793 8.48c.081.192.12.392.12.606 0 .214-.038.414-.117.602a1.493 1.493 0 0 1-.347.5 1.651 1.651 0 0 1-1.769.35 1.59 1.59 0 0 1-.521-.347 1.52 1.52 0 0 1-.35-1.705 1.621 1.621 0 0 1 .87-.857c.193-.077.4-.116.618-.116.223 0 .433.04.63.117a1.606 1.606 0 0 1 .866.85zm-.055.612c0-.192-.036-.372-.106-.543-.07-.169-.172-.32-.305-.448a1.46 1.46 0 0 0-1.03-.412 1.418 1.418 0 0 0-1.004.402c-.14.138-.247.294-.321.465-.075.17-.112.348-.112.531 0 .185.036.36.11.528a1.443 1.443 0 0 0 1.327.866 1.484 1.484 0 0 0 1.03-.416 1.293 1.293 0 0 0 .41-.973zm-.603.746v.039h-.3a1.11 1.11 0 0 1-.033-.318.735.735 0 0 0-.055-.326c-.037-.07-.121-.105-.253-.105h-.612v.749h-.24v-1.751h.857a.63.63 0 0 1 .402.128c.11.087.164.205.164.354a.42.42 0 0 1-.248.406c.102.032.164.088.187.173.022.085.034.204.034.357 0 .046.002.091.006.134a.286.286 0 0 0 .029.106.109.109 0 0 0 .062.054zm-.318-1.209a.302.302 0 0 0-.068-.213c-.048-.057-.125-.085-.23-.085h-.637v.593h.617c.102 0 .179-.027.231-.084a.325.325 0 0 0 .087-.21zm11.355-74.457l-.282.383-8.528 11.586-3.677 19.75-.002.01c-.377 1.631-1.424 2.921-2.91 3.946-1.464 1.008-3.355 1.759-5.45 2.328l-.018.005-39.104 7.507-.278-.048-40.128-6.862-.03-.006a18.007 18.007 0 0 1-5.18-2.569c-1.857-1.339-2.944-2.744-3.023-3.423l-3.494-20.643-7.94-11.123-.268-.376.46-.003 59.404-.396v-.001l.237-.002h.24l59.498-.062zm-59.971.542v3.751h51.756l7.261-3.813zm-47.508 11.3l.028.066 3.673 20.891.03.167-.026.004c.038.087.106.204.208.347.44.606 1.486 1.605 3.498 2.533a688.94 688.94 0 0 0 19.7 4.147 846.604 846.604 0 0 0 19.92 3.637v-39.02H288.47zm47.715 31.001c6.737-1.503 13.56-2.751 19.68-3.869 11.888-2.175 21.101-3.86 21.749-5.88l-9.708 1.01a2.431 2.431 0 0 1-.457.525c-.538.474-1.38.882-2.527 1.221l-.017.006-28.72 5.13zm41.44-9.786l-.898.006.893.011.006-.017zm-9.228-1.7l9.756.04.412-2.65-1.844-.001-7.941 1.223zm1.056-4.205l9.357.06.626-4.167-1.579-.004-7.845 1.013zm9.328 4.892l.001-.004 3.42-19.814.026-.063 5.24-7.55h-51.49v1.978h16.487v6.737H341.18v3.856h16.294v1.975H341.18v3.448h.06l43.585.118h.186l-.028.183-.674 4.49-.02.136h-.14l-42.91-.284-.059-.001v1.146l42.774.033h.187l-.029.185-.462 2.968-.02.137h-.138l-42.312-.173v1.594l31.836-.345v-.007h.184l9.814-.05v.16l.16.004c-.082 2.37-9.624 4.114-22.05 6.389-6.178 1.128-13.073 2.39-19.863 3.908l-.081.02v.411c2.388-.445 4.817-.89 7.249-1.337 10.89-1.998 21.797-3.998 32.547-6.743.649-.166 1.392-.625 1.984-1.314.5-.582.89-1.324 1.023-2.191zm-43.28-31.5l-58.94.394 6.433 3.355h52.507zm-51.25 11.17l2.14.031c.636-1.02-3.74-5.156-4.308-5.784-.576-.64-1.634-.55-2.064-1.023-.675-.807-1.664-1.706-2.458-2.598zm3.557 20.813l.002.02.003.016c.676.582 1.345.896 2.004.935.674.039 1.348-.208 2.021-.74l-3.633-20.666-3.865-.057zm47.693 12.418v-.466c-17.259-4.061-43.555-6.21-45.684-10.66-.006-.002-.012 0-.018 0-.572-.035-1.144-.25-1.716-.641.416.647 1.293 1.552 2.554 2.462a17.563 17.563 0 0 0 5.026 2.494zm46.86-11.778c-.46.372-.86.611-1.301.738-2.408 4.379-27.941 6.427-45.082 10.44v.596l39.004-7.402c2.045-.557 3.885-1.286 5.299-2.26.875-.604 1.586-1.302 2.08-2.112zm4.281-21.132l-3.978.059-.152.22-3.413 19.777c-.076.495-.232.95-.44 1.364.985.23 1.64.303 2.199.175.6-.139 1.114-.516 1.843-1.18l.019.02c.115-.273.208-.556.276-.85zm7.931-10.971l-.405.213c-1.322 1.588-2.529 3.082-4.023 4.543-.623.608-1.607 1.088-2.545 1.445-1.241 1.586-3.127 3.604-3.31 4.486l2.445-.038zm-76.324 24h16.53v2.44h-16.53zm-.002 5.587l16.533.051v10.248l-16.315-2.734zm-29.525-19.296l-3.444-4.69-.187-.255.316.001 49.295.022h.161v.16l-.022 4.496v.157l-.16.002-45.83.171h-.081zm-2.999-4.625l3.209 4.37 9.755-.037-2.644-3.66-7.342-.672zm48.959 8.893l-44.893.063h-.14l-.019-.139-.418-3.037-.025-.181h.184l45.31.012h.16v3.282zm-44.753-.257l9.692-.013-.363-1.904-7.628-.799-2.075-.001zm44.753 1.628l.16.001v4.59h-44.324l-.02-.138-.643-4.439-.026-.182h.185zm-43.886 4.27h8.82l-.57-3.477-5.624-.628-3.223-.013zm43.725 0v-.003l-.603.002zm-42.596 8.44l-.023-.134-1.196-6.689-.033-.186.19-.001 25.996-.19.16-.002v.16l.02 6.88v.161zm.27-.322h9.142l-.483-5.758-6.836-.633-2.962.022zm24.709 3.478h.16v2.296h-.16c-3.402 0-6.808.093-10.214.187-3.405.092-6.811.185-10.221.185l-.043-.005c-.912-.254-1.658-.596-2.237-1.022-.587-.433-1.002-.954-1.245-1.563l-.088-.22.237.001zm-20.413 2.349c2.607-.001 5.215-.055 7.825-.122l-.83-1.277-8.173-.758-1.973-.012c.227.46.574.86 1.039 1.204.542.399 1.246.72 2.112.965zm57.475-24.56h-.16v-2.294h.16l30.181-.13.306-.002-.173.253-1.662 2.424-.049.071-.085-.001zm29.877-2.102l-2.829.012-8.362.962-.74 1.011 10.49.118zm-3.964 13.285l-26.106-.156-.16-.001v-7.776h.162l27.543.118.193.002-.036.188-1.438 7.495-.025.132zm-.132-.32l1.376-7.177-2.236-.008-7.807 1.084-.634 6.045zm8.874 10.992a.939.939 0 0 1-.432 1.047.915.915 0 0 1-1.122-.148.95.95 0 0 1-.243-.416.92.92 0 0 1 .094-.708.933.933 0 0 1 1.462-.192.921.921 0 0 1 .24.417zm-.078.242a.817.817 0 0 0-.408-.71.891.891 0 0 0-.198-.084.85.85 0 0 0-.426 0 .894.894 0 0 0-.197.083.826.826 0 0 0-.384.497.822.822 0 0 0 1.585.427.823.823 0 0 0 .028-.213zm-.348.481h.001v.012h-.135v-.002a.27.27 0 0 1-.03-.082.425.425 0 0 1-.011-.096l-.003-.05-.003-.049a.374.374 0 0 0-.008-.056.16.16 0 0 0-.016-.04.078.078 0 0 0-.028-.028.244.244 0 0 0-.118-.032c-.029-.005-.062-.005-.1-.005h-.235v.44h-.002l-.13.005h-.002v-1.029h.395c.047 0 .089.003.126.006a.6.6 0 0 1 .097.02.249.249 0 0 1 .072.03c.02.014.037.03.05.05a.203.203 0 0 1 .033.067.316.316 0 0 1 .001.179.247.247 0 0 1-.037.076.174.174 0 0 1-.06.054.165.165 0 0 1-.067.022l.05.018a.295.295 0 0 1 .045.026c.012.01.022.023.03.038a.24.24 0 0 1 .02.058.527.527 0 0 1 .011.081c.003.033.004.07.004.114l.002.033a.548.548 0 0 0 .005.04l.007.035c.005.018.01.033.016.043a.046.046 0 0 0 .02.022zm-.178-.804a.106.106 0 0 0-.042-.051.177.177 0 0 0-.074-.027.5.5 0 0 0-.11-.01h-.282v.338h.32c.067 0 .118-.014.151-.041.034-.028.05-.07.05-.128a.21.21 0 0 0-.013-.081zm.024.755v0zm.013.038zm-.001-.004a.296.296 0 0 1-.012-.032l.005.016.007.016zm-44.206 33.02l.007.005"/></g><g><path fill="#93959b" d="M240 376.122c0 13.354-5.2 25.91-14.643 35.35-9.443 9.443-21.997 14.643-35.35 14.643-13.354 0-25.908-5.2-35.35-14.642-9.443-9.442-14.643-21.997-14.643-35.35 0-27.566 22.427-49.994 49.993-49.994 13.353 0 25.907 5.2 35.35 14.643 9.442 9.443 14.643 21.998 14.643 35.35zm-1.73 0c0-12.891-5.02-25.01-14.136-34.127-9.116-9.116-21.236-14.136-34.127-14.136-12.892 0-25.012 5.02-34.127 14.136-9.116 9.116-14.136 21.236-14.136 34.127 0 12.892 5.02 25.012 14.136 34.128 9.115 9.116 21.235 14.135 34.127 14.135 26.612 0 48.263-21.651 48.263-48.263zm-48.263 0h27.657c0 15.274-12.383 27.656-27.657 27.656zm0-27.657v27.657H162.35c0-15.274 12.383-27.657 27.657-27.657zm-27.68 8.014l-2.334-1.959 3.752-4.47c.423-.505 1.368-.652 2.005-.118.72.605.792 1.523.298 2.112zm-.39-7.495l-3.53 4.205-2.208-1.853 3.57-4.255c.413-.492 1.348-.472 1.949.032.66.555.662 1.341.218 1.871zm74.344 27.138c0 25.556-20.718 46.275-46.274 46.275s-46.274-20.719-46.274-46.275c0-25.557 20.718-46.273 46.274-46.273s46.274 20.716 46.274 46.273zm-53.037-31.568h2.438v-8.505l3.209 8.505h2.664l3.208-8.505v8.505h2.439v-12.18h-3.664l-3.315 8.677-3.315-8.677h-3.664zm-21.375 15.698l6.268-7.47c1.432-1.707 1.654-3.398.148-4.862-.98-.952-2.494-1.24-3.916-.357.271-.704.16-1.423.016-1.818-.612-1.118-.826-1.258-1.331-1.682-1.634-1.37-3.354-.2-4.584 1.266l-5.944 7.083zm57.696 15.87c0-16.323-13.234-29.558-29.558-29.558-16.325 0-29.559 13.235-29.559 29.558 0 16.325 13.234 29.558 29.559 29.558 16.324 0 29.558-13.233 29.558-29.558zm9.186-21.051l-1.884-2.329-7.118 3.38 4.591-6.5-2.021-2.496-7.313 3.14 4.785-6.262-1.884-2.326-7.641 9.829 2.233 2.735 7.218-2.97.026.032-4.406 6.444 2.212 2.753z"/></g><g><path fill="#93959b" d="M.8 358.357c-.045-.281-.076-.565-.113-.848v-1.249c.05-.373.087-.75.155-1.119.478-2.599 1.78-4.697 3.894-6.274 1.935-1.443 4.134-2.099 6.538-1.928 3.27.23 5.842 1.738 7.682 4.447 1.247 1.837 1.755 3.893 1.642 6.106-.223 4.352-3.493 8.208-7.754 9.112-2.954.628-5.684.08-8.116-1.719-2.197-1.625-3.502-3.82-3.929-6.528zm99.77 38.632c-.162 2.769-1.296 5.09-3.368 6.934-1.577 1.405-3.434 2.2-5.53 2.436-.13.015-.257.033-.386.05H89.96c-.43-.065-.865-.107-1.29-.196-2.87-.605-5.076-2.167-6.598-4.671-1.14-1.872-1.59-3.925-1.355-6.098.336-3.106 1.824-5.55 4.405-7.3 1.86-1.266 3.943-1.813 6.18-1.641 3.252.25 5.81 1.757 7.637 4.457 1.229 1.814 1.76 3.846 1.633 6.03zm-29.527-6.82c-4.429 4.424-8.857 8.852-13.287 13.278-1.515 1.513-3.332 2.448-5.443 2.795-4.828.795-9.55-2.05-10.987-6.723-1.173-3.812-.355-7.25 2.457-10.089 6.674-6.735 13.4-13.422 20.103-20.13 6.456-6.459 12.913-12.914 19.365-19.377 1.21-1.212 2.61-2.096 4.25-2.593.94-.285 1.902-.425 2.884-.429 4.697-.003 8.762 3.271 9.677 7.88.693 3.493-.214 6.575-2.73 9.098-8.748 8.778-17.524 17.529-26.29 26.29zm-13.44-26.317c-6.391 6.396-12.789 12.785-19.183 19.177-6.79 6.786-13.581 13.573-20.37 20.361-1.593 1.595-3.496 2.578-5.73 2.885-4.73.651-9.317-2.104-10.752-6.734-1.183-3.814-.38-7.268 2.447-10.106 10.32-10.362 20.68-20.686 31.026-31.021 2.859-2.857 5.716-5.715 8.58-8.569 1.951-1.945 4.318-2.94 7.067-2.938 4.568.004 8.408 3.016 9.549 7.444.1.388.172.787.224 1.186.055.419.07.842.093 1.14-.059 2.864-1.009 5.233-2.951 7.175z"/></g><g><path fill="#93959b" d="M600.864 263.692H589.43c-2.654 0-3.507-.206-4.318-1.083-.834-.899-.716-1.661-1.534-3.78a13.505 13.505 0 0 0-12.602-8.643 13.505 13.505 0 0 0-12.604 8.643c-.816 2.119-.7 2.881-1.532 3.78-.812.877-1.665 1.083-4.318 1.083h-11.434a29.885 29.885 0 0 1 29.888-29.885 29.886 29.886 0 0 1 29.888 29.885zm-14.151 2.228l11.042 11.042a29.883 29.883 0 0 1-11.196 12.231l-12.72-12.72c-1.159-1.157-1.672-1.605-2.3-1.797a1.769 1.769 0 0 0-.563-.105c-.2 0-.365.042-.564.105-.628.192-1.14.64-2.3 1.798l-12.721 12.72a29.892 29.892 0 0 1-11.195-12.232c2.432-2.43 9.792-9.792 11.043-11.042 2.308-2.307 2.111-2.228 5.383-2.228h20.708c3.271 0 3.075-.08 5.383 2.228zm114.047-2.275c0 9.032-7.438 16.38-16.58 16.38-9.143 0-16.582-7.348-16.582-16.38 0-9.031 7.439-16.38 16.581-16.38 9.143 0 16.581 7.349 16.581 16.38zm-7.965 0c0-4.73-3.849-8.578-8.58-8.578-4.73 0-8.58 3.849-8.58 8.579s3.85 8.58 8.58 8.58c4.731 0 8.58-3.85 8.58-8.58zm-48.5-15.576h5.15v31.051h-5.659c-.727 0-1.308-.021-1.932-.304-.622-.282-1.021-.704-1.5-1.253l-15.369-17.521v16.45c0 .455-.006.776-.112 1.123a2.09 2.09 0 0 1-1.392 1.393c-.348.105-.67.112-1.123.112h-5.153v-31.05h5.66c.728 0 1.309.02 1.931.302.624.28 1.022.705 1.502 1.252l15.368 17.522v-16.45c0-.455.007-.776.112-1.124.1-.33.278-.624.523-.87.244-.243.54-.422.869-.522.349-.106.67-.11 1.124-.11zm13.449.001h5.132v31.05h-7.76v-28.423c0-.454.007-.777.112-1.125.1-.33.278-.625.522-.868.245-.245.54-.423.87-.524.349-.105.669-.11 1.124-.11z"/></g><g><path fill="#93959b" d="M201.725 267.703v9.17c0 .353-.378.575-.675.4-.277-.382-9.683-5.202-10.205-6.366v-19.555c0-.328.172-.63.45-.793l5.402-3.175c1.707-1.236-.043 17.83.9 17.63l3.903 2.295c.138.08.225.232.225.394zm23.926-16.384v19.456a.918.918 0 0 1-.449.763l-9.754 5.735c-.297.175-.675-.047-.675-.4v-9.17c0-.162.087-.314.224-.394.166-.188 4.398-2.328 4.129-2.689v-9.7c.507-.213-6.93-4.244-6.943-4.34a.447.447 0 0 0-.673.393v28.61c-3.872 2.275-2.662 2.261-6.523.002v-37.073l2.812-1.652a.907.907 0 0 1 .437-.122h.022a.924.924 0 0 1 .44.122l16.504 9.7c.27.156.438.445.449.76zm285.425 8.62c-.003.26-.004.512 0 .753v.256c-.063 2.295-2.03 4.276-4.353 4.232l4.183 6.054a.254.254 0 0 1-.193.397h-4.78c-.816-.322-4.455-6.265-4.736-6.45h-10.001v6.201a.248.248 0 0 1-.235.249h-3.476a.246.246 0 0 1-.229-.207v-10.04c.384-.906 20.383.79 19.893-.813v-5.474c-.058-.344-.307-.556-.598-.556h-19.056a.246.246 0 0 1-.239-.208v-3.559c.059-.105.55-.177 1.341-.225h12.34c3.095.047 5.531.08 5.698 0h.073c3.39.125 4.205 2.736 4.368 5.571zm-89.444-.14v2.51c-.199 3.189-1.141 6.11-2.613 7.048-1.495 1.272-4.417 2.034-7.669 2.316h-6.003c-3.04-.261-5.791-.918-7.361-1.944-1.83-1.113-2.759-3.969-2.957-7.036v-2.57c.206-3.24 1.177-6.245 2.718-7.215 1.476-1.293 4.356-2.069 7.569-2.36h5.95c2.931.26 5.604.91 7.217 1.926 1.967 1.17 2.947 4.159 3.149 7.324zm-6.106-4.4c-3.21-1.482-8.63-1.128-12.014-.786-2.534.407-4.182 1.43-4.67 3.887-.27 1.591-.428 5.053.554 6.697 2.317 3.7 9.975 2.633 13.692 2.408 2.542-.413 4.204-1.42 4.687-3.89.335-2.41.664-6.989-2.249-8.316zm65.334 4.289v2.752c-.215 3.137-1.15 5.993-2.602 6.917-1.5 1.275-4.432 2.035-7.693 2.316h-5.956c-3.048-.26-5.81-.918-7.384-1.946-1.855-1.125-2.786-4.038-2.968-7.152v-2.32c.188-3.29 1.164-6.365 2.725-7.35 1.473-1.29 4.349-2.066 7.559-2.356h5.973c2.927.262 5.596.91 7.206 1.922 1.943 1.157 2.923 4.091 3.14 7.217zm-6.087-4.223c-3.21-1.456-8.642-1.116-12.018-.775-2.52.403-4.187 1.397-4.675 3.84-.277 1.57-.425 4.991.55 6.615 2.336 3.664 9.99 2.6 13.703 2.38 2.535-.4 4.203-1.392 4.691-3.841.346-2.395.653-6.917-2.251-8.22zm-213.201 12.463l-1.78 3.343a.68.68 0 0 1-.574.36h-.035c-.13-.083-2.679-.046-5.9 0H240.97c-.822-.047-1.33-.12-1.384-.225v-.044c.08-.268.042-3.308 0-6.989v-11.482c.05-1.45.138-2.366.288-2.357h3.44c.702-.035-.026 16.84.207 17.098.177.28 18.361-.542 18.05.296zm61.72 3.345c.015.025.022.05.027.078v.087a.247.247 0 0 1-.24.21c-.167-.04-.685-.02-1.323.004h-2.518c-.543-.05-.939-.159-.994-.373-12.173-20.928-5.543-21.015-17.59 0-.05.214-.433.322-.966.373h-2.514c-.713-.027-1.299-.053-1.465-.004a.252.252 0 0 1-.218-.373l10.457-19.156c.715-1.017 1.915-1.652 3.21-1.695h.236a4.422 4.422 0 0 1 3.504 1.958c.25.308 10.175 18.574 10.395 18.89zm29.247-15.322v4.25c-.009.426-.012.827-.002 1.195.078 2.405-1.947 4.547-4.365 4.5h-15.4c-.206 4.56.5 5.585-.438 5.777h-3.279a.266.266 0 0 1-.224-.262v-9.269c-.003-1.015 20.403.767 19.766-.867l.01-6.135c-.055-.346-.309-.56-.6-.56h-18.933c-.144.046-.218-.216-.251-.622v-1.86c.023-.658.049-1.206.008-1.272-.01-.124.576-.206 1.548-.256h11.411c3.463.05 6.288.095 6.382.006 3.28.054 4.166 2.568 4.367 5.375zm99.139-5.079l-1.78 3.34c.235.757-9.754.215-10.022.369-.232.245.411 17.116-.282 17.064 0 .002-3.444.002-3.444.002a.225.225 0 0 1-.172-.073c-.228-.162.043-16.787-.036-16.993H425.56a.252.252 0 0 1-.247-.255v-3.495c-.01-.113.608-.19 1.657-.241h17.377c3.828.043 6.798.07 7.128 0h.09a.2.2 0 0 1 .114.282zm-160.916 17.056l-1.78 3.34a.682.682 0 0 1-.546.363h-.07c-.172-.082-2.715-.046-5.941 0h-12.772c-.827-.05-1.33-.124-1.367-.233v-.029c.091-.23.045-3.562 0-7.502v-10.825c.049-1.538.14-2.517.296-2.508h3.685c.07.103 2.8.051 6.14-.007h10.86c.958.06 1.522.154 1.468.303l-1.78 3.34a.692.692 0 0 1-.606.366h-16.092l-.01 4.688c.188.273 18.077-.532 17.788.292l-1.783 3.343a.68.68 0 0 1-.603.363h-15.413l-.01 4.41c.186.273 18.834-.534 18.536.296zm99.183 3.433a.248.248 0 0 1-.221.312h-3.38c-1.071-.673-3.596-13.395-3.882-13.583-.09-.427-.708-.492-.882-.092l-5.665 11.9c-.368.758-1.06 1.222-1.878 1.268-.833.05-1.821-.632-2.19-1.398l-5.656-11.848a.471.471 0 0 0-.882.083l-3.726 13.14a.69.69 0 0 1-.662.508h-3.29a.25.25 0 0 1-.235-.32l5.277-18.77c.33-1.174 1.292-1.948 2.475-2.012h.37c.976.072 1.843.703 2.272 1.614l5.697 11.937c.155.35.698.35.851 0l5.722-11.982c.991-2.143 4.259-2.023 4.944.501z"/></g><g><path fill="#93959b" d="M37.308 229.805c.258 14.577.783 29.16-1.375 43.664-.709 4.76-2.703 9.008-5.054 13.12-1.183 2.069-2.498 4.063-3.686 6.13-1.04 1.807-2.485 2.878-4.613 2.948-.24.009-.476.165-.713.253H16.57c-.441-.11-.913-.154-1.316-.343-1.102-.516-2.545-.817-3.202-1.691-5.339-7.104-9.313-14.845-10.122-23.874-1.193-13.31-.997-26.648-.712-39.984.04-1.804.488-2.255 2.31-2.41 2.269-.194 4.54-.359 6.81-.537h17.761c2.321.18 4.64.405 6.965.522 1.468.075 2.219.76 2.244 2.202zm-1.644 18.057c0-5.342.027-10.689-.016-16.032-.014-1.724-.55-2.157-2.256-2.267a219.5 219.5 0 0 0-28.481 0c-1.742.114-2.317.627-2.305 2.412.074 10.949.05 21.901.316 32.846.236 9.698 3.342 18.52 9.177 26.299.74.986 2.05 1.981 3.205 2.132 2.491.323 5.078.307 7.574.003 1.108-.135 2.496-1.067 3.06-2.041 2.514-4.341 4.818-8.806 7.1-13.278.53-1.035.745-2.256.984-3.417 1.811-8.8 1.9-17.726 1.642-26.657zm125.18 6.318v10.59l-3.665.431V253.75c1.286.152 2.475.292 3.665.43zm-8.106 2.3c.272 1.81.441 3.7.229 5.503-.302 2.565-1.112 3.01-4.327 3.145-.078.326-.174.811-.195.808-1.235-.187-2.628.748-3.727-.55-.208-.243-.743-.283-1.13-.29-1.605-.031-3.211.012-4.816-.02-2.016-.045-3.111-1.122-3.16-3.123-.04-1.656-.038-3.313 0-4.97.04-1.724 1.367-3.087 3.086-3.103a598.38 598.38 0 0 1 10.876-.003c1.82.016 2.89.783 3.164 2.603zm-5.46-.733c-2.076-.033-4.156-.07-6.23.015-1.255.05-2.14.642-2.028 2.131.062.827.011 1.662.011 2.492 0 2.382.457 2.827 2.9 2.828h1.568l-.119-1.506c1.405.287 2.569.496 3.715.774.45.11 1.023.645 1.26.506.43-.25.866-.839.917-1.325.127-1.232-.03-2.492.06-3.731.113-1.54-.66-2.163-2.054-2.184zm-15.808 3.664c-.112 1.51-.163 3.084-.668 4.48-.216.594-1.474 1.113-2.276 1.137-3.784.118-7.576.089-11.364.04-2.027-.028-3.05-1.173-3.058-3.222-.006-1.505-.003-3.01-.001-4.515.002-2.195.852-3.358 3.033-3.417 4.655-.127 9.315-.04 14.037-.04v1.864H126.1c-2.076 0-4.152-.016-6.228.004-1.714.018-2.332.64-2.34 2.291-.005 1.142.003 2.283 0 3.424-.003 1.125.579 1.734 1.677 1.745 2.796.029 5.592.01 8.547.01v-2.788h-6.416v-1.88c3.082 0 6.177-.024 9.272.039.307.004.878.562.859.828zm-21.38-3.982c-.137 3.148-.038 6.305-.038 9.484-2.529.499-4.589.154-6.505-1.727-2.205-2.164-4.75-3.98-7.45-6.198v8.017h-3.381v-11.009c2.116-.383 4.01-.186 5.722 1.45 2.142 2.05 4.469 3.907 6.731 5.829.29.246.672.386 1.145.65 0-2.214.035-4.238-.012-6.26-.03-1.217.399-1.849 1.693-1.807 1.09.036 2.174-.24 2.095 1.571zm-21.584 1.476c.08 1.935-.052 3.897-.295 5.82-.204 1.623-1.172 2.323-2.827 2.35-1.864.03-3.728.006-5.592.006-1.813 0-3.625.023-5.437-.004-2.116-.033-3.206-1.103-3.248-3.191a122.324 122.324 0 0 1 0-4.815c.042-2.132 1.13-3.196 3.232-3.2 3.573-.007 7.146-.008 10.719 0 2.03.004 3.365 1.05 3.448 3.034zm-3.712.154c-.043-.381-.655-.985-1.025-.999-2.59-.101-5.19-.142-7.778-.027-.468.021-1.226.815-1.287 1.319-.169 1.41-.125 2.865-.006 4.288.095 1.145.921 1.599 2.04 1.578 1.035-.022 2.07-.006 3.106-.006 1.034 0 2.07-.018 3.104.006 1.137.025 1.954-.498 2.019-1.607.088-1.51-.005-3.045-.173-4.552zM63.62 253.9h3.312v11.074h-3.246v-4.877c-2.098 0-4.093-.027-6.086.01-1.434.024-3.283-.371-4.169.36-.729.603-.315 2.588-.412 3.96-.01.15-.045.3-.084.55h-3.249v-11.034h3.341c0 1.003.025 2.016-.008 3.028-.026.807.202 1.274 1.124 1.266 2.799-.027 5.599.032 8.394-.061.373-.013.969-.669 1.034-1.091.153-1 .049-2.04.049-3.185zm-30.338-17.278c-.285 5.644-.45 11.296-.847 16.93-.092 1.319-.73 2.695-1.431 3.854-1.636 2.703-3.489 5.273-5.203 7.929-1.31 2.032-2.106 4.217-2.183 6.7-.199 6.48-.518 12.954-.792 19.43-.023.545-.062 1.088-.093 1.633l-.56.077c-.095-.484-.275-.97-.273-1.453.038-7.208.11-14.417.154-21.626.072-11.98.13-23.96.193-35.94.003-.666 0-1.332 0-1.996 2.44 0 4.754-.107 7.053.025 4.21.24 4.229-.458 3.982 4.437zm-26.634-4.288c3.148-.166 6.298-.294 9.722-.45v61.169c-.103.034-.205.07-.307.102-.119-.5-.322-.999-.343-1.505-.251-6.168-.553-12.334-.676-18.505-.06-3.014-.849-5.711-2.503-8.194-1.611-2.415-3.17-4.867-4.851-7.232-1.096-1.542-1.646-3.213-1.722-5.066-.25-6.117-.481-12.233-.735-18.35-.044-1.055.168-1.904 1.415-1.969zm11.685-.372h2.05v61.1h-2.05v-61.1z"/></g><g><path fill="#93959b" d="M617.577 163.315h3.007v10.337h-4.902l-3.266-2.952h-.003l-3.267 2.952h-4.902v-10.337h3.007l.001 7.196c0 .163.194.247.315.138l4.847-4.38 4.847 4.38c.121.11.315.025.315-.138l.001-7.196zm19.346 0h3.004v8.132l-2.21 2.2h-11.68l-2.21-2.2v-8.132h3.004v7.107c0 .13.106.235.236.235h9.62c.13 0 .236-.106.236-.235zm9.487 7.342h9.852v2.99h-10.883l-2.21-2.2v-8.132h3.004v7.107c0 .13.106.235.237.235zm13.094-7.345h3.008v10.34h-3.008zm19.34 0h3.003v10.339h-3.003l-9.832-6.558a.165.165 0 0 0-.255.137v6.42h-3.003v-10.338h3.003l9.833 6.558a.163.163 0 0 0 .254-.137zm9.25 2.779v4.332c0 .13.107.236.238.236h9.655c.224 0 .278-.311.069-.387l-1.94-.7v-1.09h5.075v5.169h-13.89l-2.21-2.202v-5.936l2.21-2.2h13.89v2.543h-12.86a.236.236 0 0 0-.236.235zm-109.858 7.947a.4.4 0 0 1 0 .39l-5.855 10.469a.403.403 0 0 1-.702 0l-5.854-10.47a.398.398 0 0 1 0-.39l5.854-10.461a.402.402 0 0 1 .702 0zm-12.728-.3a.31.31 0 0 1-.273.463h-10.1a3.927 3.927 0 0 1-3.426-2.001l-4.513-8.074a.123.123 0 0 1 .107-.184h10.226a.121.121 0 0 0 .103-.187l-.288-.493a.436.436 0 0 0-.363-.195h-10.148a.385.385 0 0 1-.337-.198l-5.366-9.605a.307.307 0 0 1 .268-.457h9.554c1.73 0 3.328.935 4.17 2.438zm37.422-20.474l-5.367 9.605a.385.385 0 0 1-.337.198H587.08a.435.435 0 0 0-.364.195l-.287.493a.121.121 0 0 0 .103.187h10.225c.094 0 .154.101.108.184l-4.513 8.074a3.927 3.927 0 0 1-3.426 2.001h-10.1a.31.31 0 0 1-.273-.462l10.385-18.494a4.783 4.783 0 0 1 4.17-2.438h9.554c.236 0 .384.252.269.457z"/></g><g><path fill="#93959b" d="M360.426 149.436h39.181v39.127h-39.181v-39.127zm16.336 13.834c0 .115.075.258.16.344 3.069 3.063 6.139 6.124 9.222 9.173.284.281.406.556.404.957-.014 3.72-.003 7.44-.016 11.16-.001.345.1.428.434.427 3.014-.012 6.028-.007 9.041-.008.107 0 .213-.013.328-.02V152.71h-19.55c-.014.067-.027.102-.027.137-.001 3.474-.004 6.948.004 10.423zm-13.106 21.639c0 .261.005.426.36.425 6.297-.012 12.595-.01 18.893-.011.108 0 .216-.012.367-.02v-.558c0-3.228-.004-6.457.008-9.686.001-.345-.092-.59-.34-.837-3.08-3.055-6.15-6.12-9.21-9.194a.948.948 0 0 1-.25-.604c-.014-3.755-.01-7.513-.01-11.268v-.448h-9.815v15.111c0 5.697.002 11.392-.003 17.09zm77.129-11.806h10.721v2.268h-13.275c-.007-.121-.022-.252-.022-.383-.001-4.013.001-8.027-.005-12.04 0-.245.05-.347.323-.347 4.243.005 8.485.003 12.728.003.072 0 .144.012.243.019v2.236h-10.72v2.747h10.152v2.285h-10.145v3.212zm79.488 2.293c-1.33 0-2.542.007-3.754-.009-.141-.003-.292-.113-.42-.199-3.08-2.086-6.157-4.173-9.236-6.26-.08-.055-.164-.102-.295-.184v6.623h-2.616v-12.763h.402c3.357 0 6.714-.01 10.071.006 1.325.007 2.536.373 3.565 1.264 1.663 1.439 1.78 4.802-.889 6.137-.909.456-1.879.625-2.888.61-.288-.005-.576 0-.863 0l-.037.102 6.96 4.673zm-5.73-6.722c.446-.007.914-.178 1.328-.368.47-.215.76-.607.72-1.175a5.909 5.909 0 0 1-.005-.772c.035-.577-.263-.978-.733-1.214-.362-.182-.785-.332-1.182-.337-2.618-.033-5.237-.024-7.856-.025-.072 0-.145.01-.249.02v3.866c.102.009.185.022.269.022 2.57.001 5.139.016 7.708-.017zm-54.499-6.045h13.251v2.241h-10.723v2.748h10.165v2.273h-10.17v3.21h10.724v2.263h-13.247v-12.735zm-29.786.008l-10.149 10.565h9.596v2.17H414.71l10.175-10.59h-9.569v-2.145h14.942zm58.165 6.079l9.403 6.614c-.01.02-.019.042-.028.064-1.255 0-2.509.007-3.763-.007-.155-.003-.33-.084-.462-.176a5699.732 5699.732 0 0 1-8.776-6.156c-.105-.073-.216-.14-.373-.24v6.55h-2.587V162.63h2.56v6.095c.151-.08.245-.12.327-.175 2.832-1.906 5.66-3.816 8.5-5.71.208-.138.494-.222.746-.227 1.154-.024 2.31-.01 3.507.067-3.009 2.005-6.018 4.01-9.054 6.035z"/></g><g><path fill="#93959b" d="M314.26 177.636c.006.01.01.021.011.03a.06.06 0 0 1-.028.056.057.057 0 0 1-.03.008h-3.396a1.243 1.243 0 0 1-1.006-.513l-6.953-9.597a.15.15 0 0 0-.06-.05.16.16 0 0 0-.076-.02.159.159 0 0 0-.077.02.154.154 0 0 0-.06.05l-6.952 9.597a1.247 1.247 0 0 1-1.006.513h-3.42a.058.058 0 0 1-.053-.032.065.065 0 0 1-.006-.032.073.073 0 0 1 .01-.03l11.348-15.552a.246.246 0 0 1 .089-.074.232.232 0 0 1 .114-.03c.04 0 .08.01.115.03a.245.245 0 0 1 .09.074zm25.816-15.503a.142.142 0 0 1 .049.033c.014.015.025.03.032.05a.145.145 0 0 1 .012.056v15.309a.145.145 0 0 1-.012.056.125.125 0 0 1-.032.05.16.16 0 0 1-.05.032.16.16 0 0 1-.057.011h-3.183a.15.15 0 0 1-.15-.15v-5.83a.18.18 0 0 0-.054-.128.176.176 0 0 0-.128-.053h-14.455a.175.175 0 0 0-.128.053.18.18 0 0 0-.053.128v5.83a.144.144 0 0 1-.011.057.13.13 0 0 1-.033.05.16.16 0 0 1-.049.032.161.161 0 0 1-.058.011h-3.182a.161.161 0 0 1-.058-.01.16.16 0 0 1-.05-.034.13.13 0 0 1-.032-.049.144.144 0 0 1-.011-.056v-15.309c0-.019.003-.039.011-.056a.14.14 0 0 1 .033-.05.163.163 0 0 1 .107-.046h3.182a.163.163 0 0 1 .107.046.14.14 0 0 1 .033.05.144.144 0 0 1 .011.056v5.83c0 .024.005.048.014.069a.161.161 0 0 0 .04.059.173.173 0 0 0 .127.053h14.455a.175.175 0 0 0 .167-.112.175.175 0 0 0 .014-.068v-5.83a.153.153 0 0 1 .15-.152h3.184c.02 0 .04.005.058.012zm-46.242 0c.01.008.019.018.023.03.005.01.006.023.004.036a.069.069 0 0 1-.019.033l-9.162 9.16a.601.601 0 0 0-.177.427v5.762a.144.144 0 0 1-.01.056.13.13 0 0 1-.033.05.16.16 0 0 1-.05.032.162.162 0 0 1-.057.011h-3.183a.15.15 0 0 1-.151-.15v-5.761a.601.601 0 0 0-.177-.426l-9.162-9.16a.069.069 0 0 1-.018-.034.06.06 0 0 1 .003-.036.075.075 0 0 1 .024-.03.078.078 0 0 1 .036-.012h3.554c.555 0 1.087.216 1.485.602l5.878 5.753a.17.17 0 0 0 .239 0l5.891-5.755c.398-.384.93-.6 1.483-.6h3.543c.013 0 .025.005.036.011zm-26.344.256a3.787 3.787 0 0 1 2.044 2.044c.19.456.287.948.287 1.443v8.057a3.774 3.774 0 0 1-1.106 2.67 3.773 3.773 0 0 1-2.67 1.107h-14.199a3.774 3.774 0 0 1-2.67-1.107 3.774 3.774 0 0 1-1.107-2.67v-8.057a3.776 3.776 0 0 1 3.777-3.775h14.198c.496 0 .988.097 1.446.288zm-.943 4.724a1.715 1.715 0 0 0-1.717-1.717h-11.769a1.716 1.716 0 0 0-1.717 1.717v5.584a1.716 1.716 0 0 0 1.717 1.717h11.77a1.715 1.715 0 0 0 1.717-1.717zm-20.345-5.004c.01.007.017.014.022.024.005.01.007.022.006.032a.058.058 0 0 1-.011.03l-11.244 15.411a.265.265 0 0 1-.089.077.258.258 0 0 1-.229 0 .263.263 0 0 1-.09-.077l-11.243-15.41a.057.057 0 0 1-.01-.03.058.058 0 0 1 .005-.033.067.067 0 0 1 .022-.024.073.073 0 0 1 .031-.008h3.418a1.241 1.241 0 0 1 1.007.514l6.85 9.455a.172.172 0 0 0 .273 0l6.851-9.455a1.239 1.239 0 0 1 1.007-.514h3.393a.07.07 0 0 1 .031.008zm-30.09-7.29l-5.472 5.685a12.079 12.079 0 0 0-3.264 6.74l-2.378 17.435c-.053.389-.18.762-.376 1.102l-1.665 2.884a.114.114 0 0 1-.059.05.106.106 0 0 1-.078.005.129.129 0 0 1-.065-.045.122.122 0 0 1-.023-.074l.82-28.622a6.036 6.036 0 0 1 1.543-3.86l13.337-14.85a.126.126 0 0 1 .062-.036.148.148 0 0 1 .071.003.12.12 0 0 1 .056.046.12.12 0 0 1 .022.068v7.188a9.054 9.054 0 0 1-2.531 6.28zM180 148.538v-7.189c0-.025.007-.047.021-.068a.122.122 0 0 1 .056-.046.147.147 0 0 1 .072-.003.125.125 0 0 1 .061.036l13.338 14.85a6.037 6.037 0 0 1 1.543 3.86l.82 28.622a.122.122 0 0 1-.024.074.129.129 0 0 1-.064.045.106.106 0 0 1-.079-.005.115.115 0 0 1-.059-.05l-1.664-2.884a3.025 3.025 0 0 1-.376-1.102l-2.379-17.434a12.079 12.079 0 0 0-3.263-6.741l-5.472-5.686a9.055 9.055 0 0 1-2.531-6.28zm21.35 9.277c.072.165.107.343.102.523l-1.043 36.437a.605.605 0 0 1-.08.284l-.904 1.562a.115.115 0 0 1-.044.044.11.11 0 0 1-.06.016.11.11 0 0 1-.06-.016.116.116 0 0 1-.045-.044l-.902-1.562a.6.6 0 0 1-.08-.284l-1.043-36.438a1.215 1.215 0 0 1 .416-.948l1.556-1.347a.243.243 0 0 1 .316 0l1.556 1.347c.135.118.243.264.315.426z"/></g><g><path fill="#93959b" d="M112.114 161.825c-.056-.433.515-.615.773-.296 4.273 3.263 8.53 6.547 12.794 9.824.057-2.727-.004-5.458.028-8.184a.82.82 0 0 1 .442-.793c.574-.332 1.144-.68 1.747-.964.251-.145.617.086.568.383.014 4.694-.005 9.39.008 14.082-.036.267.07.635-.22.793-.266.121-.493-.078-.698-.215-4.226-3.255-8.436-6.525-12.68-9.753-.019 2.72.002 5.445-.009 8.164.081.712-.713.955-1.2 1.253-.493.226-.975.757-1.546.454-.018-4.915-.01-9.83-.007-14.748zm-63.18-.167l.243-.261c3.68-.013 7.363.002 11.046-.008 1.464-.007 2.9.755 3.734 1.953 1.152 1.573 1.048 3.92-.2 5.411-.848 1.043-2.18 1.692-3.53 1.654-2.845-.002-5.692.003-8.536-.004-.027 1.486.003 2.97-.014 4.454.063.817-.883 1.03-1.423 1.394-.4.174-.938.73-1.314.234-.07-.485-.04-.975-.038-1.464.076-2.35-.01-4.703.05-7.051-.011-.293.374-.316.587-.309l10.342.002c.649.024 1.34-.18 1.743-.72.651-.752.39-2.043-.471-2.521-.475-.324-1.079-.279-1.626-.287-3.452.019-6.904-.027-10.355.023-.099-.145-.245-.284-.226-.477-.034-.674-.005-1.349-.011-2.023zm31.535.135c-.051-.317.325-.447.578-.403 5.085.022 10.174-.038 15.258.03l.127.432c-.375.678-.697 1.391-1.144 2.025-.19.281-.552.264-.85.269-3.736-.016-7.474-.011-11.211-.005.006 1.172.013 2.344-.004 3.516 3.783.03 7.57-.03 11.353.03l.187.223c.053.824.061 1.66-.058 2.48-3.82.034-7.643.01-11.465.013-.015 1.168-.002 2.338-.008 3.508 3.681-.02 7.363.003 11.044-.01.372.003.851.003 1.068.368.383.598.716 1.229 1.037 1.862.137.225-.125.405-.222.582-4.527-.06-9.056-.008-13.585-.026-.701-.024-1.42.089-2.105-.11a5790.99 5790.99 0 0 1 0-14.784zm63.779 5.774c.614-3.418 3.814-6.162 7.3-6.175 2.593-.005 5.187.005 7.781-.005.256.003.564-.03.671.27.01.45-.309.807-.495 1.192-.32.47-.5 1.29-1.193 1.286-2.09.008-4.183-.007-6.274.003-1.113.002-2.228.332-3.126.995-1.525 1.088-2.354 3.098-1.917 4.938.445 2.156 2.498 3.863 4.711 3.835 1.956-.01 3.912.01 5.869-.013-.03-1.165.01-2.33-.024-3.494-1.444.017-2.89.002-4.333.01-.343-.023-.786.05-.995-.294-.435-.646-.765-1.358-1.152-2.035l.28-.419c2.207.002 4.413 0 6.62.002.773.007 1.55-.056 2.319.076.052 2.715.003 5.431.028 8.148-.033.262.071.76-.32.782-2.65.053-5.305-.004-7.957.02-2.325.053-4.67-.984-6.153-2.785-1.469-1.716-2.096-4.122-1.64-6.337zm-142.92-7.339c.44-.15.871.091 1.273.24 4.252 1.828 8.482 3.71 12.716 5.581.8.271.54 1.269.53 1.909-.022.35-.379.465-.677.44-2.448-.015-4.894.004-7.343-.012-.537.053-.903-.378-1.252-.713-1.904-1.881-3.83-3.748-5.675-5.688-.548-.512-.346-1.6.428-1.757zm29.33.16c.478-.234 1.152-.338 1.531.124.433.408.336 1.098-.062 1.492-1.84 2.003-3.843 3.85-5.757 5.78-.33.31-.714.655-1.201.614-2.388-.012-4.775-.005-7.163-.002-.257 0-.508-.062-.755-.123-.086-.595-.224-1.23-.005-1.817.115-.269.424-.37.666-.495 4.25-1.855 8.477-3.766 12.746-5.574zM6.253 170.701c.471-.413.899-1.054 1.602-1.026 2.32-.008 4.644.01 6.964-.008.317-.004.633.04.945.09.103.761.433 1.996-.536 2.313-4.252 1.865-8.486 3.772-12.76 5.59-.495.216-1.158.375-1.586-.057-.472-.445-.336-1.238.119-1.647 1.73-1.77 3.492-3.514 5.252-5.255zm11.325-1.003c2.294-.06 4.59-.003 6.888-.027.541.02 1.18-.08 1.604.343 1.81 1.75 3.594 3.532 5.367 5.32.434.495 1.157.98 1.018 1.729-.145.786-1.1.998-1.731.653-4.298-1.817-8.553-3.737-12.827-5.614-.903-.207-.829-1.27-.703-1.981.016-.209.16-.416.384-.423z"/></g><g><path fill="#93959b" d="M629.826 80.474c.417.416.625.924.625 1.522 0 .616-.208 1.134-.625 1.551a2.119 2.119 0 0 1-1.55.652 2.15 2.15 0 0 1-1.576-.652c-.435-.437-.653-.953-.653-1.55 0-.599.218-1.107.653-1.523.453-.436.978-.653 1.577-.653.597 0 1.114.217 1.549.653zm-15.893 18.305h9.733v3.427h-13.322V80.854h3.589zm87.243-4.515c0 2.465-.67 4.451-2.012 5.956-1.36 1.523-3.126 2.285-5.301 2.285-2.176 0-3.933-.762-5.276-2.285-1.322-1.505-1.984-3.49-1.984-5.956 0-2.413.662-4.37 1.984-5.876 1.343-1.523 3.1-2.285 5.276-2.285 2.175 0 3.942.762 5.301 2.285 1.342 1.506 2.012 3.463 2.012 5.876zm-3.507 0c0-1.54-.335-2.749-1.006-3.618-.67-.87-1.604-1.305-2.8-1.305-1.179 0-2.103.435-2.774 1.305-.652.852-.979 2.058-.979 3.618 0 1.577.336 2.81 1.006 3.698.653.87 1.568 1.306 2.747 1.306 1.178 0 2.102-.436 2.772-1.306.69-.888 1.034-2.121 1.034-3.698zm-71.133-7.861h3.426v15.803h-3.426zm24.242-5.55l7.694 21.353h-3.806l-1.767-5.36h-8.075l-1.74 5.36h-3.807l7.667-21.352zm1.06 12.758l-2.909-8.921h-.19l-2.882 8.92zm29.524-7.208h3.29v3.073h-3.29v8.35c0 .563.073.953.217 1.17.145.2.4.318.762.355.725.054 1.495.036 2.31-.056v3.02c-.67.127-1.368.19-2.092.19-1.614 0-2.783-.354-3.509-1.061-.724-.707-1.086-1.885-1.086-3.536v-8.432h-2.366v-3.073h2.366v-4.107h3.398zm-11.375 0h3.427v15.803h-2.937l-.163-2.42h-.19c-.38.797-.897 1.423-1.55 1.876-.816.562-1.785.843-2.91.843-1.793 0-3.163-.508-4.105-1.523-.979-1.051-1.468-2.62-1.468-4.705v-9.874h3.398v9.248c0 1.36.218 2.32.653 2.882.435.564 1.17.845 2.203.845 2.374-.02 3.588-1.352 3.642-4zM577.313 97.46l2.964 5.398h-15.105c-1.927 0-3.827-.029-5.726-.49-1.927-.43-3.539-1.207-5.093-2.36-3.164-2.332-4.948-5.44-6.79-8.778l-3.179-5.786-3.179-5.785h17.033c.2.373 4.229 7.715 4.43 8.058.634 1.18 1.296 2.19 2.36 3.051 1.381 1.124 3.568 1.326 5.668 1.326l1.426-.002c.649-.002.26-.006 2.228-.028zm-1.64-7.094l-5.898-10.795h18.328l5.899 10.795zm19.278 1.698l5.927 10.824h-18.3l-5.955-10.824z"/></g><g><path fill="#93959b" d="M431.095 82.695h3.744v16.382h-3.744V92.22h-8.331v6.858h-3.744V82.695h3.744v6.639h8.33zm34.5-.001l7.579 16.382h-4.146l-1.635-3.902h-7.733l-1.584 3.902h-3.978l7.526-16.382zm.57 9.561l-2.701-6.295-2.603 6.295zm-12.81.342a6.482 6.482 0 0 1-1.039 4.4c-1.467 1.602-3.596 2.262-6.69 2.262-3.095 0-5.25-.66-6.712-2.263-.819-.881-1.02-2.324-1.02-4.4v-9.902h3.718l.016 9.812c0 2.898.917 4.104 4.013 4.104s3.973-1.219 3.973-4.104v-9.812h3.741zm50.217-3.24h10.356v2.838h-10.392c.02 2.944 1.284 4.015 4.233 4.015h6.143v2.852h-6.317a8.419 8.419 0 0 1-5.55-1.436 7.453 7.453 0 0 1-2.723-6.457c0-5.79 2.651-8.486 8.374-8.486h6.215v2.856h-6.143c-2.696-.002-4.057 1.227-4.21 3.805zm-8.862-6.645l3.811-.017-5.501 16.382h-4.585l-3.774-12.214-3.316 12.231h-4.562l-5.924-16.382h4.019l4.126 12.593 3.469-12.593h4.411l3.986 12.593zm26.428-.017v16.383h-3.913V82.695zM382.705 101.53a.158.158 0 0 1-.043.187h.002a.179.179 0 0 1-.211.033c-2.193-1.08-11.619-5.857-15.51-9.64a7.472 7.472 0 0 1-2.588-5.098c-.316-4.236 4.146-8.455 4.146-8.455a116.149 116.149 0 0 1 14.204 22.973zm-1.5 3.425l-.013.001s.041.086-.076.192v.003c-1.522 1.097-6.192 4.343-8.252 4.856-2.97.723-5.853-1.628-7.554-4.653l15.694-.545v.002c.091 0 .172.057.202.144zm.176-1.636s.138.107.062.229l-.003-.002a.211.211 0 0 1-.162.111c-2.436.01-11.535.052-11.77.005a9.627 9.627 0 0 1-3.001-.658c-4.528-1.814-6.875-6.813-5.375-11.442 0 0 13.374 7.119 20.251 11.751zm1.105-31.536s4.625 5.983 2.369 28.491h-.003a.192.192 0 0 1-.145.195s-.086.038-.19-.065c-1.464-2.115-8.29-12.199-9.676-18.333a9.54 9.54 0 0 1-.021-4.962 7.272 7.272 0 0 1 5.137-4.83s1.843-.418 2.528-.478zm15.088 10.288c-1.379 6.108-8.162 16.135-9.669 18.308h-.001a.178.178 0 0 1-.227.083.184.184 0 0 1-.122-.171h-.003c-2.262-22.523 2.39-28.49 2.39-28.49 1.272.176 2.471.478 2.471.478a7.278 7.278 0 0 1 5.187 4.83c.395 1.631.386 3.335-.026 4.962zm7.903 10.054c-3.874 3.761-13.23 8.506-15.477 9.625a.203.203 0 0 1-.214-.016h.017a.217.217 0 0 1-.043-.251h-.004c3.82-8.16 8.579-15.85 14.18-22.912 0 0 4.41 4.052 4.127 8.432a7.534 7.534 0 0 1-2.586 5.122zm5.81-.6a9.438 9.438 0 0 1-.351 6.66 9.191 9.191 0 0 1-5.052 4.817 9.436 9.436 0 0 1-2.702.62l-12.051.03v-.002c-.096 0-.162-.118-.162-.118a.213.213 0 0 1 .078-.228c6.9-4.64 20.24-11.777 20.24-11.777zm-19.893 13.292l15.712.549c-3.522 6.033-7.58 4.656-7.58 4.656-2.2-.598-6.754-3.79-8.251-4.865a.226.226 0 0 1-.061-.214c.024-.1.177-.118.177-.118z"/></g><g><path fill="#93959b" d="M216.075 77.144c.1.017.19.093.277.136-.227 1.323-.601 1.592-1.79 1.217-3.771-1.191-7.68-1.48-11.584-1.731-6.326-.408-12.615-.122-18.793 1.42-1.327.332-2.58.81-3.522-.662v-.163c8.401-2.546 17.017-2.474 25.63-1.885 3.284.225 6.523 1.09 9.782 1.668zm124.677 6.423v.326c-.468.621-.83 1.39-1.433 1.821-.625.444-1.48.765-2.242.785-3.29.084-6.584.032-9.876.038-1.578.002-2.653-.84-3.481-2.076-.135-.201-.15-.482-.22-.727.229-.054.457-.158.685-.159 2.721-.008 5.442.003 8.163.003 2.801 0 5.603-.007 8.404-.011zm-127.154-3.86c.33.084.635.267 1.026.436-1.103 1.338-2.518 2.003-3.988 2.566-.114.043-.426-.182-.509-.35-.449-.915-1.203-1.395-2.16-1.562-.882-.154-1.777-.236-2.666-.35-.763-.097-1.168.258-1.317.995-.413 2.05-.839 4.097-1.264 6.144-1.3 6.25-2.602 12.499-3.905 18.75a.803.803 0 0 1-.298.497c-.451-2.22-.909-4.438-1.352-6.659-1.224-6.127-2.439-12.255-3.665-18.383-.266-1.326-.382-1.432-1.746-1.3-.915.086-1.825.267-2.726.458-.712.15-1.275.504-1.639 1.212-.13.253-.72.519-.966.425-1.371-.517-2.652-1.213-3.68-2.456 1.77-.755 3.545-1.115 5.348-1.283 2.328-.217 4.665-.328 6.997-.494 1.224-.088 2.155.36 2.835 1.4.611.934.944.94 1.519.018.61-.98 1.5-1.425 2.597-1.402 3.894.084 7.77.347 11.56 1.337zm77.197 11.167c-.007 2.342-.02 4.683-.001 7.022.004.572-.155.855-.778.853-5.172-.014-10.344-.01-15.516-.014-.05 0-.1-.027-.15-.042.344-1.752 1.884-3.017 3.806-3.038 2.777-.028 5.553-.003 8.33-.001 1.274 0 1.362-.087 1.356-1.329-.001-.218-.017-.438-.011-.655.02-.785-.362-1.136-1.145-1.133-1.742.006-3.484-.017-5.226-.016-2.015.002-4.029.022-6.043.026-1.072.003-1.275-.213-1.274-1.296l-.001-6.45c-.001-1.095.136-1.25 1.195-1.252 4.764-.004 9.527-.006 14.291.009.301 0 .602.15.903.23-.12.292-.192.614-.365.869-.854 1.259-2.017 1.906-3.581 1.88-2.721-.045-5.444-.025-8.166-.03-1.222-.003-1.352.14-1.267 1.374.113 1.639.113 1.642 1.785 1.636 3.485-.007 6.969-.02 10.453-.028 1.302-.002 1.408.115 1.404 1.385zm-69.076-7.292h19.01c-.232 1.472-1.769 2.814-3.382 2.931-1.082.08-2.174.057-3.26.032-1.08-.026-1.322.166-1.321 1.226.002 3.265.008 6.532.014 9.798.002 1.04-.14 1.184-1.166 1.185l-.245-.003c-1.467-.024-1.629-.165-1.636-1.66-.013-2.721.003-5.442.007-8.164 0-.326.01-.653.008-.978-.008-1.282-.211-1.437-1.496-1.396-1.086.036-2.178.03-3.262-.04-1.445-.096-2.838-1.345-3.271-2.93zm118.767 14.073c.01.748-.296 1.05-1.006 1.025-.027-.001-.054.002-.081.002-1.697.065-1.884-.11-1.89-1.805-.005-1.145-.02-2.287.017-3.43.02-.64-.16-.936-.867-.93-2.993.03-5.987.02-8.981.004-.6-.002-.827.232-.818.822.022 1.441-.015 2.885.024 4.327.02.7-.26 1.014-.941 1.006-.109 0-.218.006-.327.006-1.538.002-1.683-.137-1.688-1.666-.006-2.178.012-4.355-.019-6.531-.01-.765.262-1.077 1.047-1.068 2.423.03 4.845.01 7.267.01v.014c2.395 0 4.79.02 7.185-.01.767-.01 1.084.262 1.076 1.04-.025 2.395-.03 4.79.002 7.184zm-26.395-2.01c.327.002.654.157.981.24-.11.322-.167.678-.341.96-.72 1.176-1.744 1.79-3.171 1.777-3.725-.036-7.45-.022-11.175-.031-1.086-.003-1.2-.135-1.197-1.228.007-2.093.002-4.185.002-6.278h.02c0-2.149-.005-4.296.001-6.444.003-.968.133-1.087 1.082-1.092 1.772-.009 1.871.082 1.867 1.896-.005 2.963-.026 5.926-.038 8.888-.005 1.208.102 1.32 1.283 1.32 3.562-.004 7.124-.02 10.686-.008zm-65.59-5.284c-.435-.708-.334-.907.493-.91 2.61-.01 5.218-.003 7.827-.003 2.582 0 5.163-.008 7.745.01.3.003.6.152.9.232-.102.294-.144.629-.314.875-.906 1.32-2.13 2.018-3.78 1.995a351.532 351.532 0 0 0-9.05-.012c-1.735.022-2.949-.762-3.822-2.187zm-.218-6.781h1.12c5.134-.004 10.268-.01 15.403-.005.216.001.548.06.618.2.082.161 0 .48-.12.66-.906 1.366-2.108 2.23-3.832 2.217-3.124-.021-6.249-.005-9.373-.028-1.855-.017-3.29-1.134-3.816-3.044zm17.193 12.288c.076.166-.021.476-.144.656-.922 1.357-2.141 2.216-3.853 2.211-3.1-.01-6.198-.003-9.297-.024-1.954-.015-3.58-1.294-3.848-3.057h.958c5.192-.007 10.384-.018 15.576-.015.213 0 .544.086.608.229z"/></g><g><path fill="#93959b" d="M25.735 70.707c5.235.087 10.493.593 15.272 3.22 2.372 1.439 5.289 4.365 6.184 8.873.895 4.508.481 8.895-.401 13.409-.883 4.511-2.651 9.561-7.549 12.163-4.898 2.602-8.183 2.91-14.895 2.89-6.713.02-9.998-.288-14.895-2.89-4.898-2.601-6.666-7.652-7.549-12.163-.883-4.514-1.296-8.901-.401-13.41.895-4.507 3.811-7.433 6.183-8.871 3.679-2.206 10.013-3.12 15.272-3.22.883-.011 1.826.005 2.78 0zm-6.849 1.213c-1.942.186-6.802.563-10.439 2.73-3.637 2.169-5.263 4.927-5.942 8.271-.68 3.344-.62 7.573.32 12.926.942 5.352 3.576 9.807 7.148 11.681 3.572 1.876 8.107 2.87 14.373 2.773 6.265.096 10.8-.897 14.373-2.773 3.572-1.874 6.206-6.329 7.147-11.681.941-5.353 1-9.582.32-12.926-.678-3.344-2.304-6.102-5.941-8.27-3.638-2.168-8.497-2.545-10.44-2.73-3.581-.325-7.291-.3-10.919 0zm6.665.932c2.981.037 6.173.402 8.357.871 2.496.537 3.35.725 5.502 2.013 2.153 1.286 4.8 3.91 5.613 7.946.812 4.036.436 7.969-.365 12.01-.801 4.041-2.405 8.564-6.85 10.894-7.203 3.695-19.536 3.848-26.924 0-4.445-2.33-6.05-6.853-6.85-10.895-.801-4.04-1.177-7.973-.365-12.009.812-4.037 3.46-6.66 5.612-7.946 2.153-1.288 3.006-1.476 5.503-2.013 2.184-.47 5.376-.834 8.357-.87.766-.011 1.583.004 2.41 0zm-5.864 1.94c-.811.076-2.212.192-3.796.497-.234.048-.366.125-.315.347 2.568 6.228 5.313 12.458 8.176 18.686.391.699.875.667 1.257-.153 2.838-6.177 5.56-12.355 8.106-18.533.052-.222-.08-.299-.314-.347-1.584-.305-2.985-.421-3.796-.497-3.046-.271-6.223-.255-9.318 0zm-6.526 1.203c-.86.292-1.708.656-2.492 1.116-3.142 1.841-4.546 4.183-5.133 7.022-.586 2.84-.535 6.43.278 10.977.813 4.544 3.088 8.327 6.174 9.92 2.587 1.335 5.762 2.14 9.908 2.32.419-.005.804.024.567-.428l-6.955-12.805c-1.451-2.675-1.987-4.215-1.987-7.495V76.228l-.003.007c.006-.18-.043-.277-.188-.274a.635.635 0 0 0-.169.034zm22.012.24l-.002-.007v10.394c0 3.28-.536 4.82-1.987 7.495l-6.955 12.805c-.237.452.148.423.566.428 4.147-.18 7.322-.985 9.91-2.32 3.085-1.593 5.36-5.376 6.173-9.92.813-4.547.864-8.138.277-10.977-.586-2.84-1.99-5.18-5.133-7.022a13.495 13.495 0 0 0-2.491-1.116.634.634 0 0 0-.17-.034c-.144-.003-.193.093-.188.274zm61.861-2.42v1.69h7.62c.974.02 1.86.555 1.85 1.714l.018 2.644-3.29.03v-2.134c-.007-.29-.398-.33-.568-.328H88.11c-.392-.03-.628.064-.625.36v2.132l-3.289-.03v-4.477h9.25v-1.601zm26.113.162l-1.3 1.835 11.545.076v1.732h-12.768l-1.173 2.142h-3.007l3.109-5.81zm25.379-.008l-1.346 2.022 13.176.018v1.767l-14.578.023-2.956 4.28c-.242.355-.122.73.637.689l4.715.052-.01-3.277h3.308l.04 3.303 7.937.006v1.63l-7.955.023-.023 3.013h9.248v1.904l-9.225.024-.023 4.418h-3.307l-.024-4.418-10.9-.024v-1.904h10.924l-.024-3.013-8.427-.03c-1.237-.02-1.305-1.166-.867-1.885l3.033-4.51c.098-.16-.027-.31-.28-.308l-4.088.003v-1.767l5.872-.017 1.376-2.04zm-85.143.232v7.559h16.751v1.898H70.32c2.254 4.687 6.01 6.215 9.725 7.826l.085 2.288c-8.157-2.013-10.367-6.204-13.101-10.204h-3.617v7.708c-.03.504.365.762.593.593h3.588v1.88h-6.031c-.773-.18-1.312-.566-1.376-1.376v-8.752h-3.535v-1.903l3.535-.056v-7.466zm52.602 4.185h-2.931c-1.266-2.113-1.989-2.945-2.88-3.951l3.44-.026c1.033 1.374 1.66 2.666 2.37 3.977zm-36.948-3.711c-2.731 1.601-5.437 2.922-8.242 5.337l-3.41-.03c1.519-1.538 4.062-3.416 6.997-5.426zm16.623 4.602c-.014.107-.023.2-.102.306l-1.606 1.95c-.113.215.085.202.191.26h12.89v1.843h-3.55c-.91 2.118-2.045 4.13-4.268 5.642-.134.156-.142.3.064.422a80.027 80.027 0 0 0 7.754 1.885v2.23c-3.83-.549-7.101-1.636-10.443-2.639-.353-.165-.382-.063-.459 0-3.144 1.536-7.721 2.195-12.546 2.69v-2.281c3.99-.212 6.614-.792 8.991-1.44.418-.204.184-.303-.026-.409l-5.046-2.332c-.468-.413-.45-.802-.242-1.184l1.287-2.025c.17-.22.333-.437.204-.559h-5.168v-1.842h6.62l1.72-2.517zm36.774.13v1.676h-11.966v-1.675zm-16.78 4.15c.234.617.542.858.255 2.422-.627 2.59-1.33 5.181-2.294 7.772l-3.059-.025c.93-2.33 1.798-4.74 2.524-7.34.24-.639.243-1.239.076-1.808-.935-1.877-1.869-3.038-2.803-4.256l3.287-.05c.775.957 1.443 2.056 2.014 3.286zm14.603-.687c1 .09 1.512.884 1.53 1.503v4.715c0 .865.687 2.324 2.052 2.656l-.045 2.075c-2.496-.065-5.034-2.028-5.092-4.093l-.025-4.436c-.035-.364-.132-.675-.637-.636l-9.974-.035v-1.767zm-39.68 3.037c-.207.282-.273.564.235.846a56.12 56.12 0 0 0 5.226 1.947c2.281-1.505 3.707-3.174 4.163-5.064h-7.912zM68.051 97.444v2.074H63.7c-1.057 0-3.708.255-3.635 3.192 0 2.823 2.463 3.19 3.476 3.19l4.51-.027v2.066H63.05c-2.625 0-6.203-1.037-6.277-5.248 0-4.2 2.745-5.263 6.04-5.263zm62.027 0v2.074h-6.628c-.911 0-2.966.152-2.966 3.13 0 2.87 2.149 3.252 2.807 3.252l3.715-.021c.198.01.252-.103.252-.253v-1.637c.034 0-.029-.279-.279-.279h-2.134v-1.938l4.998.012c.13 0 .211.085.211.21v5.64c0 .19-.133.305-.29.305h-6.577c-2.541 0-5.997-.728-5.997-5.248 0-4.755 4.394-5.247 6.042-5.263zm-36.539 0c.79 0 1.2.068 1.614.931l4.19 9.564h-3.288l-3.535-8.093c-.104-.272-.456-.304-.566-.039l-3.412 8.132-2.577-.022 4.46-10.473zm11.357.629l6.04 5.203c.403.405.838.388.838-.182l.007-5.65h2.458l-.025 10.056c0 .284-.165.44-.354.44h-1.343c-.82 0-1.293-.365-1.587-.643l-6.064-5.312c-.42-.317-.526-.157-.61-.173v6.13l-2.433-.023-.02-10.475h1.379c1.05 0 1.379.33 1.714.629zm35.334-.629c.79 0 1.198.068 1.613.931l4.192 9.564h-3.29l-3.534-8.093c-.105-.272-.457-.304-.566-.039l-3.413 8.132-2.576-.022 4.459-10.473zm11.27.629l6.04 5.203c.404.405.839.388.839-.182l.007-5.65h2.458l-.025 10.056c0 .284-.165.44-.354.44h-1.343c-.82 0-1.293-.365-1.586-.643l-6.064-5.312c-.42-.317-.527-.157-.61-.173v6.13l-2.433-.023-.021-10.475h1.38c1.049 0 1.378.33 1.713.629zm-77.18-.629v3.938h6.134v-3.938h3.068v10.495h-3.068v-4.369H74.32v4.37h-2.942V97.443z"/></g><g><path fill="#93959b" d="M572.006 17.86c.056 1.488.03 2.98.018 4.47-.007.911-.927 1.945-1.877 2.152-.141.032-.278.08-.418.12H541v-5.88c.239-.085.477-.242.716-.245 2.233-.018 4.466.012 6.699-.026.62-.01.767.26.759.781-.009.554-.002 1.107-.002 1.66v2.174c4.703 0 9.315.01 13.927-.01.943-.002 1.613-.732 1.644-1.686.023-.722-.009-1.447.02-2.17.071-1.715-.749-2.058-1.835-2.433-.45-.155-.953-.203-1.433-.208-2.105-.023-4.21-.033-6.315.005-.579.01-1.179.129-1.727.318-1.517.526-3.002 1.082-4.667.964-1.311-.094-2.635-.019-3.954-.019h-3.61l-.222-.639v-.256c.357-1.406.357-1.406 1.86-1.406 8.657 0 17.315.01 25.972-.01 1.072-.002 1.963.395 2.703 1.076.299.276.454.832.471 1.267zm128.98 6.613h-1.802c-1.617 0-3.233-.013-4.849.007-.556.008-.787-.17-.763-.766.044-1.062.043-2.128.002-3.192a14.538 14.538 0 0 0-.251-2.18c-.2-1.036-.87-1.536-1.948-1.537-3.743-.001-7.487.057-11.228-.027-1.644-.038-2.329.979-2.382 2.407-.058 1.529-.013 3.064-.013 4.596v.658h-7.57c-.018-.019-.07-.05-.07-.082-.008-2.149-.118-4.307.017-6.447.1-1.569.24-1.884 2.004-2.511h26.431c.2.062.404.113.6.187 1.066.403 1.776 1.152 1.806 2.307.057 2.166.016 4.335.016 6.58zm-97-1.021l.09 1.15H573.56c-.485-.644-.212-1.379-.202-2.07.001-.123.432-.344.663-.343 2.972.02 5.948-.01 8.914.154 1.246.07 2.464.586 3.704.858.592.13 1.205.238 1.81.24 4.93.018 9.86.01 14.79.01h.747zm32.276-7.35a543.98 543.98 0 0 0-.001 7.473c.003.589-.256.78-.81.777-1.935-.015-3.878.093-5.803-.047-1.004-.072-1.994-.52-2.96-.878-2.696-1-5.376-2.044-8.064-3.068a1444.01 1444.01 0 0 0-4.92-1.861c-.195-.074-.403-.112-.69-.188 0 1.85-.02 3.594.012 5.338.01.62-.157.857-.821.842-1.871-.045-3.744-.015-5.616-.018-.802 0-.851-.047-.852-.814v-7.22c0-.816.099-.922.93-.909 2.083.03 4.177-.046 6.243.158 1.141.114 2.25.672 3.349 1.09 2.057.784 4.093 1.624 6.147 2.42 2.112.816 4.235 1.61 6.354 2.413.136.05.278.086.465.143V15.58c.157-.02.277-.05.396-.05 2.021-.004 4.042.009 6.063-.014.45-.003.581.14.578.586zm31.55 6.199h.715v2.127h-30.02l20.255-7.562-.032-.19h-.588c-1.638 0-3.277.037-4.914-.011a7.995 7.995 0 0 0-3.642.76c-.872.405-1.77.534-2.711.533-2.766-.007-5.532-.017-8.298.01-.535.004-.682-.155-.676-.684.021-1.757.001-1.758 1.785-1.758h27.825l.027.095c-6.518 2.61-13.036 5.22-19.554 7.832l.022.126c1.197 0 2.397-.06 3.59.013 2.346.137 4.587-.32 6.814-.99a7.387 7.387 0 0 1 1.998-.288c2.467-.034 4.936-.013 7.404-.013zm-64.566-6.775h.846l-.127 1.15h-.701c-4.572 0-9.144.04-13.714-.017-2.008-.025-3.89.565-5.827.895-.855.147-1.712.363-2.572.383-2.337.053-4.677.02-7.016.017-.756 0-.828-.08-.83-.847-.006-1.581-.006-1.581 1.556-1.581h28.385zm-29.92 4.111c.046-.112.206-.206.333-.244.158-.045.336-.03.505-.03 7.424-.003 14.848-.003 22.272-.003h.587v1.535h-.608l-22.272-.001c-.763 0-1.121-.538-.818-1.257zm119.478-.4c.061 0 .123.016.244.036v1.622H679.467c-1.296.001-1.056.02-1.077-1.109-.002-.107 0-.213 0-.391.26-.055.516-.155.772-.155 4.547-.009 9.095-.004 13.642-.003z"/></g><g><path fill="#93959b" d="M385.038 1.813v37.155c0 .914-.131 1.064-1.019 1.182-1.973.262-3.945.264-5.913-.044-.585-.09-.762-.301-.778-.888-.002-.085 0-.169 0-.252V1.77c0-.14-.006-.28.008-.42.037-.395.246-.64.647-.704a20.469 20.469 0 0 1 6.409.001c.398.064.616.299.64.705.008.153.006.307.006.46zm-13.234 26.674c.403.49.397.784-.054 1.233-1.125 1.12-2.257 2.234-3.387 3.35-.277.275-.551.553-.834.822-.44.42-.8.414-1.217-.04-1.925-2.088-3.408-4.456-4.25-7.172-2.267-7.32-.848-13.889 4.156-19.683.18-.21.438-.353.684-.546.258.164.48.258.641.416a821.606 821.606 0 0 1 4.193 4.143c.465.462.481.765.049 1.261-1.39 1.6-2.348 3.422-2.77 5.499-.762 3.737.02 7.134 2.335 10.17.144.188.304.363.454.547zm29.527-8.803c.009.237 0 .474 0 .71-.043 5.122-1.776 9.592-5.208 13.395-.488.543-.838.548-1.367.024a2418.18 2418.18 0 0 1-4.068-4.03c-.528-.526-.547-.796-.065-1.356 1.7-1.969 2.71-4.246 2.96-6.832.24-2.486-.193-4.868-1.431-7.056-.444-.783-1-1.505-1.541-2.23-.438-.585-.45-.83.084-1.36 1.355-1.343 2.712-2.687 4.07-4.027.528-.522.872-.514 1.365.033 3.252 3.622 5.014 7.853 5.2 12.729zm78.92-2.48c.392 2.376-1.33 4.354-3.814 4.36-3.999.009-7.998.003-11.998.003-.111 0-.223-.003-.334 0-.537.01-.722.188-.726.739-.007 1.101-.002 2.204-.003 3.306 0 .83-.088.92-.905.92h-.962c-.641-.002-.8-.167-.801-.826l-.004-3.556c0-.502.003-1.003.004-1.505.002-1.173.569-1.736 1.752-1.736 4.599-.002 9.198 0 13.796-.002.153 0 .308.008.46-.009.509-.053.9-.467.926-.97a1.004 1.004 0 0 0-.79-1.04 2.965 2.965 0 0 0-.622-.051c-4.85-.003-9.7-.003-14.549-.003-.864 0-.975-.113-.977-.994 0-.28 0-.559.002-.838.001-.623.17-.8.79-.8 2.563-.002 5.127-.001 7.691-.001 2.467.001 4.934-.013 7.4.005 1.824.011 3.385 1.308 3.664 2.998zM438.45 24.12c0 .6.006 1.2-.008 1.798-.01.433-.188.601-.62.61-.432.01-.864.006-1.296.003-.57-.003-.74-.172-.743-.756-.006-1.116-.001-2.233-.003-3.348 0-.737-.122-.861-.845-.861h-12.543c-.739 0-.863.13-.862.887 0 1.088.003 2.177-.002 3.265-.002.658-.16.812-.813.813-.376.001-.752.004-1.128 0-.55-.005-.727-.177-.728-.723-.004-1.425-.001-2.848-.001-4.27v-6.487c0-.698.154-.849.865-.851.362-.001.725-.006 1.087.001.522.01.71.186.714.707.008 1.06 0 2.12.003 3.18.001.654.164.818.812.818 2.105.002 4.21 0 6.314.002 2.104 0 4.209 0 6.313-.002.666 0 .812-.144.814-.81.003-1.033-.002-2.065.002-3.097.003-.63.169-.793.794-.798.377-.004.753-.006 1.13 0 .578.007.739.165.74.755.004 3.055.003 6.108.004 9.164zm70.141-3.467c.001 1.7.002 3.401 0 5.103 0 .608-.163.772-.762.775-.404.003-.808.004-1.212-.001-.511-.007-.696-.193-.698-.715-.004-1.143 0-2.287-.002-3.43-.001-.665-.151-.818-.804-.818H492.45c-.635 0-.79.153-.792.794-.004 1.101 0 2.202-.002 3.305-.001.747-.122.864-.884.865-.348.001-.696.004-1.044 0-.57-.008-.737-.18-.738-.761-.003-1.618-.004-3.235-.004-4.851 0-1.964.003-3.928.002-5.894 0-.67.143-.822.8-.824.348-.002.696-.002 1.044-.001.686.002.822.141.824.843.002 1.004-.001 2.007.001 3.013.002.714.14.85.862.85 2.396.002 4.791.002 7.187.002 2.382 0 4.764-.002 7.146 0 1.176 0 1.738.564 1.738 1.745zm-57.675 2.092c0 1.016.004 2.033-.001 3.05-.003.586-.157.733-.75.736-.404.003-.807.004-1.21-.001-.515-.005-.705-.187-.707-.706-.007-1.518-.004-3.035-.005-4.551 0-.545-.007-1.088.003-1.629.009-.538.205-.728.738-.736.376-.005.751-.003 1.127 0 .623.002.802.174.804.787.005 1.016.001 2.032.001 3.05zm70.134-3.157c.004 2.09.005 4.178 0 6.268-.001.495-.188.667-.69.674a47.47 47.47 0 0 1-1.293 0c-.488-.007-.68-.192-.683-.687-.007-1.044-.002-2.09-.002-3.134 0-1.002-.003-2.006 0-3.008.002-.613.183-.79.802-.793.403-.003.807-.01 1.21.002.458.013.655.214.656.678zm-2.807-4.043c-.022-.787.64-1.471 1.442-1.492.815-.02 1.515.654 1.518 1.46.003.799-.656 1.457-1.466 1.466a1.473 1.473 0 0 1-1.494-1.434zm-67.18-.036a1.468 1.468 0 0 1-1.456 1.471 1.456 1.456 0 0 1-1.489-1.473 1.464 1.464 0 0 1 1.471-1.454c.81.006 1.472.659 1.474 1.456z"/></g><g><path fill="#93959b" d="M333.906 21.755c1.638 1.633 2.957 2.916 4.24 4.235.845.87 1.637 1.79 2.452 2.69h-2.946c-1.073-.783-2.212-1.488-3.201-2.364-1.283-1.135-2.479-2.377-3.648-3.633-.602-.65-1.225-.916-2.125-.903-3.92.051-7.84.022-11.761.022h-1.374c0 1.923.034 3.678-.022 5.431-.016.486-.298.963-.459 1.447h-1.964c-.155-.488-.434-.972-.445-1.462-.048-2.253.034-4.508-.043-6.759-.041-1.215.443-1.561 1.584-1.555 6.95.032 13.9.015 20.85.015.369 0 .737.001 1.104-.005 1-.018 1.682-.48 1.726-1.514.045-1.055-.67-1.515-1.623-1.642-.403-.053-.816-.038-1.224-.038-5.683-.002-11.367-.064-17.048.03-2.259.035-3.739-1.024-5.152-2.87h1.476c6.95 0 13.9-.003 20.85 0 3.36 0 4.418.697 5.69 3.744v1.475c-.988 3.308-3.533 4.017-6.937 3.656zM212.64 27.743c.284.285.514.622.77.937h-2.947c-1.022-.717-2.158-1.316-3.046-2.173-2.918-2.813-5.746-5.72-8.608-8.59-1.557-1.563-1.739-1.563-3.334.037-2.777 2.782-5.518 5.602-8.346 8.331-.949.916-2.116 1.603-3.184 2.395H181c.225-.324.41-.688.682-.962a8327.56 8327.56 0 0 1 13.705-13.754c1.488-1.49 2.041-1.486 3.549.025 4.571 4.583 9.14 9.164 13.705 13.754zm64.66-.024c.273.275.46.637.686.96h-2.947c-1.067-.791-2.235-1.478-3.183-2.394-2.828-2.729-5.57-5.548-8.346-8.33-1.595-1.6-1.777-1.6-3.335-.038-2.862 2.87-5.69 5.777-8.607 8.59-.888.857-2.024 1.456-3.047 2.173h-2.946c.254-.316.484-.653.767-.94a11940.5 11940.5 0 0 1 13.795-13.836c1.394-1.394 2-1.401 3.372-.026 4.602 4.608 9.201 9.22 13.791 13.841zm-31.574-14.748c-.407.437-.694.763-1 1.07-4.451 4.468-8.901 8.937-13.364 13.391-.458.458-.999.833-1.501 1.248h-.737c-.38-.306-.793-.58-1.136-.922-4.72-4.72-9.43-9.45-14.141-14.18-.142-.14-.265-.3-.508-.58 2.067-.286 3.838-.194 5.352 1.364 3.082 3.172 6.234 6.275 9.359 9.405 1.325 1.327 1.589 1.332 2.883.035 3.066-3.073 6.182-6.097 9.173-9.241 1.571-1.652 3.394-1.858 5.62-1.59zm46.535 7.178c-.067 2.41.004 4.823-.043 7.233-.009.435-.314.865-.482 1.298h-1.965c-.137-.457-.385-.91-.393-1.368-.04-2.37.012-4.742-.032-7.111-.02-1.062.382-1.435 1.445-1.42 1 .013 1.501.231 1.47 1.368zm13.886-4.43h-6.658l-18.283-.001c-2.976 0-3.582-.285-5.666-2.743.429-.038.764-.092 1.1-.092 8.18-.006 16.36.036 24.54-.032 2.182-.016 3.553 1.083 4.967 2.868z"/></g><g><path fill="#93959b" d="M21.467 13.384c-2.916 5.688-5.75 11.417-8.625 17.128-.172.34-.451.627-.68.937-.245-.322-.546-.616-.725-.972C8.51 24.672 5.609 18.851 2.67 13.05c-.415-.819-.587-1.598-.314-2.484.222-.72.385-1.459.575-2.188l.236.017c.136.243.281.481.409.73 1.152 2.252 2.52 4.346 4.503 5.964 2.725 2.226 5.442 2.216 8.158-.022 1.976-1.627 3.339-3.723 4.496-5.972.125-.242.278-.473.418-.708l.207.007c.155.561.29 1.13.47 1.684.379 1.162.209 2.193-.361 3.306zm116.83 5.428c.04 1.35.041 2.708-.017 4.057-.097 2.27-1.31 3.562-3.579 3.794-1.1.113-2.214.122-3.321.117-2.152-.009-4.308.018-6.452-.117-2.391-.152-3.652-1.546-3.721-3.936-.04-1.35-.043-2.705.001-4.056.074-2.278 1.32-3.675 3.594-3.849 1.654-.126 3.324-.025 4.987-.025v-.02c1.575 0 3.157-.098 4.723.02 2.498.19 3.712 1.525 3.785 4.015zm-2.795-.336c-.037-.97-.538-1.514-1.505-1.53a208.494 208.494 0 0 0-8.448-.001c-1.09.023-1.554.65-1.563 1.758-.01 1.242-.002 2.486-.002 3.729 0 1.574.431 2.079 2.023 2.162 1.24.065 2.486.013 3.73.013v-.06c1.42 0 2.842.06 4.257-.02 1.007-.059 1.474-.559 1.508-1.528a61.897 61.897 0 0 0 0-4.523zm-63.12-.991c.04.708.032 1.421.01 2.13-.024.77-.422 1.339-1.118 1.786.914.647 1.035 1.562 1 2.55-.03.864-.006 1.73-.006 2.647h-2.7v-2.562c-.002-1.377-.29-1.667-1.692-1.67-1.822-.004-3.645-.002-5.467-.002h-.763v-2.142c.286 0 .543.002.8 0 1.932-.02 3.865-.005 5.796-.07 1.24-.043 1.955-1.608 1.217-2.624-.16-.22-.5-.363-.785-.43-.406-.098-.836-.123-1.256-.125-2.356-.01-4.712.013-7.067-.018-.57-.008-.703.18-.698.718.024 2.731.011 5.463.011 8.194v.75H56.95V14.82h.685c3.422 0 6.845-.025 10.267.015.9.012 1.82.14 2.692.366 1.163.3 1.722 1.08 1.789 2.283zm20.03 4.609h2.757c-.065.822-.06 1.621-.205 2.392-.216 1.158-1.05 1.78-2.142 2.023-.71.156-1.45.253-2.175.254-2.752 0-5.508.035-8.255-.104-2.389-.12-3.643-1.533-3.721-3.936a59.015 59.015 0 0 1 .002-4.06c.084-2.284 1.327-3.73 3.606-3.833 3.1-.139 6.211-.063 9.317-.031.536.007 1.093.207 1.598.417 1.06.44 1.61 1.291 1.693 2.427.035.483.006.97.006 1.513h-2.59c0-.325.013-.631-.002-.933-.04-.855-.351-1.228-1.21-1.288a47.02 47.02 0 0 0-3.258-.1c-1.554 0-3.109 0-4.659.084-1.255.067-1.722.638-1.725 1.89-.003 1.332-.008 2.665.002 3.996.008 1.047.433 1.583 1.468 1.719.766.1 1.549.1 2.324.103 1.799.006 3.598-.01 5.396-.03.309-.004.622-.046.924-.113.536-.12.86-.438.85-1.025-.005-.44 0-.878 0-1.365zm68.446 4.583c-1.315 0-2.426.023-3.534-.018-.249-.01-.527-.197-.727-.376-1.621-1.449-3.227-2.916-4.897-4.432l-2.663 2.498c-.582.546-1.193 1.068-1.734 1.654-.472.51-.977.743-1.687.69-.858-.064-1.725-.016-2.796-.016l6.738-6.255-6.166-5.621c1.352 0 2.518-.012 3.683.014.168.004.35.173.493.301 1.255 1.129 2.502 2.265 3.753 3.397.16.147.331.281.534.453 1.333-1.248 2.654-2.465 3.947-3.707.344-.33.683-.498 1.172-.477.945.038 1.893.01 3.053.01-2.101 1.95-4.055 3.765-6.064 5.627l6.895 6.258zM51.48 26.013c.121.173.226.36.4.636-1.053 0-2 .018-2.944-.017-.17-.007-.374-.201-.493-.361a31.155 31.155 0 0 1-1.258-1.8c-.217-.34-.473-.456-.873-.452-1.778.021-3.555.01-5.333.008-.212-.002-.424-.019-.747-.034.446-.641.815-1.216 1.237-1.746.108-.137.386-.19.587-.192 1.085-.019 2.171-.01 3.425-.01-1.096-1.591-2.115-3.073-3.178-4.619-.333.47-.628.881-.916 1.298-1.72 2.48-3.446 4.958-5.153 7.45-.237.345-.481.509-.918.488-.82-.04-1.643-.012-2.581-.012.126-.225.203-.392.306-.54 2.526-3.626 5.049-7.252 7.598-10.86.156-.22.511-.355.799-.418 1.642-.363 2.626.368 3.526 1.761 2.07 3.206 4.333 6.287 6.516 9.42zm50.163-11.138h13.663v2.077h-10.88v2.717h10.497v2.125h-10.516v4.813h-2.764V14.875zM1.316 17.191l6.329 8.563c-.05.047-.101.096-.152.142-.138-.055-.288-.09-.413-.166-1.798-1.093-3.588-2.197-5.39-3.286-.675-.408-.995-.958-.913-1.761.115-1.137.191-2.277.284-3.416.085-.026.17-.052.255-.076zm21.917.07c.1 1.275.254 2.55.27 3.826.005.373-.285.895-.601 1.101-1.916 1.246-3.877 2.422-5.828 3.613-.097.06-.238.048-.538.098l6.433-8.704.264.066z"/></g></g></g></svg>