<svg xmlns="http://www.w3.org/2000/svg" width="39" height="38" viewBox="0 0 39 38"><g><g><path fill="#fd3a3e" d="M38.873 7.564v19.69c-.021.058-.054.115-.063.175-.58 3.949-3.682 6.637-7.669 6.641-2.309.002-4.618.007-6.927-.007-.317-.002-.468.078-.615.38-.84 1.72-2.238 2.657-4.155 2.641-1.9-.015-3.279-.964-4.097-2.675-.138-.287-.283-.344-.561-.343-2.385.008-4.77.016-7.155.002a7.573 7.573 0 0 1-7.28-5.6c-.109-.399-.177-.809-.263-1.214V7.564c.023-.071.056-.141.066-.213C.68 3.554 3.822.759 7.632.752c7.9-.014 15.799-.013 23.699 0 3.423.005 6.378 2.296 7.279 5.6.108.398.176.807.263 1.212zm-3.03.934c0-2.754-1.97-4.72-4.724-4.72-3.876-.002-7.751-.001-11.626-.001H7.829c-2.732.001-4.71 1.972-4.71 4.697-.002 5.956-.002 11.912 0 17.87 0 2.723 1.978 4.695 4.71 4.697 2.827.002 5.655-.001 8.482 0 1.004.001 1.593.563 1.656 1.57.051.827.695 1.452 1.5 1.458a1.52 1.52 0 0 0 1.526-1.433c.076-1.064.643-1.594 1.708-1.595 2.815 0 5.63.002 8.445 0 2.724-.002 4.696-1.98 4.697-4.71V8.497zm-14.847 7.323v1.627c0 2.99.003 5.98-.002 8.97-.002 1.115-.985 1.851-1.998 1.512a1.52 1.52 0 0 1-1.026-1.327c-.006-.088-.004-.177-.004-.264 0-5.955.002-11.909-.004-17.863 0-.68.243-1.21.864-1.515 1.018-.5 2.162.237 2.166 1.404.01 2.485.003 4.97.004 7.456zm12.12-4.481a4.56 4.56 0 0 1-4.545 4.554c-2.5 0-4.548-2.052-4.545-4.553.003-2.498 2.06-4.541 4.563-4.534 2.483.006 4.523 2.049 4.527 4.533zm-3.032.004a1.519 1.519 0 0 0-1.52-1.507 1.518 1.518 0 0 0-1.507 1.519 1.52 1.52 0 0 0 1.519 1.508 1.52 1.52 0 0 0 1.508-1.52zm-15.149 12.14c-.006 2.482-2.05 4.523-4.533 4.527-2.502.005-4.556-2.043-4.557-4.541 0-2.5 2.05-4.549 4.552-4.546 2.501.003 4.544 2.056 4.538 4.56zm-3.031-.018a1.519 1.519 0 0 0-1.516-1.512c-.832 0-1.512.683-1.512 1.515a1.52 1.52 0 0 0 1.516 1.512 1.52 1.52 0 0 0 1.512-1.515zM6.149 8.326c-.003-.865.67-1.516 1.587-1.518 1.866-.005 3.732-.004 5.598 0 .924.001 1.596.64 1.6 1.506.003.866-.67 1.515-1.587 1.52-.933.006-1.866.002-2.8.002-.932 0-1.865.003-2.798-.001-.923-.005-1.597-.644-1.6-1.508zm0 6.047c.004-.878.682-1.506 1.637-1.507 1.841-.003 3.682-.003 5.523 0 .95.001 1.628.64 1.625 1.52-.003.878-.681 1.505-1.637 1.508-.92.003-1.841 0-2.762 0-.92 0-1.84.003-2.761 0-.95-.004-1.628-.642-1.625-1.52zm26.662 6.065c0 .866-.672 1.509-1.593 1.514-.933.005-1.866.001-2.8.001-.933 0-1.866.004-2.799-.001-.92-.005-1.593-.65-1.592-1.514 0-.866.673-1.511 1.593-1.513 1.866-.004 3.733-.004 5.599 0 .92.002 1.593.647 1.592 1.513zm0 6.056c.002.865-.67 1.512-1.59 1.516-.933.006-1.866.002-2.8.002-.933 0-1.866.003-2.799-.002-.92-.004-1.594-.647-1.595-1.511-.001-.866.671-1.513 1.59-1.515 1.866-.005 3.733-.005 5.599 0 .922.002 1.594.644 1.595 1.51z"/></g></g></svg>