<svg xmlns="http://www.w3.org/2000/svg" width="47" height="42" viewBox="0 0 47 42"><g><g><path fill="#fd3a3e" d="M46.166 3.507v4.87c-.461.696-1.195.358-1.86.48.113.358.21.714.339 1.057.162.433.037.75-.322 1.018-1.83 1.367-3.654 2.74-5.482 4.105-.563.422-.723.393-1.467-.238-.857.514-1.731 1.03-2.594 1.566-.093.058-.122.22-.213.395 1.206 0 2.317-.002 3.428 0 .713.001.953.237.957.935.002.346-.013.692.004 1.037.021.444-.157.733-.564.924-.663.31-1.31.653-1.987.992.78 1.173 1.547 2.302 2.282 3.452.152.236.248.55.254.83.026 1.291.002 2.585.017 3.877.005.399-.14.677-.453.92-2.045 1.578-4.075 3.176-6.13 4.743-.24.182-.594.299-.897.305-1.698.029-3.396-.004-5.094.022-.509.01-.932-.097-1.217-.518-.508-.753-1.096-.834-1.884-.399-.611.34-1.303.532-1.953.806-.355.149-.66.113-.963-.133-1.132-.916-2.275-1.82-3.408-2.735-.473-.382-.494-.786-.075-1.226.26-.271.53-.532.795-.798.563-.564.526-1.01-.12-1.493-.517-.387-1.023-.79-1.556-1.153-.144-.098-.405-.16-.552-.098-1.133.481-2.31.578-3.524.536-1.246-.043-2.495-.02-3.742-.004-.392.006-.684-.116-.944-.413-.997-1.143-2.01-2.27-3.054-3.443l1.078-.958c.683.768 1.411 1.47 1.997 2.276.637.876 1.387 1.261 2.466 1.103.545-.078 1.112-.04 1.666-.008 1.411.082 2.784-.043 4.088-.635.353-.16.66-.077.963.155.87.666 1.768 1.3 2.618 1.99.211.173.362.51.398.79.137 1.06.038 2.058-1.135 2.63.914.73 1.725 1.391 2.558 2.027.104.078.336.06.478.007.91-.348 1.817-.706 2.716-1.084.432-.183.82-.152 1.085.232.673.968 1.587 1.206 2.719 1.115 1.09-.09 2.192-.01 3.289-.03.191-.002.415-.075.566-.19a486.298 486.298 0 0 0 5.476-4.263.87.87 0 0 0 .284-.588c.029-.991.028-1.984.002-2.974a1.5 1.5 0 0 0-.222-.743c-.79-1.224-1.609-2.43-2.413-3.642-.402-.608-.305-.979.337-1.303.67-.338 1.346-.664 2.012-1.01.13-.067.23-.197.343-.298l-.071-.124H34.25c-.866 0-1.075-.198-1.068-1.05.014-1.736-.205-1.388 1.274-2.283.745-.45 1.494-.895 2.24-1.344.847-.508.847-.51 1.64.093 1.191-.894 2.394-1.79 3.59-2.696.402-.305.99-.567 1.123-.971.125-.38-.232-.924-.383-1.392-.251-.784.034-1.171.87-1.174h1.154V4.425c-.186.125-.361.187-.45.313-.35.487-.668.997-1.008 1.492-.335.49-.686.56-1.185.233-.654-.426-1.31-.85-1.944-1.306a1.355 1.355 0 0 1-.43-.55 72.949 72.949 0 0 1-1.073-2.67c-.096-.253-.227-.334-.491-.329-.841.018-1.683.017-2.524 0-.27-.003-.394.057-.442.353-.129.784-.3 1.562-.46 2.34-.163.792-.314.915-1.114.92h-.351v.72c.367 0 .754.023 1.137-.005.524-.04.85.178 1.05.657.15.358.348.697.517 1.05.296.616.118 1.012-.534 1.19-.362.099-.732.168-1.09.28-.981.303-1.958.622-3.006.957-.153-.304-.36-.709-.57-1.123 1.067-.774 2.309-1.01 3.525-1.313l.02-.126c-.127-.041-.252-.114-.38-.118-.435-.016-.871 0-1.307-.008-.565-.01-.833-.267-.84-.824a81.13 81.13 0 0 1 0-1.939c.006-.566.267-.826.824-.84.238-.006.476-.001.742-.001.197-.967.385-1.905.58-2.842.124-.597.321-.761.917-.763 1.322-.003 2.645.01 3.967-.006.471-.006.754.183.921.625.33.868.712 1.719 1.026 2.593.167.465.419.807.856 1.037.264.138.502.326.787.515.321-.481.644-.948.949-1.427.206-.325.48-.475.864-.457.315.015.633.027.946-.001.442-.04.791.088 1.046.455zM3.152 20.38c.284.328.546.628.826.949l-1.071.956c-.458-.523-.933-1.016-1.346-1.557-.259-.34-.125-.706.187-.958.35-.285.382-.637.437-1.057.155-1.195-.211-2.11-1.18-2.831-.378-.28-.673-.673-1.005-1.015v-4.147c.228-.3.522-.439.906-.488 1.354-.174 2.703-.397 4.058-.57.267-.036.389-.154.495-.373.334-.688.662-1.38 1.035-2.047.13-.232.351-.45.583-.579.641-.359 1.315-.659 1.966-.999.537-.282 1.067-.565 1.778-.406 0-.266-.007-.485.001-.702.02-.484.278-.762.753-.772.691-.014 1.385-.034 2.073.013.235.015.531.17.671.356.493.66.93 1.364 1.389 2.051.245.367.205.705-.098 1.018-.104.108-.216.21-.316.322-.304.343-.193.723.226.89.89.356 1.783.707 2.647 1.119.25.119.406.435.602.663.027.035.036.082.052.125.164.448.207 1.057.527 1.298.3.226.9.118 1.356.062 1.311-.155 2.457.169 3.439 1.055.28.251.555.306.877.068.684-.506 1.483-.387 2.258-.39.802-.003 1.575-.771 1.576-1.57V10.3h1.436c0 .497.013.99-.008 1.48-.006.137-.107.272-.171.406-.019.039-.059.067-.09.1-1.437 1.57-1.437 1.548-3.567 1.609-.405.011-.83.228-1.197.437-.537.306-1.012.338-1.48-.09-1.025-.938-2.228-1.266-3.597-1.096-.444.054-.9.005-1.352.009-.397.003-.651-.189-.78-.557-.088-.255-.219-.507-.249-.768-.114-.997-.817-1.385-1.642-1.664-.61-.207-1.22-.417-1.835-.612-.434-.138-.633-.418-.62-.872.014-.405-.022-.813.014-1.217.019-.209.093-.462.235-.6.235-.234.25-.408.039-.643a1.143 1.143 0 0 1-.222-.338c-.277-.706-.821-.768-1.507-.613 0 .208.01.43-.002.65-.025.451-.302.789-.741.728-1.43-.204-2.464.703-3.638 1.219-.118.052-.204.213-.27.34-.37.722-.74 1.442-1.086 2.174-.177.375-.43.577-.85.632-1.4.186-2.794.4-4.23.607 0 .852-.01 1.691.01 2.529.002.125.118.266.216.366.524.539 1.082 1.045 1.578 1.606.19.215.325.544.343.828.046.764.002 1.532.021 2.298.011.44-.035.843-.46 1.132zm27.88 17.91c.08 1.153-.323 2.005-1.284 2.631-.522.34-1.018.718-1.525 1.08H26.69c-1.245-.59-1.697-1.428-1.345-2.555.082-.266.227-.526.4-.745.48-.612 1.016-1.183 1.485-1.805.582-.772 1.76-.797 2.568-.548.797.247 1.165.97 1.233 1.942zm-1.477.21a3.65 3.65 0 0 0 .109-.026c-.112-.259-.158-.646-.35-.741-.238-.118-.719-.116-.88.048a17.265 17.265 0 0 0-1.661 1.995c-.273.377-.001.75.46.789.448.037.814-.07 1.135-.39a4.3 4.3 0 0 1 .664-.534c.416-.272.646-.616.523-1.14zm-5.754-17.215c-.262.234-.298.478-.235.798.112.56.228 1.123.265 1.689.017.248-.085.614-.263.735-.198.135-.582.145-.818.047-.523-.216-1.013-.521-1.5-.817-.239-.142-.424-.135-.659.006-.475.285-.954.577-1.463.79-.242.1-.592.11-.831.01-.317-.131-.365-.47-.298-.817.108-.558.172-1.128.287-1.684.066-.318-.015-.538-.246-.756-.382-.36-.733-.754-1.105-1.124-.247-.248-.427-.512-.302-.878.126-.367.436-.47.777-.52.52-.077 1.045-.126 1.556-.24a.822.822 0 0 0 .487-.366c.287-.525.496-1.095.79-1.616.13-.233.39-.395.677-.674.288.276.548.436.681.67.282.494.524 1.015.73 1.544.13.337.35.442.672.478.477.053.951.135 1.426.204.343.05.652.155.778.519.127.364-.053.633-.299.88-.37.373-.717.77-1.107 1.122zm-.79-1.278c-1.145.077-1.79-.453-2.113-1.51-.235 1.164-1.014 1.51-2.083 1.556 1.032.629 1.212 1.48.835 2.565.862-.753 1.68-.716 2.548-.011-.457-1.113-.103-1.923.813-2.6zM42.559 33.41c0 .584.01 1.17-.003 1.754-.015.781-.38 1.353-1.103 1.652-.715.295-1.353.115-1.896-.419-.246-.242-.472-.502-.719-.743-.433-.424-.627-.931-.61-1.538.016-.63.007-1.26.002-1.89a1.847 1.847 0 0 1 .536-1.341c.156-.163.312-.324.47-.485.639-.649 1.297-.816 2.03-.516.873.358 1.285.949 1.292 1.86.005.556.001 1.11 0 1.666zm-1.443-.02c0-.553.025-1.109-.015-1.658-.012-.167-.177-.353-.321-.466-.078-.063-.306-.039-.39.033-.429.374-.852.76-.722 1.43.039.203.036.423 0 .627-.143.808.165 1.422.795 1.898.13.097.3.14.451.207.068-.152.186-.3.193-.455.024-.537.01-1.076.009-1.615zM26.653 17.448h-1.387v-1.385h1.387v1.385zm2.897.784v1.39h-1.384v-1.39h1.384zm-1.386 4.325h1.387v1.395h-1.387v-1.395zm-1.509 3.548h-1.37v-1.402h1.37v1.402z"/></g></g></svg>