<svg xmlns="http://www.w3.org/2000/svg" width="21" height="21" viewBox="0 0 21 21"><g><g><path fill="#fd3a3e" d="M9.757.609h.877c.44.053.882.091 1.32.16 4.544.711 7.63 4.45 8.274 8.142.068.39.11.784.163 1.177v1.194c-.012.065-.028.128-.034.192-.211 2.506-1.174 4.678-2.919 6.487-1.588 1.646-3.53 2.617-5.8 2.926-.333.045-.67.077-1.004.113h-.877c-.064-.01-.128-.03-.194-.033a8.547 8.547 0 0 1-2.133-.35c-4.05-1.254-6.404-4.033-7.268-8.135-.08-.381-.11-.773-.162-1.16v-1.273c.012-.059.027-.114.036-.173.09-.541.145-1.092.275-1.623.472-1.93 1.49-3.541 2.915-4.906C4.702 1.93 6.466 1.092 8.477.767 8.901.697 9.33.66 9.757.608zm.432 18.745c4.659-.039 8.49-3.285 8.59-8.589.09-4.706-3.832-8.553-8.568-8.57-4.724-.016-8.676 3.843-8.6 8.559.086 5.229 3.85 8.55 8.578 8.6zm.803-11.847c0 .737-.004 1.472.005 2.209a.531.531 0 0 0 .106.296c.162.213.255.444.29.708.011.089.052.19.114.253.783.793 1.572 1.58 2.36 2.367.213.21.316.459.254.757a.762.762 0 0 1-.545.603c-.314.097-.59.012-.82-.219-.727-.726-1.458-1.45-2.178-2.184a1.093 1.093 0 0 0-.633-.345c-.873-.144-1.239-1.256-.661-1.936a.498.498 0 0 0 .11-.294c.007-1.486.002-2.972.006-4.457.002-.606.514-.98 1.066-.792.328.111.523.397.525.786.003.75 0 1.499.001 2.248z"/></g></g></svg>