<svg xmlns="http://www.w3.org/2000/svg" width="20" height="24" viewBox="0 0 20 24"><g><g><path fill="#fd3a3e" d="M10.394.56c.436.076.878.128 1.308.23 3.175.751 5.605 3.46 6.048 6.694.25 1.82-.17 3.506-.978 5.115-.934 1.866-2.233 3.463-3.686 4.939-.457.463-.933.912-1.419 1.352-1.116 1-2.585.995-3.704-.003-1.74-1.553-3.317-3.248-4.537-5.253-.706-1.16-1.265-2.382-1.494-3.734-.387-2.29.141-4.368 1.543-6.202C4.755 2.02 6.463 1.028 8.538.663c.232-.039.466-.067.7-.103h1.156zM3.568 8.55c.028.287.043.577.086.862.183 1.218.687 2.313 1.328 3.347 1.146 1.851 2.622 3.422 4.24 4.862.372.332.848.318 1.228-.033.57-.533 1.14-1.066 1.681-1.624 1.18-1.22 2.231-2.545 3.005-4.066.628-1.234 1.018-2.523.878-3.937A6.237 6.237 0 0 0 9.2 2.378c-3.17.314-5.603 2.988-5.632 6.172zm-1.23 14.824c-.427-.118-.848-.244-1.213-.515-1.032-.764-1.4-2.12-.85-3.279.504-1.055 1.039-2.099 1.568-3.145.234-.46.746-.627 1.19-.407.447.219.623.741.392 1.213-.498 1.01-1.008 2.016-1.506 3.024-.279.567.004 1.176.596 1.306.086.02.176.024.265.024h14.063c.795 0 1.2-.667.845-1.382-.49-.99-.99-1.976-1.478-2.965-.246-.498-.053-1.043.432-1.247.438-.19.916-.015 1.146.434.359.7.706 1.407 1.057 2.108.163.327.33.647.486.975a2.676 2.676 0 0 1-1.918 3.812c-.041.01-.08.03-.12.044H2.338zm10.148-14.79a2.684 2.684 0 0 1-2.68 2.673 2.682 2.682 0 0 1-2.66-2.69 2.682 2.682 0 0 1 2.668-2.66 2.68 2.68 0 0 1 2.672 2.676zm-2.663.888a.894.894 0 0 0 .882-.9.89.89 0 1 0-.881.9z"/></g></g></svg>