<svg xmlns="http://www.w3.org/2000/svg" width="15" height="24" viewBox="0 0 15 24"><g><g><path fill="#fd3a3e" d="M4.102.566h6.232c.041.014.082.034.124.04 2.211.293 3.874 2.151 3.879 4.379.01 4.66.008 9.321 0 13.98a4.405 4.405 0 0 1-2.83 4.104c-.376.14-.781.211-1.173.316H4.102c-.042-.015-.082-.034-.124-.041-2.199-.29-3.873-2.149-3.879-4.352C.088 14.316.09 9.637.1 4.96.102 3.103 1.318 1.425 3.074.828 3.407.712 3.759.65 4.102.566zM1.876 11.974v6.858c0 1.604 1.161 2.766 2.764 2.766h5.14c1.62 0 2.78-1.153 2.78-2.772V5.128c0-1.619-1.157-2.78-2.775-2.78H4.667c-1.636 0-2.79 1.154-2.79 2.785-.002 2.28-.001 4.56-.001 6.841zm5.343-6.056c-.296 0-.592.002-.888-.005-.506-.01-.892-.399-.893-.884 0-.495.385-.89.89-.895a74.59 74.59 0 0 1 1.777 0 .884.884 0 0 1 .893.888.888.888 0 0 1-.89.891c-.296.007-.592.005-.889.005zm.009 12.118c.289 0 .578-.003.867 0 .518.007.908.4.903.9-.005.492-.392.872-.902.88-.585.006-1.17.006-1.755 0-.518-.008-.908-.399-.903-.897a.885.885 0 0 1 .901-.88c.296-.006.593-.003.889-.003z"/></g></g></svg>