<svg xmlns="http://www.w3.org/2000/svg" width="21" height="17" viewBox="0 0 21 17"><g><g><path fill="#fd3a3e" d="M0 13.09V4.302c.012-.038.03-.072.035-.11C.312 2.184 1.971.712 3.982.705c4.17-.01 8.34-.01 12.51 0a3.985 3.985 0 0 1 3.843 2.957c.057.209.093.423.139.638v8.79c-.013.037-.03.075-.036.111-.268 1.991-1.928 3.477-3.926 3.484-4.183.009-8.366.006-12.55 0-1.779 0-3.327-1.2-3.81-2.913-.062-.225-.102-.456-.152-.682zm10.223 2h6.156c1.454 0 2.494-1.038 2.495-2.491V4.787c0-1.45-1.041-2.484-2.497-2.484L4.104 2.302C2.635 2.303 1.6 3.337 1.6 4.802v7.789c0 1.467 1.038 2.499 2.507 2.499h6.116zm3.51-6.41c.598.623 1.183 1.236 1.768 1.847.513.532 1.032 1.061 1.536 1.599.447.479.228 1.208-.397 1.345-.325.071-.582-.054-.805-.287-1.022-1.071-2.048-2.135-3.072-3.202-.045-.047-.084-.105-.107-.133-.22.208-.428.382-.618.576-1.047 1.072-2.554 1.072-3.6.004-.19-.198-.398-.372-.559-.522-.226.206-.486.415-.718.653-.85.875-1.691 1.755-2.534 2.633-.218.228-.474.347-.79.278a.757.757 0 0 1-.601-.55c-.095-.312-.009-.579.21-.808.562-.584 1.126-1.172 1.69-1.756.53-.556 1.06-1.103 1.605-1.674-.057-.062-.107-.121-.16-.174-1.035-1.068-2.069-2.135-3.105-3.2-.214-.217-.327-.464-.257-.775a.76.76 0 0 1 .556-.597c.311-.093.583-.01.805.22.583.592 1.16 1.195 1.74 1.791 1.09 1.122 2.181 2.243 3.272 3.37.417.424.871.429 1.286.003 1.648-1.7 3.295-3.395 4.94-5.095.228-.237.484-.382.817-.307.626.134.85.866.406 1.345-.4.427-.814.842-1.223 1.262-.654.672-1.309 1.349-1.963 2.023-.037.037-.072.077-.123.132z"/></g></g></svg>