<svg xmlns="http://www.w3.org/2000/svg" width="81" height="46" viewBox="0 0 81 46"><defs><mask id="qyv2b" width="2" height="2" x="-1" y="-1"><path fill="#fff" d="M45 12h21v22H45z"/><path d="M59.37 21.697c.112.607-.011 1.18-.337 1.704l-5.505 8.856c-.274.44-.678.683-1.17.8h-.475c-.049-.016-.097-.034-.147-.047-.868-.217-1.404-1.001-1.265-1.872.197-1.229.406-2.455.608-3.682.063-.38.122-.76.185-1.16h-.242c-.968 0-1.937.009-2.905-.003a2.511 2.511 0 0 1-2.381-1.832c-.04-.138-.067-.278-.1-.418v-.514c.129-.355.2-.746.394-1.06 1.769-2.86 3.566-5.702 5.338-8.56.33-.533.713-.955 1.345-1.093h.514c.022.012.043.03.066.035.984.248 1.475 1.023 1.302 2.022-.264 1.53-.513 3.063-.768 4.595-.007.038-.006.078-.01.146h.214c.948 0 1.897-.004 2.846.001 1.256.008 2.268.848 2.494 2.082zm-2.516-.5c-1.31-.004-2.622 0-3.933-.003-.565-.002-.912-.428-.82-.981.31-1.85.618-3.7.922-5.55.014-.082-.015-.17-.024-.254-.06.06-.136.11-.18.18-1.801 2.871-3.598 5.746-5.4 8.617-.207.328-.276.653-.087 1.004.194.361.513.508.915.506.645-.003 1.291 0 1.937 0 .652 0 1.304-.002 1.956 0 .578.001.922.42.828.99a1626.95 1626.95 0 0 0-.916 5.57c-.01.06.03.126.046.19.045-.041.093-.08.135-.124.026-.028.042-.067.063-.1 1.79-2.879 3.58-5.757 5.366-8.639a.997.997 0 0 0 .15-.4c.06-.569-.357-1.005-.958-1.006zm9.024-2.728v.435c-.09.503-.388.896-.678 1.297-1.151 1.588-2.297 3.18-3.442 4.773-.214.298-.483.47-.857.394-.573-.116-.823-.746-.486-1.232.345-.497.705-.984 1.06-1.475.892-1.239 1.786-2.477 2.677-3.717.073-.101.198-.196.113-.348-.083-.15-.231-.127-.368-.127H61.25c-.605 0-.941-.41-.843-1.01.116-.713.225-1.427.306-2.159-.04.053-.084.105-.122.16-.574.804-1.144 1.61-1.72 2.411-.291.404-.79.479-1.159.186-.341-.272-.393-.726-.119-1.114.594-.837 1.191-1.672 1.787-2.508.195-.274.402-.54.582-.822.254-.4.578-.695 1.053-.797h.395l.22.076a1.3 1.3 0 0 1 .876 1.408c-.062.437-.137.871-.206 1.307l-.2 1.28h.216c.587 0 1.173-.006 1.76.004a1.81 1.81 0 0 1 1.763 1.448c.01.044.026.087.039.13z"/></mask><filter id="qyv2a" width="41" height="43" x="35" y="2" filterUnits="userSpaceOnUse"><feOffset dy="1" in="SourceGraphic" result="FeOffset1114Out"/><feGaussianBlur in="FeOffset1114Out" result="FeGaussianBlur1115Out" stdDeviation="0 0"/></filter><mask id="qyv2d" width="2" height="2" x="-1" y="-1"><path fill="#fff" d="M15 12h21v21H15z"/><path d="M35.213 19.577v6.79c-.014.043-.032.084-.041.127-.229 1.124-1.222 1.946-2.327 1.926a.791.791 0 0 1-.79-.752.792.792 0 0 1 .735-.825c.58-.046.844-.332.844-.918V22.49v-.23h-.212c-.191 0-.382.004-.572 0-.451-.009-.794-.35-.795-.786a.787.787 0 0 1 .79-.79c.26-.006.52-.002.789-.002 0-.272.002-.515 0-.758-.006-.485-.336-.817-.82-.82-.447-.004-.895-.001-1.342-.001h-.669v12.318c.273 0 .535-.006.797 0a.787.787 0 0 1 .282 1.517l-.143.061H15.632A.922.922 0 0 1 15 32.37v-.316c.16-.474.495-.668.984-.634.194.013.39.002.595.002v-.28-14.364c.002-1.767 1.076-3.252 2.753-3.8.26-.084.533-.127.8-.19h7.106c.037.012.073.03.11.035 1.127.155 2.026.695 2.696 1.61.567.772.784 1.65.748 2.598-.006.161 0 .323 0 .495.71 0 1.393-.01 2.075.002.77.013 1.39.337 1.867.943.258.328.374.715.479 1.107zm-6 11.626l-.001-14.387c0-1.42-1.03-2.449-2.453-2.45H20.62c-1.436 0-2.462 1.026-2.463 2.46V31.413h11.054v-.21zm-1.58-12.869c.002.52.003 1.04 0 1.558a2.37 2.37 0 0 1-2.374 2.369c-1.053.005-2.105.006-3.157 0a2.37 2.37 0 0 1-2.364-2.378c-.003-.52-.003-1.04 0-1.559a2.371 2.371 0 0 1 2.384-2.378c.52-.003 1.039 0 1.558 0 .52 0 1.039-.002 1.558 0a2.37 2.37 0 0 1 2.395 2.388zm-1.58.02c-.003-.496-.334-.827-.83-.829-1.025-.002-2.05-.002-3.076 0-.496.002-.827.333-.83.829-.003.493-.002.986 0 1.479.002.52.328.848.85.85h1.518c.512 0 1.025.002 1.538 0 .495-.003.827-.334.83-.83.003-.5.003-.999 0-1.499zm-.056 8.672c.27 1.359-.466 2.578-1.739 2.899-1.497.377-2.947-.764-2.94-2.449.015-.748.325-1.54.802-2.262.3-.453.647-.88 1.006-1.287a.735.735 0 0 1 1.094-.027c.862.886 1.531 1.89 1.777 3.126zm-1.531.431c-.083-.65-.396-1.198-.782-1.752-.368.538-.672 1.063-.771 1.683-.052.324 0 .616.261.842.249.215.597.25.883.095.305-.164.459-.478.409-.868z"/></mask><filter id="qyv2c" width="41" height="42" x="5" y="2" filterUnits="userSpaceOnUse"><feOffset dy="1" in="SourceGraphic" result="FeOffset1130Out"/><feGaussianBlur in="FeOffset1130Out" result="FeGaussianBlur1131Out" stdDeviation="0 0"/></filter></defs><g><g><path fill="#ffd87a" d="M23 0h35c12.703 0 23 10.297 23 23S70.703 46 58 46H23C10.297 46 0 35.703 0 23S10.297 0 23 0z"/></g><g><g filter="url(#qyv2a)"><path fill="none" d="M59.37 21.697c.112.607-.011 1.18-.337 1.704l-5.505 8.856c-.274.44-.678.683-1.17.8h-.475c-.049-.016-.097-.034-.147-.047-.868-.217-1.404-1.001-1.265-1.872.197-1.229.406-2.455.608-3.682.063-.38.122-.76.185-1.16h-.242c-.968 0-1.937.009-2.905-.003a2.511 2.511 0 0 1-2.381-1.832c-.04-.138-.067-.278-.1-.418v-.514c.129-.355.2-.746.394-1.06 1.769-2.86 3.566-5.702 5.338-8.56.33-.533.713-.955 1.345-1.093h.514c.022.012.043.03.066.035.984.248 1.475 1.023 1.302 2.022-.264 1.53-.513 3.063-.768 4.595-.007.038-.006.078-.01.146h.214c.948 0 1.897-.004 2.846.001 1.256.008 2.268.848 2.494 2.082zm-2.516-.5c-1.31-.004-2.622 0-3.933-.003-.565-.002-.912-.428-.82-.981.31-1.85.618-3.7.922-5.55.014-.082-.015-.17-.024-.254-.06.06-.136.11-.18.18-1.801 2.871-3.598 5.746-5.4 8.617-.207.328-.276.653-.087 1.004.194.361.513.508.915.506.645-.003 1.291 0 1.937 0 .652 0 1.304-.002 1.956 0 .578.001.922.42.828.99a1626.95 1626.95 0 0 0-.916 5.57c-.01.06.03.126.046.19.045-.041.093-.08.135-.124.026-.028.042-.067.063-.1 1.79-2.879 3.58-5.757 5.366-8.639a.997.997 0 0 0 .15-.4c.06-.569-.357-1.005-.958-1.006zm9.024-2.728v.435c-.09.503-.388.896-.678 1.297-1.151 1.588-2.297 3.18-3.442 4.773-.214.298-.483.47-.857.394-.573-.116-.823-.746-.486-1.232.345-.497.705-.984 1.06-1.475.892-1.239 1.786-2.477 2.677-3.717.073-.101.198-.196.113-.348-.083-.15-.231-.127-.368-.127H61.25c-.605 0-.941-.41-.843-1.01.116-.713.225-1.427.306-2.159-.04.053-.084.105-.122.16-.574.804-1.144 1.61-1.72 2.411-.291.404-.79.479-1.159.186-.341-.272-.393-.726-.119-1.114.594-.837 1.191-1.672 1.787-2.508.195-.274.402-.54.582-.822.254-.4.578-.695 1.053-.797h.395l.22.076a1.3 1.3 0 0 1 .876 1.408c-.062.437-.137.871-.206 1.307l-.2 1.28h.216c.587 0 1.173-.006 1.76.004a1.81 1.81 0 0 1 1.763 1.448c.01.044.026.087.039.13z" mask="url(&quot;#qyv2b&quot;)"/><path fill="#fff" fill-opacity=".5" d="M59.37 21.697c.112.607-.011 1.18-.337 1.704l-5.505 8.856c-.274.44-.678.683-1.17.8h-.475c-.049-.016-.097-.034-.147-.047-.868-.217-1.404-1.001-1.265-1.872.197-1.229.406-2.455.608-3.682.063-.38.122-.76.185-1.16h-.242c-.968 0-1.937.009-2.905-.003a2.511 2.511 0 0 1-2.381-1.832c-.04-.138-.067-.278-.1-.418v-.514c.129-.355.2-.746.394-1.06 1.769-2.86 3.566-5.702 5.338-8.56.33-.533.713-.955 1.345-1.093h.514c.022.012.043.03.066.035.984.248 1.475 1.023 1.302 2.022-.264 1.53-.513 3.063-.768 4.595-.007.038-.006.078-.01.146h.214c.948 0 1.897-.004 2.846.001 1.256.008 2.268.848 2.494 2.082zm-2.516-.5c-1.31-.004-2.622 0-3.933-.003-.565-.002-.912-.428-.82-.981.31-1.85.618-3.7.922-5.55.014-.082-.015-.17-.024-.254-.06.06-.136.11-.18.18-1.801 2.871-3.598 5.746-5.4 8.617-.207.328-.276.653-.087 1.004.194.361.513.508.915.506.645-.003 1.291 0 1.937 0 .652 0 1.304-.002 1.956 0 .578.001.922.42.828.99a1626.95 1626.95 0 0 0-.916 5.57c-.01.06.03.126.046.19.045-.041.093-.08.135-.124.026-.028.042-.067.063-.1 1.79-2.879 3.58-5.757 5.366-8.639a.997.997 0 0 0 .15-.4c.06-.569-.357-1.005-.958-1.006zm9.024-2.728v.435c-.09.503-.388.896-.678 1.297-1.151 1.588-2.297 3.18-3.442 4.773-.214.298-.483.47-.857.394-.573-.116-.823-.746-.486-1.232.345-.497.705-.984 1.06-1.475.892-1.239 1.786-2.477 2.677-3.717.073-.101.198-.196.113-.348-.083-.15-.231-.127-.368-.127H61.25c-.605 0-.941-.41-.843-1.01.116-.713.225-1.427.306-2.159-.04.053-.084.105-.122.16-.574.804-1.144 1.61-1.72 2.411-.291.404-.79.479-1.159.186-.341-.272-.393-.726-.119-1.114.594-.837 1.191-1.672 1.787-2.508.195-.274.402-.54.582-.822.254-.4.578-.695 1.053-.797h.395l.22.076a1.3 1.3 0 0 1 .876 1.408c-.062.437-.137.871-.206 1.307l-.2 1.28h.216c.587 0 1.173-.006 1.76.004a1.81 1.81 0 0 1 1.763 1.448c.01.044.026.087.039.13z"/></g><path fill="#191919" d="M59.37 21.697c.112.607-.011 1.18-.337 1.704l-5.505 8.856c-.274.44-.678.683-1.17.8h-.475c-.049-.016-.097-.034-.147-.047-.868-.217-1.404-1.001-1.265-1.872.197-1.229.406-2.455.608-3.682.063-.38.122-.76.185-1.16h-.242c-.968 0-1.937.009-2.905-.003a2.511 2.511 0 0 1-2.381-1.832c-.04-.138-.067-.278-.1-.418v-.514c.129-.355.2-.746.394-1.06 1.769-2.86 3.566-5.702 5.338-8.56.33-.533.713-.955 1.345-1.093h.514c.022.012.043.03.066.035.984.248 1.475 1.023 1.302 2.022-.264 1.53-.513 3.063-.768 4.595-.007.038-.006.078-.01.146h.214c.948 0 1.897-.004 2.846.001 1.256.008 2.268.848 2.494 2.082zm-2.516-.5c-1.31-.004-2.622 0-3.933-.003-.565-.002-.912-.428-.82-.981.31-1.85.618-3.7.922-5.55.014-.082-.015-.17-.024-.254-.06.06-.136.11-.18.18-1.801 2.871-3.598 5.746-5.4 8.617-.207.328-.276.653-.087 1.004.194.361.513.508.915.506.645-.003 1.291 0 1.937 0 .652 0 1.304-.002 1.956 0 .578.001.922.42.828.99a1626.95 1626.95 0 0 0-.916 5.57c-.01.06.03.126.046.19.045-.041.093-.08.135-.124.026-.028.042-.067.063-.1 1.79-2.879 3.58-5.757 5.366-8.639a.997.997 0 0 0 .15-.4c.06-.569-.357-1.005-.958-1.006zm9.024-2.728v.435c-.09.503-.388.896-.678 1.297-1.151 1.588-2.297 3.18-3.442 4.773-.214.298-.483.47-.857.394-.573-.116-.823-.746-.486-1.232.345-.497.705-.984 1.06-1.475.892-1.239 1.786-2.477 2.677-3.717.073-.101.198-.196.113-.348-.083-.15-.231-.127-.368-.127H61.25c-.605 0-.941-.41-.843-1.01.116-.713.225-1.427.306-2.159-.04.053-.084.105-.122.16-.574.804-1.144 1.61-1.72 2.411-.291.404-.79.479-1.159.186-.341-.272-.393-.726-.119-1.114.594-.837 1.191-1.672 1.787-2.508.195-.274.402-.54.582-.822.254-.4.578-.695 1.053-.797h.395l.22.076a1.3 1.3 0 0 1 .876 1.408c-.062.437-.137.871-.206 1.307l-.2 1.28h.216c.587 0 1.173-.006 1.76.004a1.81 1.81 0 0 1 1.763 1.448c.01.044.026.087.039.13z"/></g><g><g filter="url(#qyv2c)"><path fill="none" d="M35.213 19.577v6.79c-.014.043-.032.084-.041.127-.229 1.124-1.222 1.946-2.327 1.926a.791.791 0 0 1-.79-.752.792.792 0 0 1 .735-.825c.58-.046.844-.332.844-.918V22.49v-.23h-.212c-.191 0-.382.004-.572 0-.451-.009-.794-.35-.795-.786a.787.787 0 0 1 .79-.79c.26-.006.52-.002.789-.002 0-.272.002-.515 0-.758-.006-.485-.336-.817-.82-.82-.447-.004-.895-.001-1.342-.001h-.669v12.318c.273 0 .535-.006.797 0a.787.787 0 0 1 .282 1.517l-.143.061H15.632A.922.922 0 0 1 15 32.37v-.316c.16-.474.495-.668.984-.634.194.013.39.002.595.002v-.28-14.364c.002-1.767 1.076-3.252 2.753-3.8.26-.084.533-.127.8-.19h7.106c.037.012.073.03.11.035 1.127.155 2.026.695 2.696 1.61.567.772.784 1.65.748 2.598-.006.161 0 .323 0 .495.71 0 1.393-.01 2.075.002.77.013 1.39.337 1.867.943.258.328.374.715.479 1.107zm-6 11.626l-.001-14.387c0-1.42-1.03-2.449-2.453-2.45H20.62c-1.436 0-2.462 1.026-2.463 2.46V31.413h11.054v-.21zm-1.58-12.869c.002.52.003 1.04 0 1.558a2.37 2.37 0 0 1-2.374 2.369c-1.053.005-2.105.006-3.157 0a2.37 2.37 0 0 1-2.364-2.378c-.003-.52-.003-1.04 0-1.559a2.371 2.371 0 0 1 2.384-2.378c.52-.003 1.039 0 1.558 0 .52 0 1.039-.002 1.558 0a2.37 2.37 0 0 1 2.395 2.388zm-1.58.02c-.003-.496-.334-.827-.83-.829-1.025-.002-2.05-.002-3.076 0-.496.002-.827.333-.83.829-.003.493-.002.986 0 1.479.002.52.328.848.85.85h1.518c.512 0 1.025.002 1.538 0 .495-.003.827-.334.83-.83.003-.5.003-.999 0-1.499zm-.056 8.672c.27 1.359-.466 2.578-1.739 2.899-1.497.377-2.947-.764-2.94-2.449.015-.748.325-1.54.802-2.262.3-.453.647-.88 1.006-1.287a.735.735 0 0 1 1.094-.027c.862.886 1.531 1.89 1.777 3.126zm-1.531.431c-.083-.65-.396-1.198-.782-1.752-.368.538-.672 1.063-.771 1.683-.052.324 0 .616.261.842.249.215.597.25.883.095.305-.164.459-.478.409-.868z" mask="url(&quot;#qyv2d&quot;)"/><path fill="#fff" fill-opacity=".5" d="M35.213 19.577v6.79c-.014.043-.032.084-.041.127-.229 1.124-1.222 1.946-2.327 1.926a.791.791 0 0 1-.79-.752.792.792 0 0 1 .735-.825c.58-.046.844-.332.844-.918V22.49v-.23h-.212c-.191 0-.382.004-.572 0-.451-.009-.794-.35-.795-.786a.787.787 0 0 1 .79-.79c.26-.006.52-.002.789-.002 0-.272.002-.515 0-.758-.006-.485-.336-.817-.82-.82-.447-.004-.895-.001-1.342-.001h-.669v12.318c.273 0 .535-.006.797 0a.787.787 0 0 1 .282 1.517l-.143.061H15.632A.922.922 0 0 1 15 32.37v-.316c.16-.474.495-.668.984-.634.194.013.39.002.595.002v-.28-14.364c.002-1.767 1.076-3.252 2.753-3.8.26-.084.533-.127.8-.19h7.106c.037.012.073.03.11.035 1.127.155 2.026.695 2.696 1.61.567.772.784 1.65.748 2.598-.006.161 0 .323 0 .495.71 0 1.393-.01 2.075.002.77.013 1.39.337 1.867.943.258.328.374.715.479 1.107zm-6 11.626l-.001-14.387c0-1.42-1.03-2.449-2.453-2.45H20.62c-1.436 0-2.462 1.026-2.463 2.46V31.413h11.054v-.21zm-1.58-12.869c.002.52.003 1.04 0 1.558a2.37 2.37 0 0 1-2.374 2.369c-1.053.005-2.105.006-3.157 0a2.37 2.37 0 0 1-2.364-2.378c-.003-.52-.003-1.04 0-1.559a2.371 2.371 0 0 1 2.384-2.378c.52-.003 1.039 0 1.558 0 .52 0 1.039-.002 1.558 0a2.37 2.37 0 0 1 2.395 2.388zm-1.58.02c-.003-.496-.334-.827-.83-.829-1.025-.002-2.05-.002-3.076 0-.496.002-.827.333-.83.829-.003.493-.002.986 0 1.479.002.52.328.848.85.85h1.518c.512 0 1.025.002 1.538 0 .495-.003.827-.334.83-.83.003-.5.003-.999 0-1.499zm-.056 8.672c.27 1.359-.466 2.578-1.739 2.899-1.497.377-2.947-.764-2.94-2.449.015-.748.325-1.54.802-2.262.3-.453.647-.88 1.006-1.287a.735.735 0 0 1 1.094-.027c.862.886 1.531 1.89 1.777 3.126zm-1.531.431c-.083-.65-.396-1.198-.782-1.752-.368.538-.672 1.063-.771 1.683-.052.324 0 .616.261.842.249.215.597.25.883.095.305-.164.459-.478.409-.868z"/></g><path fill="#191919" d="M35.213 19.577v6.79c-.014.043-.032.084-.041.127-.229 1.124-1.222 1.946-2.327 1.926a.791.791 0 0 1-.79-.752.792.792 0 0 1 .735-.825c.58-.046.844-.332.844-.918V22.49v-.23h-.212c-.191 0-.382.004-.572 0-.451-.009-.794-.35-.795-.786a.787.787 0 0 1 .79-.79c.26-.006.52-.002.789-.002 0-.272.002-.515 0-.758-.006-.485-.336-.817-.82-.82-.447-.004-.895-.001-1.342-.001h-.669v12.318c.273 0 .535-.006.797 0a.787.787 0 0 1 .282 1.517l-.143.061H15.632A.922.922 0 0 1 15 32.37v-.316c.16-.474.495-.668.984-.634.194.013.39.002.595.002v-.28-14.364c.002-1.767 1.076-3.252 2.753-3.8.26-.084.533-.127.8-.19h7.106c.037.012.073.03.11.035 1.127.155 2.026.695 2.696 1.61.567.772.784 1.65.748 2.598-.006.161 0 .323 0 .495.71 0 1.393-.01 2.075.002.77.013 1.39.337 1.867.943.258.328.374.715.479 1.107zm-6 11.626l-.001-14.387c0-1.42-1.03-2.449-2.453-2.45H20.62c-1.436 0-2.462 1.026-2.463 2.46V31.413h11.054v-.21zm-1.58-12.869c.002.52.003 1.04 0 1.558a2.37 2.37 0 0 1-2.374 2.369c-1.053.005-2.105.006-3.157 0a2.37 2.37 0 0 1-2.364-2.378c-.003-.52-.003-1.04 0-1.559a2.371 2.371 0 0 1 2.384-2.378c.52-.003 1.039 0 1.558 0 .52 0 1.039-.002 1.558 0a2.37 2.37 0 0 1 2.395 2.388zm-1.58.02c-.003-.496-.334-.827-.83-.829-1.025-.002-2.05-.002-3.076 0-.496.002-.827.333-.83.829-.003.493-.002.986 0 1.479.002.52.328.848.85.85h1.518c.512 0 1.025.002 1.538 0 .495-.003.827-.334.83-.83.003-.5.003-.999 0-1.499zm-.056 8.672c.27 1.359-.466 2.578-1.739 2.899-1.497.377-2.947-.764-2.94-2.449.015-.748.325-1.54.802-2.262.3-.453.647-.88 1.006-1.287a.735.735 0 0 1 1.094-.027c.862.886 1.531 1.89 1.777 3.126zm-1.531.431c-.083-.65-.396-1.198-.782-1.752-.368.538-.672 1.063-.771 1.683-.052.324 0 .616.261.842.249.215.597.25.883.095.305-.164.459-.478.409-.868z"/></g></g></svg>