<svg xmlns="http://www.w3.org/2000/svg" width="46" height="46" viewBox="0 0 46 46"><defs><mask id="tkc4b" width="2" height="2" x="-1" y="-1"><path fill="#fff" d="M13 15h21v17H13z"/><path d="M18.778 18.637c-.645 1.465-1.307 2.923-1.95 4.39-.163.368-.405.575-.816.63-.864.117-1.411.765-1.414 1.63-.003.58-.003 1.159 0 1.737.002.71.48 1.21 1.183 1.245.485.024.827.374.811.83-.015.448-.372.77-.85.767-1.306-.009-2.462-.99-2.698-2.287-.012-.064-.03-.127-.044-.191v-2.476c.032-.149.055-.3.096-.445.326-1.158 1.06-1.928 2.207-2.291.128-.04.198-.1.251-.22.586-1.326 1.177-2.648 1.765-3.971.598-1.345 1.612-2.167 3.063-2.435.227-.042.463-.055.695-.056 1.177-.006 2.355-.016 3.533 0 1.597.023 2.804.731 3.578 2.135.368.669.706 1.356 1.045 2.04.29.584-.134 1.22-.772 1.169-.302-.025-.517-.187-.655-.457-.319-.628-.641-1.255-.96-1.883-.48-.946-1.252-1.414-2.312-1.41-.364.002-.728 0-1.113 0v.234c0 .898.004 1.797-.002 2.695-.004.592-.52.96-1.067.778-.328-.11-.526-.398-.527-.788-.003-.892-.001-1.784-.001-2.676v-.214c-1.234-.14-2.422.098-3.046 1.52zm14.664 6.235v2.516c-.04.167-.074.336-.123.5-.347 1.16-1.444 1.979-2.64 1.978-.462 0-.815-.327-.83-.767-.014-.45.323-.803.792-.83.738-.041 1.202-.528 1.204-1.264.001-.566.002-1.132 0-1.697-.003-.984-.686-1.67-1.671-1.67-3.572-.002-7.145 0-10.717 0-.449 0-.735-.175-.855-.518-.179-.51.14-1.013.684-1.075.052-.005.106-.005.16-.005 3.591 0 7.184-.003 10.776.001 1.562.003 2.842 1.057 3.161 2.584.017.083.04.165.06.247zm-4.676 4.321a2.352 2.352 0 0 1-1.948 2.22c-1.113.21-2.178-.343-2.628-1.378-.057-.132-.123-.174-.263-.172-.472.009-.945.01-1.417 0-.145-.003-.204.05-.26.177-.474 1.083-1.593 1.621-2.767 1.34a2.354 2.354 0 0 1-1.807-2.431c.065-1.269 1.027-2.197 2.343-2.262.95-.047 1.837.51 2.232 1.417.058.135.129.17.264.168.473-.007.945-.008 1.417.001.143.003.202-.047.26-.175a2.38 2.38 0 0 1 2.73-1.356c1.138.279 1.908 1.303 1.844 2.451zm-7.901-.117a.79.79 0 0 0-.792-.801.79.79 0 0 0-.804.789c-.008.436.35.8.791.802a.796.796 0 0 0 .805-.79zm6.308.006a.792.792 0 0 0-.806-.807.79.79 0 0 0-.79.804c0 .436.363.79.806.787a.797.797 0 0 0 .79-.784z"/></mask><filter id="tkc4a" width="41" height="38" x="3" y="5" filterUnits="userSpaceOnUse"><feOffset dy="1" in="SourceGraphic" result="FeOffset1155Out"/><feGaussianBlur in="FeOffset1155Out" result="FeGaussianBlur1156Out" stdDeviation="0 0"/></filter></defs><g><g><path fill="#ffd87a" d="M23 0c12.703 0 23 10.297 23 23S35.703 46 23 46 0 35.703 0 23 10.297 0 23 0z"/></g><g><g filter="url(#tkc4a)"><path fill="none" d="M18.778 18.637c-.645 1.465-1.307 2.923-1.95 4.39-.163.368-.405.575-.816.63-.864.117-1.411.765-1.414 1.63-.003.58-.003 1.159 0 1.737.002.71.48 1.21 1.183 1.245.485.024.827.374.811.83-.015.448-.372.77-.85.767-1.306-.009-2.462-.99-2.698-2.287-.012-.064-.03-.127-.044-.191v-2.476c.032-.149.055-.3.096-.445.326-1.158 1.06-1.928 2.207-2.291.128-.04.198-.1.251-.22.586-1.326 1.177-2.648 1.765-3.971.598-1.345 1.612-2.167 3.063-2.435.227-.042.463-.055.695-.056 1.177-.006 2.355-.016 3.533 0 1.597.023 2.804.731 3.578 2.135.368.669.706 1.356 1.045 2.04.29.584-.134 1.22-.772 1.169-.302-.025-.517-.187-.655-.457-.319-.628-.641-1.255-.96-1.883-.48-.946-1.252-1.414-2.312-1.41-.364.002-.728 0-1.113 0v.234c0 .898.004 1.797-.002 2.695-.004.592-.52.96-1.067.778-.328-.11-.526-.398-.527-.788-.003-.892-.001-1.784-.001-2.676v-.214c-1.234-.14-2.422.098-3.046 1.52zm14.664 6.235v2.516c-.04.167-.074.336-.123.5-.347 1.16-1.444 1.979-2.64 1.978-.462 0-.815-.327-.83-.767-.014-.45.323-.803.792-.83.738-.041 1.202-.528 1.204-1.264.001-.566.002-1.132 0-1.697-.003-.984-.686-1.67-1.671-1.67-3.572-.002-7.145 0-10.717 0-.449 0-.735-.175-.855-.518-.179-.51.14-1.013.684-1.075.052-.005.106-.005.16-.005 3.591 0 7.184-.003 10.776.001 1.562.003 2.842 1.057 3.161 2.584.017.083.04.165.06.247zm-4.676 4.321a2.352 2.352 0 0 1-1.948 2.22c-1.113.21-2.178-.343-2.628-1.378-.057-.132-.123-.174-.263-.172-.472.009-.945.01-1.417 0-.145-.003-.204.05-.26.177-.474 1.083-1.593 1.621-2.767 1.34a2.354 2.354 0 0 1-1.807-2.431c.065-1.269 1.027-2.197 2.343-2.262.95-.047 1.837.51 2.232 1.417.058.135.129.17.264.168.473-.007.945-.008 1.417.001.143.003.202-.047.26-.175a2.38 2.38 0 0 1 2.73-1.356c1.138.279 1.908 1.303 1.844 2.451zm-7.901-.117a.79.79 0 0 0-.792-.801.79.79 0 0 0-.804.789c-.008.436.35.8.791.802a.796.796 0 0 0 .805-.79zm6.308.006a.792.792 0 0 0-.806-.807.79.79 0 0 0-.79.804c0 .436.363.79.806.787a.797.797 0 0 0 .79-.784z" mask="url(&quot;#tkc4b&quot;)"/><path fill="#fff" fill-opacity=".5" d="M18.778 18.637c-.645 1.465-1.307 2.923-1.95 4.39-.163.368-.405.575-.816.63-.864.117-1.411.765-1.414 1.63-.003.58-.003 1.159 0 1.737.002.71.48 1.21 1.183 1.245.485.024.827.374.811.83-.015.448-.372.77-.85.767-1.306-.009-2.462-.99-2.698-2.287-.012-.064-.03-.127-.044-.191v-2.476c.032-.149.055-.3.096-.445.326-1.158 1.06-1.928 2.207-2.291.128-.04.198-.1.251-.22.586-1.326 1.177-2.648 1.765-3.971.598-1.345 1.612-2.167 3.063-2.435.227-.042.463-.055.695-.056 1.177-.006 2.355-.016 3.533 0 1.597.023 2.804.731 3.578 2.135.368.669.706 1.356 1.045 2.04.29.584-.134 1.22-.772 1.169-.302-.025-.517-.187-.655-.457-.319-.628-.641-1.255-.96-1.883-.48-.946-1.252-1.414-2.312-1.41-.364.002-.728 0-1.113 0v.234c0 .898.004 1.797-.002 2.695-.004.592-.52.96-1.067.778-.328-.11-.526-.398-.527-.788-.003-.892-.001-1.784-.001-2.676v-.214c-1.234-.14-2.422.098-3.046 1.52zm14.664 6.235v2.516c-.04.167-.074.336-.123.5-.347 1.16-1.444 1.979-2.64 1.978-.462 0-.815-.327-.83-.767-.014-.45.323-.803.792-.83.738-.041 1.202-.528 1.204-1.264.001-.566.002-1.132 0-1.697-.003-.984-.686-1.67-1.671-1.67-3.572-.002-7.145 0-10.717 0-.449 0-.735-.175-.855-.518-.179-.51.14-1.013.684-1.075.052-.005.106-.005.16-.005 3.591 0 7.184-.003 10.776.001 1.562.003 2.842 1.057 3.161 2.584.017.083.04.165.06.247zm-4.676 4.321a2.352 2.352 0 0 1-1.948 2.22c-1.113.21-2.178-.343-2.628-1.378-.057-.132-.123-.174-.263-.172-.472.009-.945.01-1.417 0-.145-.003-.204.05-.26.177-.474 1.083-1.593 1.621-2.767 1.34a2.354 2.354 0 0 1-1.807-2.431c.065-1.269 1.027-2.197 2.343-2.262.95-.047 1.837.51 2.232 1.417.058.135.129.17.264.168.473-.007.945-.008 1.417.001.143.003.202-.047.26-.175a2.38 2.38 0 0 1 2.73-1.356c1.138.279 1.908 1.303 1.844 2.451zm-7.901-.117a.79.79 0 0 0-.792-.801.79.79 0 0 0-.804.789c-.008.436.35.8.791.802a.796.796 0 0 0 .805-.79zm6.308.006a.792.792 0 0 0-.806-.807.79.79 0 0 0-.79.804c0 .436.363.79.806.787a.797.797 0 0 0 .79-.784z"/></g><path fill="#191919" d="M18.778 18.637c-.645 1.465-1.307 2.923-1.95 4.39-.163.368-.405.575-.816.63-.864.117-1.411.765-1.414 1.63-.003.58-.003 1.159 0 1.737.002.71.48 1.21 1.183 1.245.485.024.827.374.811.83-.015.448-.372.77-.85.767-1.306-.009-2.462-.99-2.698-2.287-.012-.064-.03-.127-.044-.191v-2.476c.032-.149.055-.3.096-.445.326-1.158 1.06-1.928 2.207-2.291.128-.04.198-.1.251-.22.586-1.326 1.177-2.648 1.765-3.971.598-1.345 1.612-2.167 3.063-2.435.227-.042.463-.055.695-.056 1.177-.006 2.355-.016 3.533 0 1.597.023 2.804.731 3.578 2.135.368.669.706 1.356 1.045 2.04.29.584-.134 1.22-.772 1.169-.302-.025-.517-.187-.655-.457-.319-.628-.641-1.255-.96-1.883-.48-.946-1.252-1.414-2.312-1.41-.364.002-.728 0-1.113 0v.234c0 .898.004 1.797-.002 2.695-.004.592-.52.96-1.067.778-.328-.11-.526-.398-.527-.788-.003-.892-.001-1.784-.001-2.676v-.214c-1.234-.14-2.422.098-3.046 1.52zm14.664 6.235v2.516c-.04.167-.074.336-.123.5-.347 1.16-1.444 1.979-2.64 1.978-.462 0-.815-.327-.83-.767-.014-.45.323-.803.792-.83.738-.041 1.202-.528 1.204-1.264.001-.566.002-1.132 0-1.697-.003-.984-.686-1.67-1.671-1.67-3.572-.002-7.145 0-10.717 0-.449 0-.735-.175-.855-.518-.179-.51.14-1.013.684-1.075.052-.005.106-.005.16-.005 3.591 0 7.184-.003 10.776.001 1.562.003 2.842 1.057 3.161 2.584.017.083.04.165.06.247zm-4.676 4.321a2.352 2.352 0 0 1-1.948 2.22c-1.113.21-2.178-.343-2.628-1.378-.057-.132-.123-.174-.263-.172-.472.009-.945.01-1.417 0-.145-.003-.204.05-.26.177-.474 1.083-1.593 1.621-2.767 1.34a2.354 2.354 0 0 1-1.807-2.431c.065-1.269 1.027-2.197 2.343-2.262.95-.047 1.837.51 2.232 1.417.058.135.129.17.264.168.473-.007.945-.008 1.417.001.143.003.202-.047.26-.175a2.38 2.38 0 0 1 2.73-1.356c1.138.279 1.908 1.303 1.844 2.451zm-7.901-.117a.79.79 0 0 0-.792-.801.79.79 0 0 0-.804.789c-.008.436.35.8.791.802a.796.796 0 0 0 .805-.79zm6.308.006a.792.792 0 0 0-.806-.807.79.79 0 0 0-.79.804c0 .436.363.79.806.787a.797.797 0 0 0 .79-.784z"/></g></g></svg>