<svg xmlns="http://www.w3.org/2000/svg" width="46" height="46" viewBox="0 0 46 46"><defs><mask id="vmnob" width="2" height="2" x="-1" y="-1"><path fill="#fff" d="M12 12h21v22H12z"/><path d="M26.37 21.697c.112.607-.011 1.18-.337 1.704l-5.505 8.856c-.274.44-.678.683-1.17.8h-.475c-.049-.016-.097-.034-.147-.047-.868-.217-1.404-1.001-1.265-1.872.197-1.229.406-2.455.608-3.682.063-.38.122-.76.185-1.16h-.242c-.968 0-1.937.009-2.905-.003a2.511 2.511 0 0 1-2.381-1.832c-.04-.138-.067-.278-.1-.418v-.514c.129-.355.2-.746.394-1.06 1.769-2.86 3.566-5.702 5.338-8.56.33-.533.713-.955 1.345-1.093h.514c.022.012.043.03.066.035.984.248 1.475 1.023 1.302 2.022-.264 1.53-.513 3.063-.768 4.595-.007.038-.006.078-.01.146h.214c.948 0 1.897-.004 2.846.001 1.256.008 2.268.848 2.494 2.082zm-2.516-.5c-1.31-.004-2.622 0-3.933-.003-.565-.002-.912-.428-.82-.981.31-1.85.618-3.7.922-5.55.014-.082-.015-.17-.024-.254-.06.06-.136.11-.18.18-1.801 2.871-3.598 5.746-5.4 8.617-.207.328-.276.653-.087 1.004.194.361.513.508.915.506.645-.003 1.291 0 1.937 0 .652 0 1.304-.002 1.956 0 .578.001.922.42.828.99a1626.95 1626.95 0 0 0-.916 5.57c-.01.06.029.126.046.19.045-.041.093-.08.135-.124.026-.028.042-.067.063-.1 1.79-2.879 3.58-5.757 5.366-8.639a.997.997 0 0 0 .15-.4c.06-.569-.357-1.005-.958-1.006zm9.024-2.728v.435c-.09.503-.388.896-.678 1.297-1.151 1.588-2.297 3.18-3.442 4.773-.214.298-.483.47-.857.394-.573-.116-.823-.746-.486-1.232.345-.497.705-.984 1.06-1.475.892-1.239 1.786-2.477 2.677-3.717.073-.101.198-.196.113-.348-.083-.15-.231-.127-.368-.127H28.25c-.605 0-.941-.41-.843-1.01.116-.713.225-1.427.306-2.159-.04.053-.084.105-.122.16-.574.804-1.144 1.61-1.72 2.411-.291.404-.79.479-1.159.186-.341-.272-.393-.726-.119-1.114.593-.837 1.191-1.672 1.787-2.508.195-.274.402-.54.582-.822.254-.4.578-.695 1.053-.797h.395l.22.076a1.3 1.3 0 0 1 .876 1.408c-.062.437-.137.871-.206 1.307l-.2 1.28h.216c.587 0 1.173-.006 1.76.004a1.81 1.81 0 0 1 1.763 1.448c.01.044.026.087.039.13z"/></mask><filter id="vmnoa" width="41" height="43" x="2" y="2" filterUnits="userSpaceOnUse"><feOffset dy="1" in="SourceGraphic" result="FeOffset1089Out"/><feGaussianBlur in="FeOffset1089Out" result="FeGaussianBlur1090Out" stdDeviation="0 0"/></filter></defs><g><g><path fill="#ffd87a" d="M23 0c12.703 0 23 10.297 23 23S35.703 46 23 46C10.298 46 0 35.703 0 23S10.298 0 23 0z"/></g><g><g filter="url(#vmnoa)"><path fill="none" d="M26.37 21.697c.112.607-.011 1.18-.337 1.704l-5.505 8.856c-.274.44-.678.683-1.17.8h-.475c-.049-.016-.097-.034-.147-.047-.868-.217-1.404-1.001-1.265-1.872.197-1.229.406-2.455.608-3.682.063-.38.122-.76.185-1.16h-.242c-.968 0-1.937.009-2.905-.003a2.511 2.511 0 0 1-2.381-1.832c-.04-.138-.067-.278-.1-.418v-.514c.129-.355.2-.746.394-1.06 1.769-2.86 3.566-5.702 5.338-8.56.33-.533.713-.955 1.345-1.093h.514c.022.012.043.03.066.035.984.248 1.475 1.023 1.302 2.022-.264 1.53-.513 3.063-.768 4.595-.007.038-.006.078-.01.146h.214c.948 0 1.897-.004 2.846.001 1.256.008 2.268.848 2.494 2.082zm-2.516-.5c-1.31-.004-2.622 0-3.933-.003-.565-.002-.912-.428-.82-.981.31-1.85.618-3.7.922-5.55.014-.082-.015-.17-.024-.254-.06.06-.136.11-.18.18-1.801 2.871-3.598 5.746-5.4 8.617-.207.328-.276.653-.087 1.004.194.361.513.508.915.506.645-.003 1.291 0 1.937 0 .652 0 1.304-.002 1.956 0 .578.001.922.42.828.99a1626.95 1626.95 0 0 0-.916 5.57c-.01.06.029.126.046.19.045-.041.093-.08.135-.124.026-.028.042-.067.063-.1 1.79-2.879 3.58-5.757 5.366-8.639a.997.997 0 0 0 .15-.4c.06-.569-.357-1.005-.958-1.006zm9.024-2.728v.435c-.09.503-.388.896-.678 1.297-1.151 1.588-2.297 3.18-3.442 4.773-.214.298-.483.47-.857.394-.573-.116-.823-.746-.486-1.232.345-.497.705-.984 1.06-1.475.892-1.239 1.786-2.477 2.677-3.717.073-.101.198-.196.113-.348-.083-.15-.231-.127-.368-.127H28.25c-.605 0-.941-.41-.843-1.01.116-.713.225-1.427.306-2.159-.04.053-.084.105-.122.16-.574.804-1.144 1.61-1.72 2.411-.291.404-.79.479-1.159.186-.341-.272-.393-.726-.119-1.114.593-.837 1.191-1.672 1.787-2.508.195-.274.402-.54.582-.822.254-.4.578-.695 1.053-.797h.395l.22.076a1.3 1.3 0 0 1 .876 1.408c-.062.437-.137.871-.206 1.307l-.2 1.28h.216c.587 0 1.173-.006 1.76.004a1.81 1.81 0 0 1 1.763 1.448c.01.044.026.087.039.13z" mask="url(&quot;#vmnob&quot;)"/><path fill="#fff" fill-opacity=".5" d="M26.37 21.697c.112.607-.011 1.18-.337 1.704l-5.505 8.856c-.274.44-.678.683-1.17.8h-.475c-.049-.016-.097-.034-.147-.047-.868-.217-1.404-1.001-1.265-1.872.197-1.229.406-2.455.608-3.682.063-.38.122-.76.185-1.16h-.242c-.968 0-1.937.009-2.905-.003a2.511 2.511 0 0 1-2.381-1.832c-.04-.138-.067-.278-.1-.418v-.514c.129-.355.2-.746.394-1.06 1.769-2.86 3.566-5.702 5.338-8.56.33-.533.713-.955 1.345-1.093h.514c.022.012.043.03.066.035.984.248 1.475 1.023 1.302 2.022-.264 1.53-.513 3.063-.768 4.595-.007.038-.006.078-.01.146h.214c.948 0 1.897-.004 2.846.001 1.256.008 2.268.848 2.494 2.082zm-2.516-.5c-1.31-.004-2.622 0-3.933-.003-.565-.002-.912-.428-.82-.981.31-1.85.618-3.7.922-5.55.014-.082-.015-.17-.024-.254-.06.06-.136.11-.18.18-1.801 2.871-3.598 5.746-5.4 8.617-.207.328-.276.653-.087 1.004.194.361.513.508.915.506.645-.003 1.291 0 1.937 0 .652 0 1.304-.002 1.956 0 .578.001.922.42.828.99a1626.95 1626.95 0 0 0-.916 5.57c-.01.06.029.126.046.19.045-.041.093-.08.135-.124.026-.028.042-.067.063-.1 1.79-2.879 3.58-5.757 5.366-8.639a.997.997 0 0 0 .15-.4c.06-.569-.357-1.005-.958-1.006zm9.024-2.728v.435c-.09.503-.388.896-.678 1.297-1.151 1.588-2.297 3.18-3.442 4.773-.214.298-.483.47-.857.394-.573-.116-.823-.746-.486-1.232.345-.497.705-.984 1.06-1.475.892-1.239 1.786-2.477 2.677-3.717.073-.101.198-.196.113-.348-.083-.15-.231-.127-.368-.127H28.25c-.605 0-.941-.41-.843-1.01.116-.713.225-1.427.306-2.159-.04.053-.084.105-.122.16-.574.804-1.144 1.61-1.72 2.411-.291.404-.79.479-1.159.186-.341-.272-.393-.726-.119-1.114.593-.837 1.191-1.672 1.787-2.508.195-.274.402-.54.582-.822.254-.4.578-.695 1.053-.797h.395l.22.076a1.3 1.3 0 0 1 .876 1.408c-.062.437-.137.871-.206 1.307l-.2 1.28h.216c.587 0 1.173-.006 1.76.004a1.81 1.81 0 0 1 1.763 1.448c.01.044.026.087.039.13z"/></g><path fill="#191919" d="M26.37 21.697c.112.607-.011 1.18-.337 1.704l-5.505 8.856c-.274.44-.678.683-1.17.8h-.475c-.049-.016-.097-.034-.147-.047-.868-.217-1.404-1.001-1.265-1.872.197-1.229.406-2.455.608-3.682.063-.38.122-.76.185-1.16h-.242c-.968 0-1.937.009-2.905-.003a2.511 2.511 0 0 1-2.381-1.832c-.04-.138-.067-.278-.1-.418v-.514c.129-.355.2-.746.394-1.06 1.769-2.86 3.566-5.702 5.338-8.56.33-.533.713-.955 1.345-1.093h.514c.022.012.043.03.066.035.984.248 1.475 1.023 1.302 2.022-.264 1.53-.513 3.063-.768 4.595-.007.038-.006.078-.01.146h.214c.948 0 1.897-.004 2.846.001 1.256.008 2.268.848 2.494 2.082zm-2.516-.5c-1.31-.004-2.622 0-3.933-.003-.565-.002-.912-.428-.82-.981.31-1.85.618-3.7.922-5.55.014-.082-.015-.17-.024-.254-.06.06-.136.11-.18.18-1.801 2.871-3.598 5.746-5.4 8.617-.207.328-.276.653-.087 1.004.194.361.513.508.915.506.645-.003 1.291 0 1.937 0 .652 0 1.304-.002 1.956 0 .578.001.922.42.828.99a1626.95 1626.95 0 0 0-.916 5.57c-.01.06.029.126.046.19.045-.041.093-.08.135-.124.026-.028.042-.067.063-.1 1.79-2.879 3.58-5.757 5.366-8.639a.997.997 0 0 0 .15-.4c.06-.569-.357-1.005-.958-1.006zm9.024-2.728v.435c-.09.503-.388.896-.678 1.297-1.151 1.588-2.297 3.18-3.442 4.773-.214.298-.483.47-.857.394-.573-.116-.823-.746-.486-1.232.345-.497.705-.984 1.06-1.475.892-1.239 1.786-2.477 2.677-3.717.073-.101.198-.196.113-.348-.083-.15-.231-.127-.368-.127H28.25c-.605 0-.941-.41-.843-1.01.116-.713.225-1.427.306-2.159-.04.053-.084.105-.122.16-.574.804-1.144 1.61-1.72 2.411-.291.404-.79.479-1.159.186-.341-.272-.393-.726-.119-1.114.593-.837 1.191-1.672 1.787-2.508.195-.274.402-.54.582-.822.254-.4.578-.695 1.053-.797h.395l.22.076a1.3 1.3 0 0 1 .876 1.408c-.062.437-.137.871-.206 1.307l-.2 1.28h.216c.587 0 1.173-.006 1.76.004a1.81 1.81 0 0 1 1.763 1.448c.01.044.026.087.039.13z"/></g></g></svg>