<svg xmlns="http://www.w3.org/2000/svg" width="46" height="46" viewBox="0 0 46 46"><defs><mask id="7znkb" width="2" height="2" x="-1" y="-1"><path fill="#fff" d="M13 12h21v21H13z"/><path d="M33.213 19.577v6.79c-.014.043-.032.084-.041.127-.229 1.124-1.222 1.946-2.327 1.926a.791.791 0 0 1-.79-.752.792.792 0 0 1 .735-.825c.58-.046.844-.332.844-.918V22.49v-.23h-.212c-.191 0-.382.004-.572 0-.451-.009-.794-.35-.795-.786a.787.787 0 0 1 .79-.79c.26-.006.52-.002.789-.002 0-.272.002-.515 0-.758-.006-.485-.336-.817-.82-.82-.447-.004-.895-.001-1.342-.001h-.669v12.318c.273 0 .535-.006.797 0a.787.787 0 0 1 .282 1.517L29.74 33H13.632A.922.922 0 0 1 13 32.37v-.316c.16-.474.495-.668.984-.634.194.013.39.002.595.002v-.28-14.364c.002-1.767 1.076-3.252 2.753-3.8.26-.084.533-.127.8-.19h7.106c.037.012.073.03.11.035 1.127.155 2.026.695 2.696 1.61.567.772.784 1.65.748 2.598-.006.161 0 .323 0 .495.71 0 1.393-.01 2.075.002.77.013 1.39.337 1.867.943.258.328.374.715.479 1.107zm-6 11.626l-.001-14.387c0-1.42-1.03-2.449-2.453-2.45H18.62c-1.436 0-2.462 1.026-2.463 2.46V31.413h11.054v-.21zm-1.58-12.869c.002.52.003 1.04 0 1.558a2.37 2.37 0 0 1-2.374 2.369c-1.053.005-2.105.006-3.157 0a2.37 2.37 0 0 1-2.364-2.378c-.003-.52-.003-1.04 0-1.559a2.371 2.371 0 0 1 2.384-2.378c.52-.003 1.039 0 1.558 0 .52 0 1.04-.002 1.559 0a2.37 2.37 0 0 1 2.394 2.388zm-1.58.02c-.003-.496-.334-.827-.83-.829-1.025-.002-2.05-.002-3.076 0-.496.002-.827.333-.83.829-.003.493-.002.986 0 1.479.002.52.328.848.85.85h1.518c.512 0 1.025.002 1.538 0 .495-.003.827-.334.83-.83.003-.5.003-.999 0-1.499zm-.056 8.672c.27 1.359-.467 2.578-1.739 2.899-1.497.377-2.947-.764-2.94-2.449.015-.748.325-1.54.802-2.262.3-.453.647-.88 1.006-1.287a.735.735 0 0 1 1.094-.027c.862.886 1.531 1.89 1.777 3.126zm-1.531.431c-.083-.65-.396-1.198-.782-1.752-.368.538-.672 1.063-.771 1.683-.052.324 0 .616.261.842.249.215.597.25.883.095.305-.164.459-.478.409-.868z"/></mask><filter id="7znka" width="41" height="42" x="3" y="2" filterUnits="userSpaceOnUse"><feOffset dy="1" in="SourceGraphic" result="FeOffset1064Out"/><feGaussianBlur in="FeOffset1064Out" result="FeGaussianBlur1065Out" stdDeviation="0 0"/></filter></defs><g><g><path fill="#ffd87a" d="M23 0c12.702 0 23 10.297 23 23S35.703 46 23 46 0 35.703 0 23 10.297 0 23 0z"/></g><g><g filter="url(#7znka)"><path fill="none" d="M33.213 19.577v6.79c-.014.043-.032.084-.041.127-.229 1.124-1.222 1.946-2.327 1.926a.791.791 0 0 1-.79-.752.792.792 0 0 1 .735-.825c.58-.046.844-.332.844-.918V22.49v-.23h-.212c-.191 0-.382.004-.572 0-.451-.009-.794-.35-.795-.786a.787.787 0 0 1 .79-.79c.26-.006.52-.002.789-.002 0-.272.002-.515 0-.758-.006-.485-.336-.817-.82-.82-.447-.004-.895-.001-1.342-.001h-.669v12.318c.273 0 .535-.006.797 0a.787.787 0 0 1 .282 1.517L29.74 33H13.632A.922.922 0 0 1 13 32.37v-.316c.16-.474.495-.668.984-.634.194.013.39.002.595.002v-.28-14.364c.002-1.767 1.076-3.252 2.753-3.8.26-.084.533-.127.8-.19h7.106c.037.012.073.03.11.035 1.127.155 2.026.695 2.696 1.61.567.772.784 1.65.748 2.598-.006.161 0 .323 0 .495.71 0 1.393-.01 2.075.002.77.013 1.39.337 1.867.943.258.328.374.715.479 1.107zm-6 11.626l-.001-14.387c0-1.42-1.03-2.449-2.453-2.45H18.62c-1.436 0-2.462 1.026-2.463 2.46V31.413h11.054v-.21zm-1.58-12.869c.002.52.003 1.04 0 1.558a2.37 2.37 0 0 1-2.374 2.369c-1.053.005-2.105.006-3.157 0a2.37 2.37 0 0 1-2.364-2.378c-.003-.52-.003-1.04 0-1.559a2.371 2.371 0 0 1 2.384-2.378c.52-.003 1.039 0 1.558 0 .52 0 1.04-.002 1.559 0a2.37 2.37 0 0 1 2.394 2.388zm-1.58.02c-.003-.496-.334-.827-.83-.829-1.025-.002-2.05-.002-3.076 0-.496.002-.827.333-.83.829-.003.493-.002.986 0 1.479.002.52.328.848.85.85h1.518c.512 0 1.025.002 1.538 0 .495-.003.827-.334.83-.83.003-.5.003-.999 0-1.499zm-.056 8.672c.27 1.359-.467 2.578-1.739 2.899-1.497.377-2.947-.764-2.94-2.449.015-.748.325-1.54.802-2.262.3-.453.647-.88 1.006-1.287a.735.735 0 0 1 1.094-.027c.862.886 1.531 1.89 1.777 3.126zm-1.531.431c-.083-.65-.396-1.198-.782-1.752-.368.538-.672 1.063-.771 1.683-.052.324 0 .616.261.842.249.215.597.25.883.095.305-.164.459-.478.409-.868z" mask="url(&quot;#7znkb&quot;)"/><path fill="#fff" fill-opacity=".5" d="M33.213 19.577v6.79c-.014.043-.032.084-.041.127-.229 1.124-1.222 1.946-2.327 1.926a.791.791 0 0 1-.79-.752.792.792 0 0 1 .735-.825c.58-.046.844-.332.844-.918V22.49v-.23h-.212c-.191 0-.382.004-.572 0-.451-.009-.794-.35-.795-.786a.787.787 0 0 1 .79-.79c.26-.006.52-.002.789-.002 0-.272.002-.515 0-.758-.006-.485-.336-.817-.82-.82-.447-.004-.895-.001-1.342-.001h-.669v12.318c.273 0 .535-.006.797 0a.787.787 0 0 1 .282 1.517L29.74 33H13.632A.922.922 0 0 1 13 32.37v-.316c.16-.474.495-.668.984-.634.194.013.39.002.595.002v-.28-14.364c.002-1.767 1.076-3.252 2.753-3.8.26-.084.533-.127.8-.19h7.106c.037.012.073.03.11.035 1.127.155 2.026.695 2.696 1.61.567.772.784 1.65.748 2.598-.006.161 0 .323 0 .495.71 0 1.393-.01 2.075.002.77.013 1.39.337 1.867.943.258.328.374.715.479 1.107zm-6 11.626l-.001-14.387c0-1.42-1.03-2.449-2.453-2.45H18.62c-1.436 0-2.462 1.026-2.463 2.46V31.413h11.054v-.21zm-1.58-12.869c.002.52.003 1.04 0 1.558a2.37 2.37 0 0 1-2.374 2.369c-1.053.005-2.105.006-3.157 0a2.37 2.37 0 0 1-2.364-2.378c-.003-.52-.003-1.04 0-1.559a2.371 2.371 0 0 1 2.384-2.378c.52-.003 1.039 0 1.558 0 .52 0 1.04-.002 1.559 0a2.37 2.37 0 0 1 2.394 2.388zm-1.58.02c-.003-.496-.334-.827-.83-.829-1.025-.002-2.05-.002-3.076 0-.496.002-.827.333-.83.829-.003.493-.002.986 0 1.479.002.52.328.848.85.85h1.518c.512 0 1.025.002 1.538 0 .495-.003.827-.334.83-.83.003-.5.003-.999 0-1.499zm-.056 8.672c.27 1.359-.467 2.578-1.739 2.899-1.497.377-2.947-.764-2.94-2.449.015-.748.325-1.54.802-2.262.3-.453.647-.88 1.006-1.287a.735.735 0 0 1 1.094-.027c.862.886 1.531 1.89 1.777 3.126zm-1.531.431c-.083-.65-.396-1.198-.782-1.752-.368.538-.672 1.063-.771 1.683-.052.324 0 .616.261.842.249.215.597.25.883.095.305-.164.459-.478.409-.868z"/></g><path fill="#191919" d="M33.213 19.577v6.79c-.014.043-.032.084-.041.127-.229 1.124-1.222 1.946-2.327 1.926a.791.791 0 0 1-.79-.752.792.792 0 0 1 .735-.825c.58-.046.844-.332.844-.918V22.49v-.23h-.212c-.191 0-.382.004-.572 0-.451-.009-.794-.35-.795-.786a.787.787 0 0 1 .79-.79c.26-.006.52-.002.789-.002 0-.272.002-.515 0-.758-.006-.485-.336-.817-.82-.82-.447-.004-.895-.001-1.342-.001h-.669v12.318c.273 0 .535-.006.797 0a.787.787 0 0 1 .282 1.517L29.74 33H13.632A.922.922 0 0 1 13 32.37v-.316c.16-.474.495-.668.984-.634.194.013.39.002.595.002v-.28-14.364c.002-1.767 1.076-3.252 2.753-3.8.26-.084.533-.127.8-.19h7.106c.037.012.073.03.11.035 1.127.155 2.026.695 2.696 1.61.567.772.784 1.65.748 2.598-.006.161 0 .323 0 .495.71 0 1.393-.01 2.075.002.77.013 1.39.337 1.867.943.258.328.374.715.479 1.107zm-6 11.626l-.001-14.387c0-1.42-1.03-2.449-2.453-2.45H18.62c-1.436 0-2.462 1.026-2.463 2.46V31.413h11.054v-.21zm-1.58-12.869c.002.52.003 1.04 0 1.558a2.37 2.37 0 0 1-2.374 2.369c-1.053.005-2.105.006-3.157 0a2.37 2.37 0 0 1-2.364-2.378c-.003-.52-.003-1.04 0-1.559a2.371 2.371 0 0 1 2.384-2.378c.52-.003 1.039 0 1.558 0 .52 0 1.04-.002 1.559 0a2.37 2.37 0 0 1 2.394 2.388zm-1.58.02c-.003-.496-.334-.827-.83-.829-1.025-.002-2.05-.002-3.076 0-.496.002-.827.333-.83.829-.003.493-.002.986 0 1.479.002.52.328.848.85.85h1.518c.512 0 1.025.002 1.538 0 .495-.003.827-.334.83-.83.003-.5.003-.999 0-1.499zm-.056 8.672c.27 1.359-.467 2.578-1.739 2.899-1.497.377-2.947-.764-2.94-2.449.015-.748.325-1.54.802-2.262.3-.453.647-.88 1.006-1.287a.735.735 0 0 1 1.094-.027c.862.886 1.531 1.89 1.777 3.126zm-1.531.431c-.083-.65-.396-1.198-.782-1.752-.368.538-.672 1.063-.771 1.683-.052.324 0 .616.261.842.249.215.597.25.883.095.305-.164.459-.478.409-.868z"/></g></g></svg>