<svg xmlns="http://www.w3.org/2000/svg" width="48" height="48" viewBox="0 0 48 48"><g><g><path fill="#fd3a3e" d="M47.084 10.65V22.77c-.028.1-.07.197-.082.298-.622 5.357-5.203 9.53-10.602 9.55-8.302.036-16.604.03-24.906.004-4.776-.016-8.975-3.238-10.29-7.83-.19-.663-.295-1.349-.44-2.022V10.65c.028-.1.067-.199.082-.301.666-4.378 3.069-7.37 7.205-8.933.82-.31 1.715-.424 2.574-.628h26.598c.1.028.197.07.299.082 4.546.532 8.313 3.938 9.296 8.414.1.453.178.91.266 1.366zm-3.622.994a7.22 7.22 0 0 0-7.256-7.235c-8.188-.01-16.375-.01-24.562 0-4.057.005-7.248 3.215-7.259 7.278-.009 3.348-.007 6.694.004 10.043.002.479.04.967.136 1.435.71 3.466 3.62 5.839 7.162 5.847 4.071.007 8.142.001 12.213.001 4.101 0 8.203.01 12.304-.002 4.038-.013 7.242-3.209 7.258-7.235.014-3.377.014-6.755 0-10.132zm3.622 23.16v.723c-.243.373-.43.804-.738 1.113-2.098 2.1-4.649 3.213-7.616 3.22-9.87.023-19.74.013-29.61.006a10.298 10.298 0 0 1-5.647-1.652C2.39 37.518 1.282 36.81.764 35.527v-.723c.17-.298.292-.64.517-.886.71-.78 1.863-.757 2.646.05.968.995 2.096 1.722 3.451 2.038.61.143 1.25.234 1.875.234 9.78.016 19.561.013 29.342.01 1.99 0 3.773-.637 5.11-2.114.992-1.094 2.807-1.1 3.38.668zm-.486 6.383c.21.242.327.567.486.854v.724c-.306.436-.556.93-.928 1.3a10.124 10.124 0 0 1-4.43 2.58c-.705.198-1.433.311-2.15.462H8.272c-.1-.026-.2-.066-.301-.078-1.608-.181-3.114-.681-4.468-1.56-1.091-.707-2.215-1.41-2.74-2.704v-.724c.516-1.69 2.333-1.826 3.412-.636 1.337 1.474 3.131 2.084 5.122 2.084 9.75 0 19.5.002 29.251-.006.495 0 .996-.045 1.482-.134 1.529-.283 2.808-1.031 3.89-2.144.795-.817 1.975-.826 2.677-.018zM31.16 16.751c-.019 4.139-3.143 7.252-7.258 7.236-4.13-.018-7.223-3.137-7.215-7.277.007-3.94 3.307-7.17 7.302-7.147 3.926.023 7.189 3.294 7.171 7.188zm-3.62.098c.004-2.067-1.575-3.656-3.625-3.65-2.038.006-3.596 1.569-3.609 3.62-.012 1.953 1.63 3.593 3.602 3.599 1.977.007 3.628-1.616 3.632-3.569zM8.102 13.263c-.047-1.018.667-1.8 1.721-1.887.913-.075 1.368-.522 1.438-1.414.085-1.082.875-1.807 1.907-1.746 1.037.061 1.726.848 1.705 1.947-.051 2.612-2.28 4.812-4.888 4.825-1.059.005-1.836-.708-1.883-1.725zm6.774 9.956c.008 1.13-.697 1.947-1.722 1.991-1.035.047-1.818-.703-1.896-1.818-.055-.788-.568-1.293-1.368-1.346-1.041-.068-1.81-.833-1.795-1.782.016-1.044.77-1.797 1.845-1.84 2.481-.098 4.92 2.27 4.936 4.795zm25.059-2.868c.035 1.035-.707 1.795-1.838 1.879-.76.055-1.272.572-1.326 1.339-.076 1.078-.84 1.852-1.802 1.823-1.065-.031-1.796-.797-1.823-1.91-.06-2.47 2.3-4.86 4.815-4.873 1.123-.004 1.938.715 1.974 1.742zm-6.79-10.41c.027-1.117.753-1.88 1.82-1.913.963-.03 1.73.741 1.806 1.818.056.802.557 1.281 1.412 1.348 1.27.1 2.033 1.212 1.647 2.403-.254.783-.943 1.221-1.911 1.213-2.483-.025-4.83-2.42-4.773-4.87z"/></g></g></svg>