<svg xmlns="http://www.w3.org/2000/svg" width="44" height="48" viewBox="0 0 44 48"><g><g><path fill="#fd3a3e" d="M36.535 27.863c.007 3.558.076 7.117-.022 10.67-.118 4.287-3.561 7.943-7.813 8.476-.101.013-.198.057-.297.085H8.509c-.084-.027-.166-.068-.252-.079-4.501-.592-7.874-4.383-7.882-8.928C.36 28.654.361 19.22.375 9.788c.006-4.055 2.7-7.567 6.602-8.663.503-.14 1.02-.23 1.532-.343H21.44c.104.053.206.11.312.159a1.802 1.802 0 1 1-.692 3.453c-.798.017-1.597.005-2.396.005-3.029 0-6.058-.001-9.087.001-3.224.002-5.588 2.369-5.589 5.597-.002 9.3-.002 18.602 0 27.901.001 3.197 2.373 5.574 5.566 5.578 5.937.003 11.875.003 17.812-.003 3.19 0 5.555-2.38 5.558-5.583.003-3.302 0-6.601 0-9.903 0-.743.313-1.318.97-1.665.64-.34 1.282-.29 1.88.124.49.34.76.825.76 1.417zm6.974-16.115c-.979 4.712-3.58 8.211-7.829 10.48-.636.34-1.258.343-1.894-.002-4.729-2.565-7.429-6.516-8.003-11.865-.15-1.401-.076-2.828-.085-4.244-.003-.506.244-.924.602-1.273 2.09-2.04 4.446-3.588 7.415-3.997.04-.008.076-.043.114-.065h1.808c.838.223 1.7.382 2.508.686 1.947.733 3.613 1.918 5.038 3.42.29.306.552.782.561 1.184.041 1.893.154 3.798-.236 5.676zm-3.671-5.073c-.79-.523-1.543-1.11-2.37-1.56-1.105-.603-2.306-.862-3.578-.638-1.467.257-2.688 1-3.864 1.867-.53.39-.84.805-.73 1.495.06.366.005.751.013 1.129.071 3.512 1.406 6.457 4.117 8.688 1.544 1.271 1.074 1.273 2.634-.017 2.863-2.367 4.144-5.501 4.099-9.196 0-.346-.021-.695.006-1.039.025-.316-.06-.553-.327-.73zM15.454 35.793c-.8-.808-.821-1.921-.069-2.655.739-.723 1.825-.688 2.625.096.732.717 1.453 1.444 2.179 2.166.01.01.025.017.09.056.129-.123.25-.232.364-.348 1.843-1.842 3.684-3.687 5.53-5.528.521-.518 1.144-.713 1.86-.489.676.213 1.094.686 1.236 1.373.144.694-.118 1.263-.61 1.752-1.856 1.85-3.707 3.707-5.56 5.56-.49.49-.975.986-1.472 1.468-.846.825-1.887.829-2.722.003a492.161 492.161 0 0 1-3.45-3.454zm-5.909-20.54c-1.133-.004-1.943-.767-1.939-1.817.004-1.048.814-1.798 1.955-1.8 2.318-.002 4.636-.002 6.954 0 1.134.003 1.943.765 1.94 1.816-.005 1.048-.814 1.798-1.956 1.802-1.159.002-2.318 0-3.477 0-1.159 0-2.318.003-3.477-.002zM7.606 20.68c0-1.05.81-1.805 1.948-1.807 2.318-.004 4.636-.004 6.954 0 1.137.002 1.946.758 1.946 1.808s-.81 1.805-1.948 1.809c-1.174.003-2.348 0-3.522 0-1.144 0-2.288.003-3.432 0-1.136-.004-1.947-.76-1.946-1.81z"/></g></g></svg>