<svg xmlns="http://www.w3.org/2000/svg" width="47" height="47" viewBox="0 0 47 47"><g><g><path fill="#fd3a3e" d="M46.97 14.763v23.55c-.027.084-.066.167-.08.254-.55 3.5-2.46 5.94-5.736 7.275-.74.302-1.555.42-2.336.624H8.746c-.084-.027-.166-.066-.252-.08-3.852-.64-6.37-2.82-7.553-6.537-.158-.497-.233-1.023-.347-1.535V14.763c.027-.086.067-.168.08-.255.628-4.54 4.385-7.884 8.94-7.892 9.446-.017 18.892-.015 28.337 0 4.094.006 7.628 2.745 8.704 6.697.13.477.211.966.315 1.45zm-3.623 1.146c0-3.326-2.343-5.674-5.664-5.676H23.828c-4.664 0-9.327-.001-13.99.002-3.26.001-5.62 2.364-5.62 5.628-.002 7.107-.002 14.217 0 21.325 0 3.294 2.352 5.652 5.64 5.654h27.846c3.289-.002 5.642-2.358 5.643-5.652V15.91zM7.502 2.21C7.353 1.413 7.795.591 8.557.25c.122-.055.247-.107.37-.16h4.348c.123.053.247.105.37.16.763.344 1.204 1.165 1.054 1.96-.158.84-.849 1.478-1.698 1.495-1.267.023-2.535.023-3.802 0-.848-.017-1.54-.657-1.697-1.495zm25.362 0c-.149-.796.293-1.618 1.055-1.96.122-.055.247-.107.37-.16h4.348c.123.053.247.105.37.16.763.344 1.204 1.165 1.054 1.96-.158.84-.849 1.478-1.697 1.495-1.267.023-2.536.023-3.803 0-.848-.017-1.54-.657-1.697-1.495zm3.596 24.529c-.07 6.393-5.036 11.786-11.427 12.409-.42.041-.842.062-1.263.092-6.498-.027-11.965-4.985-12.599-11.443a12.684 12.684 0 0 1 10.896-13.823 13.143 13.143 0 0 1 1.624-.11c1.07-.017 1.882.752 1.9 1.768.02 1.038-.773 1.823-1.87 1.849-4.022.1-7.38 2.581-8.577 6.339-1.71 5.37 1.947 11.05 7.533 11.7 5.384.627 10.055-3.442 10.161-8.85.023-1.15.773-1.948 1.825-1.94 1.07.005 1.81.833 1.797 2.009zm-10.867-2.012c.62 0 1.176-.004 1.732.002 1.096.008 1.899.788 1.89 1.827-.009 1.018-.807 1.787-1.88 1.793a245.75 245.75 0 0 1-3.486 0c-1.11-.009-1.87-.772-1.877-1.885a266.032 266.032 0 0 1 0-3.486c.008-1.07.782-1.868 1.8-1.873 1.02-.006 1.804.787 1.82 1.852.008.57.001 1.141.001 1.77z"/></g></g></svg>