<svg xmlns="http://www.w3.org/2000/svg" width="236" height="33" viewBox="0 0 236 33"><defs><linearGradient id="7ucpa" x1="0" x2="236" y1="16.57" y2="15.96" gradientUnits="userSpaceOnUse"><stop offset="0" stop-color="#3f3535"/><stop offset="1" stop-color="#e5001a"/></linearGradient></defs><g><g><path fill="url(#7ucpa)" d="M0 15.028c.587-2.044.885-4.237 1.815-6.103C4.905 2.72 10.197-.093 16.881.028c6.843.123 12.093 3.294 14.766 9.816 2.584 6.302 1.684 12.397-2.93 17.436-4.743 5.18-10.87 6.353-17.384 4.387-6.316-1.904-10.02-6.432-11.064-13.1C.209 18.182.09 17.81 0 17.43v-2.401zm30.7 1.161c-.046-8.076-6.13-14.14-14.173-14.126C8.355 2.078 2.27 8.171 2.322 16.288c.052 8.19 6.09 14.147 14.302 14.106 8.069-.039 14.123-6.15 14.077-14.205zm204.94 8.45c-1.635 5.382-4.493 7.554-10.082 7.821-4.215.201-8.12-.613-11.625-3.12-1.103-.789-1.517-1.54-.255-2.65.209.122.51.255.755.454 4.092 3.318 8.784 3.897 13.706 2.846 3.94-.842 5.887-4.052 4.87-7.512-.546-1.86-1.955-2.886-3.59-3.51-1.93-.735-3.95-1.22-5.93-1.822-1.6-.486-3.227-.906-4.792-1.491-3.076-1.153-5.082-3.253-5.178-6.75-.093-3.356 1.373-5.853 4.288-7.467 4.442-2.459 12.315-1.77 16.399 1.51-.24.498-.49 1.024-.792 1.655-.571-.3-1.079-.577-1.594-.836-3.787-1.905-7.725-2.33-11.764-1.047-2.57.818-4.156 2.95-4.25 5.379-.106 2.69 1.199 4.637 4.148 5.676 2.645.934 5.376 1.614 8.07 2.406.425.124.854.239 1.275.378 3.24 1.072 5.659 2.965 6.34 6.578v1.502zM66.63 32.047c-1.377.6-2.057-.213-2.757-1.121-6.433-8.355-12.88-16.697-19.327-25.04-.29-.376-.609-.731-1.226-1.47V32.14h-2.15V.384c1.158-.434 1.89-.024 2.622.933 6.435 8.415 12.916 16.793 19.387 25.18.314.406.653.793 1.32 1.042V.295h2.13v31.752zM199.984 21.11l7.566 10.806c-1.684.675-2.188.538-3.124-.792-2.005-2.848-4.027-5.685-6-8.556-.468-.683-.936-.96-1.804-.929-3.103.11-6.21.092-9.317.12-.531.004-1.063 0-1.745 0v10.413h-2.226V19.707c.636 0 1.211.006 1.786 0 4.091-.049 8.192.055 12.27-.203 3.2-.203 5.807-1.798 6.97-4.98 1.202-3.286.996-6.543-1.388-9.3-2.083-2.409-4.981-2.906-7.942-2.971-3.352-.073-6.707-.018-10.06-.018h-1.645V.453c.08-.069.153-.185.226-.185 4.68.02 9.391-.277 14.037.15 8.075.74 12.24 9.017 8.374 16.091-1.298 2.375-3.464 3.6-5.978 4.601zm-55.641-16.6l-1.29 1.33c-3.435-3.215-7.452-4.201-11.853-3.628-3.6.468-6.671 2.067-9.014 4.94-4.487 5.504-4.111 13.984.782 19.068 4.58 4.76 13.765 6.112 20.164.327l1.094 1.468c-4.674 5.892-16.263 5.945-22.498.103-6.536-6.124-6.558-17.521-.09-23.672 7.5-7.133 19.098-4.693 22.705.064zm32.944 27.573c-1.64.526-2.408-.027-3.053-1.499-3.837-8.762-7.785-17.475-11.697-26.204-.22-.488-.456-.97-.794-1.688l-4.3 9.608c-2.725 6.094-5.504 12.165-8.13 18.302-.646 1.509-1.453 1.964-3.06 1.493.207-.515.383-1.008.598-1.482 4.422-9.756 8.854-19.507 13.26-29.27.339-.75.697-1.39 1.596-1.122.577.172 1.377.433 1.586.887 4.632 10.096 9.197 20.226 13.772 30.348.08.174.13.363.222.627zM77.964 2.1V.32h20.22V2.1h-20.22zM98.308 16.86H77.993v-1.75h20.233l.082 1.75zm-.047 13.525v1.725H77.988v-1.725H98.26z"/></g></g></svg>