<svg xmlns="http://www.w3.org/2000/svg" width="47" height="47" viewBox="0 0 47 47"><g><g><path fill="#fd3a3e" d="M40.397 28.054c.028 3.69.023 7.38.002 11.069-.02 3.54-2.656 6.537-6.164 7.062-.085.013-.166.054-.249.083H7.044c-.083-.029-.163-.066-.248-.083-3.068-.57-5.042-2.357-5.936-5.34-.098-.325-.158-.664-.235-.996V27.372c.065-.29.128-.582.195-.871.739-3.168 3.645-5.534 6.903-5.54 8.524-.019 17.048-.02 25.572 0 3.868.01 7.073 3.223 7.102 7.093zm-3.609.414c0-2.385-1.51-3.898-3.89-3.898l-12.383-.001c-4.143 0-8.286-.001-12.43.001-2.318.001-3.842 1.53-3.843 3.854-.002 3.45-.002 6.9 0 10.35 0 2.354 1.518 3.877 3.866 3.877h24.813c2.347 0 3.866-1.524 3.867-3.877.002-3.435.002-6.87 0-10.306zM46.915 6.397v12.477l-.18.781c-.356 1.529-1.113 2.82-2.298 3.851-.823.717-1.901.676-2.589-.083-.68-.75-.63-1.851.163-2.583.9-.83 1.298-1.838 1.293-3.054-.016-3.435-.005-6.871-.006-10.306-.001-2.38-1.514-3.885-3.904-3.885H14.625c-2.353 0-3.873 1.518-3.874 3.868-.001 2.908.006 5.816-.003 8.723-.004 1.304-1.175 2.171-2.371 1.78-.704-.23-1.231-.875-1.234-1.62-.01-3.21-.082-6.422.026-9.627C7.28 3.38 9.957.555 13.259.064c.1-.015.196-.057.295-.086h26.941c.083.028.164.068.25.081a7.236 7.236 0 0 1 5.95 5.383c.08.317.146.637.22.955zM27.027 18.06c-2.984 0-5.43-2.449-5.427-5.434.004-2.983 2.456-5.422 5.445-5.415 2.964.007 5.398 2.445 5.404 5.41.005 2.988-2.437 5.437-5.422 5.439zm-.009-3.617c.992.002 1.81-.811 1.813-1.802a1.813 1.813 0 0 0-1.8-1.813 1.812 1.812 0 0 0-1.813 1.8 1.814 1.814 0 0 0 1.8 1.815zm-10.827 0a1.813 1.813 0 0 1-1.822-1.792 1.81 1.81 0 0 1 1.79-1.823 1.81 1.81 0 0 1 1.823 1.79 1.812 1.812 0 0 1-1.791 1.825zm21.685 0a1.812 1.812 0 0 1-1.81-1.805 1.81 1.81 0 0 1 1.804-1.81 1.81 1.81 0 0 1 1.81 1.804 1.813 1.813 0 0 1-1.804 1.81zM25.94 33.633c-.009 2.981-2.467 5.413-5.46 5.402-2.957-.013-5.389-2.462-5.388-5.427 0-2.984 2.45-5.427 5.437-5.422 2.983.005 5.42 2.458 5.411 5.448zm-3.618-.016a1.812 1.812 0 0 0-1.799-1.814 1.812 1.812 0 0 0-1.814 1.8 1.813 1.813 0 0 0 1.8 1.814 1.814 1.814 0 0 0 1.813-1.8zm-10.849.002a1.811 1.811 0 0 1-1.815 1.798A1.81 1.81 0 0 1 7.86 33.6a1.81 1.81 0 0 1 1.815-1.798 1.81 1.81 0 0 1 1.798 1.816zm21.699 0a1.812 1.812 0 0 1-1.818 1.798 1.81 1.81 0 0 1-1.796-1.817 1.81 1.81 0 0 1 1.817-1.797 1.81 1.81 0 0 1 1.797 1.817z"/></g></g></svg>