<svg xmlns="http://www.w3.org/2000/svg" width="47" height="47" viewBox="0 0 47 47"><g><g><path fill="#fd3a3e" d="M36.476 32.89c.011 2.83.046 5.664-.013 8.494-.051 2.42-1.922 4.489-4.367 4.988-.098.02-.192.062-.289.093H5.194c-.096-.03-.19-.072-.288-.093-1.585-.341-2.84-1.178-3.633-2.596-.342-.61-.508-1.321-.754-1.986V5.107c.031-.096.072-.19.092-.289.34-1.587 1.179-2.84 2.597-3.632C3.819.845 4.529.678 5.194.432h26.613c.44.134.92.197 1.31.419.668.38 1.34.796 1.901 1.316.73.677.668 1.818-.021 2.498-.703.695-1.78.716-2.506.009-.472-.46-1.003-.652-1.657-.652-8.226.01-16.452.006-24.678.007-1.32 0-2.04.708-2.04 2.012V35.644h28.771c0-.91-.014-1.819.004-2.727a1.795 1.795 0 0 1 2.227-1.725 1.778 1.778 0 0 1 1.358 1.698zm-3.593 6.415H4.115v1.42c0 1.47.672 2.144 2.136 2.144H30.75c.15 0 .3.005.45-.005.905-.059 1.639-.781 1.679-1.688.026-.612.005-1.226.005-1.871zm13.67-28.714v1.259c-.203.941-.478 1.854-1.098 2.62a9.806 9.806 0 0 1-.689.766c-4.478 4.483-8.954 8.967-13.449 13.433-.316.314-.74.568-1.16.72-2.251.806-4.534 1.529-6.775 2.363-1.806.673-3.317.174-4.695-.983-.513-.43-.949-.955-1.404-1.452-1.047-1.14-1.925-1.134-2.977.02-.454.496-.906 1-1.403 1.452-.945.86-2.078 1.284-3.358 1.288-1.002.003-1.796-.753-1.831-1.723-.036-.998.712-1.83 1.73-1.86.591-.018 1.02-.281 1.403-.69.491-.523.962-1.072 1.488-1.559 1.956-1.812 4.92-1.818 6.908-.041.595.532 1.2 1.052 1.802 1.577.025-.06.05-.118.07-.18.626-1.808 1.234-3.622 1.886-5.421.143-.393.382-.79.676-1.085A4015.26 4015.26 0 0 1 37.302 7.458c1.53-1.524 3.381-2.023 5.445-1.38 2.08.647 3.305 2.12 3.725 4.26.017.086.053.17.08.253zM41.652 9.49c-.758-.22-1.364.049-1.905.591-4.35 4.36-8.709 8.71-13.055 13.074a2.307 2.307 0 0 0-.512.816c-.4 1.09-.761 2.194-1.177 3.41 1.238-.427 2.357-.803 3.465-1.206.256-.093.516-.246.708-.437 4.341-4.326 8.673-8.661 13.006-12.995.137-.138.28-.274.397-.428a1.796 1.796 0 0 0-.927-2.825zm-17.006 1.73c-5.001 0-10.003.003-15.004 0-1.358-.002-2.246-1.162-1.832-2.38.256-.754.93-1.214 1.805-1.214 2.964-.004 5.93-.001 8.894-.001 2.98 0 5.96-.007 8.94.003 1.287.004 2.144 1.189 1.742 2.376-.245.725-.91 1.206-1.715 1.214-.943.01-1.886.002-2.83.002zm-1.834 4.565c.314.602.289 1.216-.078 1.794-.367.578-.914.836-1.593.836-1.932-.003-3.864-.002-5.795-.002-1.887 0-3.774.003-5.661 0-1.166-.002-1.978-.748-1.972-1.808.006-1.044.81-1.786 1.948-1.787 3.833-.002 7.667-.002 11.5 0 .738 0 1.308.311 1.65.967z"/></g></g></svg>