<svg xmlns="http://www.w3.org/2000/svg" width="44" height="47" viewBox="0 0 44 47"><g><g><path fill="#fd3a3e" d="M43.413 23.326c-.008 2.95-2.402 5.354-5.352 5.356a14902.9 14902.9 0 0 1-32.442 0c-2.966-.002-5.348-2.42-5.353-5.4C.256 17.556.26 11.833.264 6.108.266 3.392 2.06 1.235 4.738.707c.07-.014.133-.054.2-.082h33.804c.865.233 1.722.479 2.452 1.038 1.423 1.088 2.209 2.521 2.215 4.31.02 5.785.018 11.568.004 17.353zM39.82 11.45H3.859V23.035c0 1.345.707 2.055 2.046 2.055h31.869c1.338 0 2.046-.711 2.047-2.054v-9.128-2.458zm0-5.083c0-1.47-.671-2.144-2.136-2.144H5.995c-.149 0-.3-.005-.449.005-.905.057-1.64.78-1.678 1.688-.026.612-.006 1.226-.006 1.872h35.959V6.367zM28.182 35.683c-3.367 3.37-6.73 6.746-10.113 10.1-.361.36-.84.598-1.263.894h-.72c-.081-.036-.162-.072-.244-.104-1.246-.485-1.59-1.958-.684-2.947.243-.265.506-.512.76-.766 3.305-3.307 6.61-6.612 9.913-9.92.525-.527 1.123-.79 1.867-.586a1.784 1.784 0 0 1 .918 2.874c-.132.162-.285.307-.434.455zm.816 8.843c.177.819-.278 1.667-1.078 2.01-.108.048-.217.094-.326.14h-.72c-.108-.046-.217-.092-.326-.14-.799-.343-1.255-1.193-1.078-2.01.184-.851.909-1.446 1.764-1.446s1.58.594 1.764 1.446zM14.649 34.073a1.799 1.799 0 0 1 1.807-1.787 1.8 1.8 0 0 1 1.786 1.807 1.803 1.803 0 0 1-1.806 1.789 1.801 1.801 0 0 1-1.787-1.809zM7.457 19.676c.008-.992.79-1.764 1.816-1.78.598-.009 1.196-.002 1.795-.002.583 0 1.167-.007 1.75.002 1.05.015 1.836.8 1.828 1.813-.008.992-.789 1.77-1.816 1.78-1.182.012-2.364.01-3.545 0-1.048-.01-1.836-.802-1.828-1.813zm10.788.008c.005-.993.785-1.777 1.808-1.786 1.197-.013 2.394-.014 3.59 0a1.784 1.784 0 0 1 1.792 1.803c-.005.993-.785 1.77-1.809 1.788-.598.012-1.197.003-1.795.003-.598 0-1.197.01-1.795-.003-1.017-.021-1.795-.813-1.79-1.805zm10.789.004c.002-.993.782-1.774 1.804-1.791.598-.01 1.197-.003 1.795-.003.598 0 1.197-.009 1.795.003 1.02.02 1.797.806 1.795 1.8-.002.992-.782 1.78-1.804 1.791-1.197.014-2.394.014-3.59 0-1.02-.013-1.798-.808-1.795-1.8z"/></g></g></svg>