<svg xmlns="http://www.w3.org/2000/svg" width="20" height="31" viewBox="0 0 20 31"><g><g><path fill="#fd3a3e" d="M5.639.136h8.345c.055.023.11.048.166.055 2.96.394 5.186 2.878 5.193 5.86.015 6.24.012 12.48.001 18.722a5.9 5.9 0 0 1-3.79 5.494c-.503.194-1.046.285-1.57.421H5.639c-.056-.016-.11-.046-.166-.053C2.529 30.246.287 27.76.28 24.805.264 18.545.267 12.281.279 6.021.284 3.532 1.911 1.29 4.262.488 4.71.334 5.18.252 5.64.136zm-2.98 15.276v9.185c0 2.146 1.554 3.702 3.7 3.702 2.294.004 4.589 0 6.883 0 2.17 0 3.721-1.548 3.722-3.713V6.248c0-2.171-1.55-3.722-3.716-3.722H6.395c-2.19 0-3.736 1.543-3.736 3.728v9.158zm7.154-8.11c-.396 0-.793.004-1.19-.004-.677-.012-1.194-.535-1.195-1.192a1.186 1.186 0 0 1 1.19-1.19c.794-.006 1.587-.006 2.38 0 .679.007 1.195.527 1.196 1.187a1.184 1.184 0 0 1-1.19 1.193c-.397.01-.794.005-1.19.005zm.012 16.225c.386 0 .773-.003 1.16.003.695.009 1.216.534 1.21 1.205-.007.658-.526 1.169-1.208 1.178-.783.008-1.567.008-2.35 0-.694-.01-1.216-.533-1.21-1.205.008-.658.526-1.169 1.208-1.178.396-.006.793-.003 1.19-.003z"/></g></g></svg>