<svg xmlns="http://www.w3.org/2000/svg" width="38" height="51" viewBox="0 0 38 51"><g><g><path fill="#fd3a3e" d="M24.503.528c.744.216 1.53.343 2.226.666 3.031 1.407 4.603 3.818 4.709 7.16.036 1.155.012 2.312 0 3.469-.002.254.054.397.313.513 2.43 1.09 3.843 3.448 3.583 5.94-.274 2.636-2.133 4.659-4.803 5.227-.057.012-.112.031-.317.09.405.081.668.132.93.188 3.542.759 6.118 3.9 6.163 7.522.008.668.009 1.336 0 2.004-.013 1.196-.836 2.02-2.041 2.02-3.861.006-7.722.007-11.583 0-1.173-.002-2.012-.832-2.01-1.999.002-1.332-.128-2.677.28-3.98.99-3.167 3.119-5.058 6.387-5.66.09-.017.179-.043.313-.076-.606-.215-1.19-.35-1.706-.616-2.183-1.12-3.35-2.93-3.303-5.384.046-2.435 1.286-4.18 3.474-5.229.313-.15.43-.292.424-.637-.023-1.108-.002-2.216-.01-3.323-.018-2.285-1.708-3.978-3.997-3.982a4437.67 4437.67 0 0 0-15.493 0C5.785 4.446 4.076 6.146 4.074 8.4c-.007 11.436-.007 22.873 0 34.309.002 2.252 1.712 3.954 3.969 3.958 5.18.01 10.361.011 15.542 0 2.227-.006 3.918-1.71 3.947-3.935.007-.536-.013-1.074.007-1.612a1.949 1.949 0 0 1 1.838-1.876c1.022-.054 1.977.682 2.038 1.703.084 1.428.136 2.873-.367 4.255-1.079 2.959-3.167 4.732-6.276 5.29-.092.017-.18.06-.27.089h-17.4c-.09-.03-.178-.075-.27-.088-3.792-.565-6.66-3.814-6.665-7.64C.15 31.32.153 19.788.167 8.255.17 4.709 2.67 1.593 6.11.75c.329-.08.66-.149.99-.222h17.402zM33.378 31.4c.032-2.249-1.96-4.06-4.212-3.88-2.014.16-3.806 2.126-3.523 3.88h7.735zm-3.883-15.62a1.959 1.959 0 0 0-1.96 1.946 1.96 1.96 0 0 0 1.946 1.96 1.963 1.963 0 0 0 1.96-1.947 1.96 1.96 0 0 0-1.946-1.96zM13.064 26.7l3.631-3.633c.288-.288.568-.583.866-.86.81-.752 1.966-.751 2.731-.008.776.752.805 1.947.03 2.763-.727.768-1.49 1.503-2.237 2.252-1.163 1.163-2.322 2.329-3.49 3.487-.971.965-2.084.97-3.046.012-1.259-1.251-2.518-2.502-3.761-3.768-.624-.634-.754-1.444-.407-2.203a1.941 1.941 0 0 1 1.887-1.139c.546.033.99.28 1.371.665.79.797 1.584 1.59 2.425 2.431zm2.726-14.442c-.65 0-1.301.011-1.952-.003-1.105-.024-1.95-.886-1.945-1.964.006-1.079.855-1.928 1.969-1.94 1.284-.012 2.57-.01 3.854 0 1.144.01 2 .863 1.995 1.964-.006 1.097-.865 1.928-2.018 1.942-.634.008-1.269.001-1.903 0zm0 30.5c-.65 0-1.301.012-1.952-.002-1.105-.024-1.95-.885-1.945-1.964.006-1.079.855-1.929 1.968-1.94 1.285-.013 2.57-.011 3.855 0 1.144.009 2 .863 1.995 1.963-.006 1.097-.865 1.929-2.018 1.943-.634.007-1.268 0-1.903 0z"/></g></g></svg>