<svg xmlns="http://www.w3.org/2000/svg" width="36" height="31" viewBox="0 0 36 31"><g><g><path fill="#fd3a3e" d="M36 15.239v.55c-.28.82-.86 1.134-1.713 1.104-1.061-.034-2.125-.003-3.188-.01-.194-.003-.294.047-.383.239-.754 1.628-2.04 2.476-3.835 2.502-1.096.016-2.201.054-3.286-.066-1.47-.16-2.513-1.02-3.142-2.353-.117-.248-.232-.326-.5-.326-5.794.008-11.589-.002-17.384.017-.85.002-1.434-.286-1.71-1.108v-.549c.276-.823.859-1.108 1.71-1.106 5.772.018 11.544.008 17.317.014.288 0 .443-.056.586-.353.736-1.521 1.975-2.34 3.667-2.386 1.129-.03 2.27-.06 3.389.06 1.5.159 2.55 1.042 3.176 2.407.1.217.207.274.43.272 1.051-.012 2.104.022 3.154-.013.852-.028 1.435.282 1.711 1.105zm-7.69.266c-.004-.77-.61-1.357-1.417-1.362a168.5 168.5 0 0 0-2.672.002c-.799.006-1.403.608-1.399 1.379.005.754.602 1.347 1.384 1.36.456.008.913.001 1.37.002.433 0 .867.003 1.301 0 .828-.01 1.438-.599 1.434-1.381zM36 26.215v.55c-.28.82-.861 1.108-1.712 1.105-5.612-.017-11.224-.008-16.836-.015-.268-.001-.381.08-.5.325-.742 1.533-1.975 2.368-3.684 2.415-1.129.03-2.27.06-3.389-.06-1.497-.163-2.551-1.04-3.177-2.407-.1-.218-.207-.273-.43-.272-1.234.01-2.469-.021-3.702.014-.852.024-1.435-.284-1.712-1.106v-.55c.277-.822.86-1.13 1.711-1.105 1.234.034 2.469.003 3.703.014.222.001.329-.057.43-.273.738-1.567 1.984-2.42 3.72-2.466 1.14-.032 2.293-.058 3.423.065 1.43.157 2.456.996 3.074 2.29.148.307.31.387.635.386 5.578-.01 11.156.001 16.734-.016.85-.004 1.435.283 1.711 1.106zm-21.416.283c.005-.77-.599-1.372-1.4-1.38-.89-.006-1.78-.005-2.67 0-.807.006-1.414.594-1.419 1.36-.004.784.606 1.375 1.433 1.382.434.004.868 0 1.302 0 .457 0 .913.007 1.37-.001.782-.013 1.38-.605 1.384-1.36zM.858 4.814v-.55c.277-.822.86-1.13 1.711-1.106 1.245.034 2.492.005 3.738.013.194.001.294-.048.383-.24.747-1.615 2.02-2.47 3.801-2.5 1.13-.02 2.273-.065 3.389.072 2.093.26 3.594 2.222 3.442 4.343-.15 2.087-1.924 3.781-4.017 3.801-1.153.012-2.317.058-3.458-.068-1.484-.165-2.524-1.047-3.144-2.4-.1-.217-.206-.274-.43-.273-1.234.01-2.47-.021-3.703.014-.852.023-1.435-.284-1.712-1.106zm8.237-.277c0 .756.596 1.362 1.374 1.371.913.01 1.827.01 2.74 0a1.367 1.367 0 0 0 1.375-1.37c0-.756-.596-1.354-1.374-1.37-.445-.007-.89-.002-1.336-.002-.468 0-.936-.005-1.404.003-.778.013-1.374.613-1.375 1.368zM36 4.264v.55c-.278.821-.861 1.11-1.713 1.106-4.243-.021-8.486-.01-12.73-.008-.618 0-1.089-.242-1.353-.811a1.357 1.357 0 0 1 1.217-1.93c.812-.017 1.624-.005 2.436-.005 3.477 0 6.954.015 10.43-.008.852-.007 1.437.283 1.713 1.106z"/></g></g></svg>