<svg xmlns="http://www.w3.org/2000/svg" width="36" height="36" viewBox="0 0 36 36"><g><g><path fill="#338fec" d="M18 0c9.941 0 18 8.06 18 18s-8.059 18-18 18S0 27.94 0 18 8.059 0 18 0z"/></g><g><path fill="#fff" d="M25.358 11.933c-.084.396-.173.79-.253 1.184l-1.587 7.908c-.239 1.192-.48 2.382-.715 3.574-.129.656-.926.968-1.462.564-1.945-1.47-3.889-2.942-5.833-4.415-.025-.02-.048-.04-.084-.072l.365-.327c2.295-2.044 4.591-4.086 6.884-6.132a1.3 1.3 0 0 0 .255-.299c.083-.14.007-.248-.157-.216-.147.03-.295.092-.423.17-1.108.689-2.21 1.385-3.316 2.08-1.9 1.193-3.8 2.385-5.698 3.581a.336.336 0 0 1-.323.037c-1.102-.37-2.206-.736-3.309-1.104-.315-.103-.57-.276-.702-.592v-.222c.137-.257.367-.398.63-.5 4.69-1.82 9.38-3.64 14.07-5.455.306-.119.617-.235.934-.313.381-.094.58.013.724.33v.22z"/></g></g></svg>