<svg xmlns="http://www.w3.org/2000/svg" width="36" height="36" viewBox="0 0 36 36"><g><g><path fill="#25d366" d="M18 0c9.941 0 18 8.06 18 18s-8.059 18-18 18S0 27.94 0 18 8.059 0 18 0z"/></g><g><path fill="#fff" d="M27 17.999c-.003 4.875-3.988 8.844-8.885 8.844h-.003a8.927 8.927 0 0 1-4.246-1.077l-4.71 1.23 1.261-4.583a8.798 8.798 0 0 1-1.186-4.422c.002-4.876 3.988-8.843 8.884-8.843a8.85 8.85 0 0 1 6.284 2.593A8.771 8.771 0 0 1 27 18zm-1.5-.002c0-1.963-.767-3.81-2.162-5.199a7.343 7.343 0 0 0-5.22-2.157c-4.073 0-7.385 3.298-7.387 7.35 0 1.39.39 2.742 1.13 3.912l.175.279-.746 2.713 2.795-.73.269.158a7.408 7.408 0 0 0 3.758 1.025h.003c4.07 0 7.383-3.297 7.384-7.351zm-2.91 2.105c.056.091.056.534-.128 1.05-.186.516-1.072.988-1.499 1.051-.382.057-.866.08-1.398-.088a12.497 12.497 0 0 1-1.265-.466c-2.227-.957-3.681-3.188-3.792-3.336-.111-.147-.907-1.198-.907-2.286 0-1.087.574-1.622.777-1.843a.82.82 0 0 1 .592-.278c.148 0 .296.002.425.009.137.007.32-.05.5.379.185.442.629 1.53.684 1.64.056.112.093.241.019.388-.074.147-.315.458-.555.757-.099.12-.227.23-.097.45s.575.945 1.234 1.53c.848.753 1.563.986 1.785 1.098.223.11.352.092.481-.055.13-.149.555-.646.703-.868.148-.22.296-.183.5-.11.203.074 1.295.608 1.516.72.222.11.37.165.426.258z"/></g></g></svg>