<svg xmlns="http://www.w3.org/2000/svg" width="21" height="21" viewBox="0 0 21 21"><g><g><path fill="#fd3a3e" d="M14.86 7.492a.796.796 0 0 1 0 1.126L9.517 13.96a.795.795 0 0 1-1.126 0l-2.544-2.544a.796.796 0 1 1 1.126-1.126l1.98 1.98 4.78-4.78a.795.795 0 0 1 1.127 0zm5.529 3.314a10.19 10.19 0 0 1-10.195 10.195A10.19 10.19 0 0 1 0 10.806C0 5.17 4.56.612 10.194.612A10.19 10.19 0 0 1 20.39 10.806zm-1.593 0a8.596 8.596 0 0 0-8.602-8.601 8.596 8.596 0 0 0-8.601 8.601c0 4.754 3.848 8.6 8.601 8.6a8.596 8.596 0 0 0 8.602-8.6z"/></g></g></svg>