<svg xmlns="http://www.w3.org/2000/svg" width="122" height="45" viewBox="0 0 122 45"><g><g><path fill="#fd3a3e" d="M84.364.91c.465 0 .407.172-.116.403-.522.23-1.16.577-1.393.75-.232.172-.696.575-1.044.92-.349.347-.813 1.212-1.103 1.961-.29.75-.464 2.536-.523 3.977-.058 1.44-.058 2.709-.058 2.824 0 .033-.063.046-.176.046-.291 0-.912-.095-1.623-.219-.493-.115-1.509-.173-2.742-.173-1.234 0-2.685.058-4.049.173l-.058-.057c-1.858.153-3.896.23-5.392.23-.748 0-1.36-.019-1.747-.057-1.16-.116-2.612-.231-3.134-.231h-1.103c-.058 0-.116.404-.116.865 0 .46.174 2.074.348 3.514.232 1.442.987 3.632 1.683 4.727.697 1.096 2.554 2.363 4.063 2.766 1.51.346 3.25.692 3.89.692h2.205c.638 0 1.102.058 1.102.173v2.94c0 1.555-.058 3.284-.174 3.918-.116.634-.696 1.268-1.277 1.499-.58.172-3.366.346-6.094.346h-5.166c-.058 0-.174 1.613-.232 3.573 0 1.958.29 4.668.697 6.05.406 1.384.696 2.479.638 2.479H49.77c-.928 0-1.625-.864-1.625-1.844V37.91v-8.24-12.738-8.933-5.533c0-.864 1.045-1.555 2.38-1.555h33.838zm11.6 28.072c.753 0 2.433 0 3.706-.115h3.475c.638 0 .927-.687.696-1.492a295.413 295.413 0 0 0-1.854-6.2c-.81-2.584-1.68-5.512-1.969-6.487-.149-.502-.344-.762-.538-.761-.182 0-.364.23-.505.703-.289.976-1.158 3.904-1.968 6.488l-.058.113c-.811 2.643-1.68 5.455-1.912 6.259-.232.802.174 1.492.927 1.492 0 0-.753 0 0 0zM103.377.911c1.796 0 3.997 2.122 4.865 4.706l10.889 32.035c.868 2.582 1.794 5.28 2.026 6.026.232.746-.29 1.32-1.1 1.32h-9.788c-.695 0-1.39-.515-1.563-1.09-.174-.574-.406-1.261-.464-1.55-.058-.287-.29-1.09-.522-1.78-.172-.746-.925-1.32-1.62-1.32H92.894c-.81 0-1.563.46-1.737 1.034a152.12 152.12 0 0 0-.521 1.78c-.116.344-.348 1.205-.522 1.78-.231.631-.868 1.09-1.447 1.09H77.43c-.116 0-.058-.402.174-.975.231-.575.463-1.035.463-1.035.058-.057.29-1.09.521-2.354.232-1.261.521-3.271.58-4.477.057-1.205 1.042-2.756 2.2-3.56 1.158-.803 3.186-2.64 4.46-4.19 1.274-1.55 2.953-4.707 3.706-7.12.753-2.352 1.274-6.198 1.217-8.553-.058-2.353 0-5.28.115-6.66.116-1.376.29-2.754.29-3.041 0-.289.174-.804.347-1.091.174-.287.637-.632.927-.747.29-.113.637-.228.695-.228h10.252zm-62.9 0H2.41C1.356.91.653 1.599.653 2.459v7.98c0 .861.703 1.55 1.581 1.55h10.893c.878 0 1.581.69 1.581 1.55v29.91c0 .862.703 1.55 1.581 1.55h10.132c.878 0 1.581-.688 1.581-1.55V13.483c0-.862.703-1.55 1.581-1.55h10.893c.878 0 1.581-.69 1.581-1.55V2.459c0-.86-.703-1.548-1.58-1.548m45.42 2.45c-.672 0-1.217.548-1.217 1.223 0 .677.545 1.225 1.217 1.225.673 0 1.218-.548 1.218-1.225a1.22 1.22 0 0 0-1.218-1.224"/></g></g></svg>