<svg xmlns="http://www.w3.org/2000/svg" width="25" height="25" viewBox="0 0 25 25"><g><g><path fill="#fff" d="M6.77 8.317c-.528.008-.852-.133-1.12-.398-.64-.634-1.284-1.266-1.91-1.912-.54-.56-.526-1.386.005-1.915.53-.526 1.351-.532 1.913.009a84.786 84.786 0 0 1 1.912 1.91c.415.43.515.948.276 1.499-.227.526-.657.779-1.075.807zm14.686-3.209c-.158.3-.262.649-.483.89a45.37 45.37 0 0 1-1.904 1.919c-.562.542-1.385.536-1.914.01-.54-.535-.54-1.366.016-1.936.622-.638 1.251-1.266 1.889-1.889.428-.416.939-.516 1.495-.29.508.205.82.699.816 1.252l.085.044zM7.962 18.476c0 .381-.15.7-.414.965-.62.626-1.236 1.253-1.865 1.864-.575.56-1.402.565-1.939.03-.539-.535-.538-1.363.02-1.937.621-.636 1.25-1.268 1.889-1.887.428-.419.94-.514 1.495-.29.507.208.818.701.814 1.255zm13.422 1.752c-.034.706-.278 1.127-.782 1.365-.504.24-1.018.204-1.422-.17a37.264 37.264 0 0 1-2.125-2.127c-.473-.515-.389-1.32.111-1.806.489-.475 1.277-.541 1.783-.074a38.894 38.894 0 0 1 2.122 2.127c.19.21.248.537.313.685zm-7.67-16.984c0 .44.006.878-.001 1.32-.013.791-.604 1.383-1.365 1.377-.746-.007-1.333-.596-1.34-1.368-.01-.89-.009-1.78 0-2.67.006-.792.602-1.384 1.363-1.379.748.007 1.328.592 1.341 1.368.008.451.002.9.002 1.352zm-2.708 18.97c0-.455-.006-.904 0-1.354.013-.774.592-1.364 1.339-1.373.762-.007 1.359.586 1.367 1.375.009.892.009 1.782 0 2.671-.008.79-.61 1.38-1.371 1.372-.745-.01-1.323-.6-1.334-1.375-.007-.439-.001-.88-.001-1.317zm-8.011-8.146c-.406 0-.812.009-1.217 0A1.352 1.352 0 0 1 .44 12.694c.009-.732.59-1.32 1.34-1.332a85.925 85.925 0 0 1 2.468 0c.75.012 1.33.602 1.337 1.336.007.75-.577 1.347-1.34 1.368-.417.01-.834.001-1.251.001zm18.726-2.707c.405 0 .811-.008 1.216.002a1.348 1.348 0 0 1 1.341 1.368 1.345 1.345 0 0 1-1.336 1.335c-.822.012-1.645.012-2.468 0a1.346 1.346 0 0 1-1.34-1.366 1.348 1.348 0 0 1 1.336-1.337c.417-.01.834-.002 1.25-.002z"/></g></g></svg>