<svg xmlns="http://www.w3.org/2000/svg" width="15" height="24" viewBox="0 0 15 24"><g><g><path fill="#ffd87a" d="M4.102.569h6.232c.042.015.082.035.124.04 2.211.293 3.874 2.15 3.879 4.376.01 4.66.008 9.321 0 13.984a4.407 4.407 0 0 1-2.83 4.102c-.376.144-.781.21-1.173.312H4.102c-.042-.012-.082-.03-.124-.038C1.779 23.055.105 21.198.1 18.993.088 14.317.09 9.64.099 4.963.103 3.103 1.318 1.428 3.074.828c.333-.114.685-.173 1.028-.26zM1.876 11.976v6.86c0 1.604 1.161 2.765 2.764 2.765 1.713.002 3.427.002 5.14 0 1.62 0 2.78-1.156 2.78-2.773V5.13c0-1.62-1.157-2.776-2.775-2.778H4.667c-1.636.002-2.79 1.154-2.79 2.784l-.001 6.841zm5.343-6.06c-.296 0-.592.007-.888 0-.506-.011-.892-.398-.893-.887 0-.493.385-.886.89-.894a89.557 89.557 0 0 1 1.777 0 .886.886 0 0 1 .893.889.888.888 0 0 1-.89.891c-.296.008-.592.002-.889.002zm.009 12.121c.289 0 .578-.003.867.002.518.008.908.398.903.899a.885.885 0 0 1-.902.88c-.585.007-1.17.007-1.755 0-.518-.004-.908-.398-.903-.898.005-.492.392-.873.901-.88.296-.006.593-.003.889-.003z"/></g></g></svg>