<svg xmlns="http://www.w3.org/2000/svg" width="20" height="31" viewBox="0 0 20 31"><g><g><path fill="#e3e4e6" d="M5.639.143h8.345c.055.017.11.04.166.052 2.96.39 5.186 2.876 5.193 5.856.014 6.242.012 12.482.001 18.726a5.896 5.896 0 0 1-3.79 5.49c-.503.192-1.046.287-1.57.419H5.639c-.056-.014-.11-.045-.166-.05-2.944-.39-5.186-2.875-5.193-5.829A4319.85 4319.85 0 0 1 .279 6.022C.284 3.533 1.911 1.29 4.262.489 4.71.335 5.18.254 5.64.143zm-2.98 15.269c0 3.062-.002 6.12 0 9.182 0 2.151 1.554 3.708 3.7 3.708h6.883c2.17 0 3.721-1.55 3.722-3.716V6.246c0-2.168-1.55-3.718-3.716-3.719H6.395c-2.19.001-3.736 1.543-3.736 3.73v9.155zM9.812 7.3c-.397 0-.793.006-1.19-.004-.677-.014-1.194-.533-1.195-1.188-.001-.659.515-1.185 1.19-1.194.794-.01 1.587-.01 2.38 0a1.184 1.184 0 0 1 1.196 1.19c.001.658-.514 1.178-1.19 1.192-.397.01-.794.004-1.191.004zm.012 16.226h1.16c.695.014 1.216.538 1.21 1.207-.007.657-.526 1.17-1.208 1.18-.783.006-1.567.006-2.35 0-.694-.009-1.216-.533-1.21-1.206.008-.657.526-1.167 1.208-1.178.396-.004.793-.003 1.19-.003z"/></g></g></svg>