<svg xmlns="http://www.w3.org/2000/svg" width="11" height="15" viewBox="0 0 11 15"><defs><mask id="al7rb" width="2" height="2" x="-1" y="-1"><path fill="#fff" d="M0 0h11v14H0z"/><path d="M9.523 5.89L1.896.705C1.544.467 1.19.34.894.34c-.57 0-.923.455-.923 1.216v11.202c0 .759.352 1.212.921 1.212.296 0 .645-.125.998-.366L9.52 8.42c.491-.334.763-.783.763-1.264 0-.483-.268-.932-.76-1.267z"/></mask><filter id="al7ra" width="31" height="35" x="-10" y="-10" filterUnits="userSpaceOnUse"><feOffset dy="1" in="SourceGraphic" result="FeOffset1384Out"/><feGaussianBlur in="FeOffset1384Out" result="FeGaussianBlur1385Out" stdDeviation="0 0"/></filter></defs><g><g><g filter="url(#al7ra)"><path fill="none" d="M9.523 5.89L1.896.705C1.544.467 1.19.34.894.34c-.57 0-.923.455-.923 1.216v11.202c0 .759.352 1.212.921 1.212.296 0 .645-.125.998-.366L9.52 8.42c.491-.334.763-.783.763-1.264 0-.483-.268-.932-.76-1.267z" mask="url(&quot;#al7rb&quot;)"/><path fill="#fff" fill-opacity=".5" d="M9.523 5.89L1.896.705C1.544.467 1.19.34.894.34c-.57 0-.923.455-.923 1.216v11.202c0 .759.352 1.212.921 1.212.296 0 .645-.125.998-.366L9.52 8.42c.491-.334.763-.783.763-1.264 0-.483-.268-.932-.76-1.267z"/></g><path fill="#191919" d="M9.523 5.89L1.896.705C1.544.467 1.19.34.894.34c-.57 0-.923.455-.923 1.216v11.202c0 .759.352 1.212.921 1.212.296 0 .645-.125.998-.366L9.52 8.42c.491-.334.763-.783.763-1.264 0-.483-.268-.932-.76-1.267z"/></g></g></svg>