<svg xmlns="http://www.w3.org/2000/svg" width="31" height="21" viewBox="0 0 31 21"><g><g><g opacity=".7"><path fill="#191919" d="M16.002 2.883a.441.441 0 0 1-.605-.148.441.441 0 0 1 .15-.605C19.837-.434 25.36.469 28.598 4.268a10.143 10.143 0 0 1 0 13.17c-3.238 3.799-8.761 4.697-13.05 2.135a.44.44 0 0 1-.15-.604.44.44 0 0 1 .605-.146 9.365 9.365 0 0 0 11.924-1.952 9.27 9.27 0 0 0 0-12.036C24.966 1.364 19.92.54 16.002 2.883zm4.483 8.708a.44.44 0 1 1 .065-.876 2.544 2.544 0 0 0 2.735-2.33c0-1.201-1.181-2.067-2.843-2.067h-1.258a.438.438 0 1 1 0-.878h1.258c2.1 0 3.724 1.188 3.723 2.974a3.418 3.418 0 0 1-1.177 2.351 3.451 3.451 0 0 1-2.503.826zm-.244 2.367a.438.438 0 1 1 0-.875h2.352a.438.438 0 0 1 0 .874z"/></g><g><path fill="#191919" d="M10.743 21.025C5.1 21.025.527 16.472.527 10.85.527 5.232 5.101.678 10.743.678c5.641 0 10.215 4.554 10.215 10.172 0 5.622-4.574 10.175-10.215 10.175zm0-.877c5.155 0 9.334-4.162 9.334-9.298 0-5.134-4.179-9.293-9.334-9.293-5.156 0-9.335 4.16-9.335 9.293 0 5.136 4.18 9.298 9.335 9.298zm-.398-8.557a.44.44 0 1 1 .065-.876c1.43.105 2.682-.946 2.811-2.331 0-1.2-1.182-2.066-2.843-2.066H8.956v6.765h3.573a.438.438 0 0 1 0 .874H8.956v1.267a.438.438 0 0 1-.44.439.438.438 0 0 1-.44-.44v-1.265h-.252a.438.438 0 1 1 0-.875h.252v-6.78c0-.478.388-.863.867-.863h1.435c2.1 0 3.724 1.188 3.722 2.984a3.508 3.508 0 0 1-3.755 3.167z"/></g></g></g></svg>