<svg xmlns="http://www.w3.org/2000/svg" width="27" height="23" viewBox="0 0 27 23"><g><g><path fill="#fff" d="M26.333 1.258c-.132.616-.27 1.23-.395 1.846-.826 4.107-1.65 8.214-2.473 12.322-.373 1.859-.748 3.715-1.114 5.571-.202 1.024-1.443 1.51-2.279.879a8662.307 8662.307 0 0 1-9.092-6.88c-.038-.028-.074-.062-.131-.111.195-.178.382-.346.57-.511 3.577-3.186 7.155-6.37 10.73-9.556.151-.134.293-.294.396-.467.13-.217.01-.388-.245-.337-.229.047-.46.141-.658.264-1.727 1.075-3.447 2.16-5.169 3.243a4967.358 4967.358 0 0 0-8.88 5.581.528.528 0 0 1-.505.059c-1.717-.58-3.437-1.15-5.157-1.72-.49-.165-.889-.434-1.094-.926v-.343c.213-.4.572-.623.98-.78C9.128 6.558 16.438 3.72 23.75.887c.477-.183.96-.364 1.456-.487.594-.145.902.02 1.128.513v.345z"/></g></g></svg>