<svg xmlns="http://www.w3.org/2000/svg" width="25" height="25" viewBox="0 0 25 25"><g><g><path fill="#fff" d="M24.088 12.297c-.003 6.584-5.384 11.94-11.994 11.94h-.005a12.033 12.033 0 0 1-5.731-1.455l-6.359 1.661 1.702-6.187A11.877 11.877 0 0 1 .1 12.287C.103 5.704 5.483.35 12.094.35c3.208 0 6.22 1.243 8.484 3.5a11.84 11.84 0 0 1 3.51 8.447zm-2.025-.001a9.835 9.835 0 0 0-2.917-7.02 9.923 9.923 0 0 0-7.048-2.911c-5.499 0-9.97 4.452-9.973 9.922 0 1.876.526 3.702 1.524 5.284l.237.374-1.007 3.663 3.773-.987.364.215a10 10 0 0 0 5.074 1.385h.004c5.495 0 9.966-4.453 9.969-9.925zm-3.927 2.84c.075.124.075.723-.174 1.419-.25.696-1.447 1.333-2.023 1.418-.517.077-1.17.11-1.888-.118-.435-.138-.993-.32-1.708-.629-3.007-1.291-4.97-4.306-5.12-4.503C7.073 12.523 6 11.105 6 9.636c0-1.468.774-2.19 1.048-2.489.275-.299.6-.374.8-.374.2 0 .4.004.574.012.184.008.431-.07.674.51.25.598.85 2.068.924 2.216.075.149.125.324.025.523-.1.2-.424.619-.749 1.02-.133.165-.306.31-.131.609.174.298.776 1.276 1.667 2.067 1.144 1.016 2.11 1.331 2.41 1.482.3.149.474.124.65-.075.174-.2.748-.871.948-1.17.2-.3.4-.25.674-.15.275.1 1.749.82 2.048.972.3.148.5.223.574.348z"/></g></g></svg>